%TF.GenerationSoftware,KiCad,Pcbnew,(6.0.2)*%
%TF.CreationDate,2022-03-17T20:21:47-04:00*%
%TF.ProjectId,sparkboxBreakout,73706172-6b62-46f7-9842-7265616b6f75,rev?*%
%TF.SameCoordinates,Original*%
%TF.FileFunction,Paste,Top*%
%TF.FilePolarity,Positive*%
%FSLAX46Y46*%
G04 Gerber Fmt 4.6, Leading zero omitted, Abs format (unit mm)*
G04 Created by KiCad (PCBNEW (6.0.2)) date 2022-03-17 20:21:47*
%MOMM*%
%LPD*%
G01*
G04 APERTURE LIST*
G04 Aperture macros list*
%AMRoundRect*
0 Rectangle with rounded corners*
0 $1 Rounding radius*
0 $2 $3 $4 $5 $6 $7 $8 $9 X,Y pos of 4 corners*
0 Add a 4 corners polygon primitive as box body*
4,1,4,$2,$3,$4,$5,$6,$7,$8,$9,$2,$3,0*
0 Add four circle primitives for the rounded corners*
1,1,$1+$1,$2,$3*
1,1,$1+$1,$4,$5*
1,1,$1+$1,$6,$7*
1,1,$1+$1,$8,$9*
0 Add four rect primitives between the rounded corners*
20,1,$1+$1,$2,$3,$4,$5,0*
20,1,$1+$1,$4,$5,$6,$7,0*
20,1,$1+$1,$6,$7,$8,$9,0*
20,1,$1+$1,$8,$9,$2,$3,0*%
G04 Aperture macros list end*
%ADD10R,2.000000X4.500000*%
%ADD11R,2.000000X1.500000*%
%ADD12R,2.000000X3.800000*%
%ADD13RoundRect,0.150000X-0.512500X-0.150000X0.512500X-0.150000X0.512500X0.150000X-0.512500X0.150000X0*%
%ADD14RoundRect,0.075000X-0.725000X-0.075000X0.725000X-0.075000X0.725000X0.075000X-0.725000X0.075000X0*%
%ADD15RoundRect,0.075000X-0.075000X-0.725000X0.075000X-0.725000X0.075000X0.725000X-0.075000X0.725000X0*%
%ADD16RoundRect,0.245000X0.855000X-0.245000X0.855000X0.245000X-0.855000X0.245000X-0.855000X-0.245000X0*%
%ADD17RoundRect,0.135000X0.135000X0.185000X-0.135000X0.185000X-0.135000X-0.185000X0.135000X-0.185000X0*%
%ADD18RoundRect,0.135000X-0.135000X-0.185000X0.135000X-0.185000X0.135000X0.185000X-0.135000X0.185000X0*%
%ADD19R,1.600000X0.700000*%
%ADD20RoundRect,0.100000X-0.825000X0.100000X-0.825000X-0.100000X0.825000X-0.100000X0.825000X0.100000X0*%
%ADD21RoundRect,0.325000X-0.325000X0.520000X-0.325000X-0.520000X0.325000X-0.520000X0.325000X0.520000X0*%
%ADD22RoundRect,0.225000X-0.225000X0.587500X-0.225000X-0.587500X0.225000X-0.587500X0.225000X0.587500X0*%
%ADD23RoundRect,0.243750X-0.243750X-0.456250X0.243750X-0.456250X0.243750X0.456250X-0.243750X0.456250X0*%
%ADD24RoundRect,0.218750X-0.218750X-0.256250X0.218750X-0.256250X0.218750X0.256250X-0.218750X0.256250X0*%
%ADD25RoundRect,0.140000X-0.140000X-0.170000X0.140000X-0.170000X0.140000X0.170000X-0.140000X0.170000X0*%
%ADD26RoundRect,0.140000X0.140000X0.170000X-0.140000X0.170000X-0.140000X-0.170000X0.140000X-0.170000X0*%
%ADD27RoundRect,0.140000X-0.170000X0.140000X-0.170000X-0.140000X0.170000X-0.140000X0.170000X0.140000X0*%
%ADD28RoundRect,0.140000X0.170000X-0.140000X0.170000X0.140000X-0.170000X0.140000X-0.170000X-0.140000X0*%
G04 APERTURE END LIST*
D10*
%TO.C,Y1*%
X116425000Y-99825000D03*
X116425000Y-91325000D03*
%TD*%
D11*
%TO.C,U5*%
X98875000Y-109300000D03*
D12*
X105175000Y-111600000D03*
D11*
X98875000Y-111600000D03*
X98875000Y-113900000D03*
%TD*%
D13*
%TO.C,U4*%
X142837500Y-91450000D03*
X142837500Y-92400000D03*
X142837500Y-93350000D03*
X145112500Y-93350000D03*
X145112500Y-92400000D03*
X145112500Y-91450000D03*
%TD*%
%TO.C,U3*%
X143112500Y-95700000D03*
X143112500Y-96650000D03*
X143112500Y-97600000D03*
X145387500Y-97600000D03*
X145387500Y-95700000D03*
%TD*%
D11*
%TO.C,U2*%
X98850000Y-101725000D03*
D12*
X105150000Y-104025000D03*
D11*
X98850000Y-104025000D03*
X98850000Y-106325000D03*
%TD*%
D14*
%TO.C,U1*%
X123575000Y-90000000D03*
X123575000Y-90500000D03*
X123575000Y-91000000D03*
X123575000Y-91500000D03*
X123575000Y-92000000D03*
X123575000Y-92500000D03*
X123575000Y-93000000D03*
X123575000Y-93500000D03*
X123575000Y-94000000D03*
X123575000Y-94500000D03*
X123575000Y-95000000D03*
X123575000Y-95500000D03*
X123575000Y-96000000D03*
X123575000Y-96500000D03*
X123575000Y-97000000D03*
X123575000Y-97500000D03*
X123575000Y-98000000D03*
X123575000Y-98500000D03*
X123575000Y-99000000D03*
X123575000Y-99500000D03*
X123575000Y-100000000D03*
X123575000Y-100500000D03*
X123575000Y-101000000D03*
X123575000Y-101500000D03*
X123575000Y-102000000D03*
D15*
X125250000Y-103675000D03*
X125750000Y-103675000D03*
X126250000Y-103675000D03*
X126750000Y-103675000D03*
X127250000Y-103675000D03*
X127750000Y-103675000D03*
X128250000Y-103675000D03*
X128750000Y-103675000D03*
X129250000Y-103675000D03*
X129750000Y-103675000D03*
X130250000Y-103675000D03*
X130750000Y-103675000D03*
X131250000Y-103675000D03*
X131750000Y-103675000D03*
X132250000Y-103675000D03*
X132750000Y-103675000D03*
X133250000Y-103675000D03*
X133750000Y-103675000D03*
X134250000Y-103675000D03*
X134750000Y-103675000D03*
X135250000Y-103675000D03*
X135750000Y-103675000D03*
X136250000Y-103675000D03*
X136750000Y-103675000D03*
X137250000Y-103675000D03*
D14*
X138925000Y-102000000D03*
X138925000Y-101500000D03*
X138925000Y-101000000D03*
X138925000Y-100500000D03*
X138925000Y-100000000D03*
X138925000Y-99500000D03*
X138925000Y-99000000D03*
X138925000Y-98500000D03*
X138925000Y-98000000D03*
X138925000Y-97500000D03*
X138925000Y-97000000D03*
X138925000Y-96500000D03*
X138925000Y-96000000D03*
X138925000Y-95500000D03*
X138925000Y-95000000D03*
X138925000Y-94500000D03*
X138925000Y-94000000D03*
X138925000Y-93500000D03*
X138925000Y-93000000D03*
X138925000Y-92500000D03*
X138925000Y-92000000D03*
X138925000Y-91500000D03*
X138925000Y-91000000D03*
X138925000Y-90500000D03*
X138925000Y-90000000D03*
D15*
X137250000Y-88325000D03*
X136750000Y-88325000D03*
X136250000Y-88325000D03*
X135750000Y-88325000D03*
X135250000Y-88325000D03*
X134750000Y-88325000D03*
X134250000Y-88325000D03*
X133750000Y-88325000D03*
X133250000Y-88325000D03*
X132750000Y-88325000D03*
X132250000Y-88325000D03*
X131750000Y-88325000D03*
X131250000Y-88325000D03*
X130750000Y-88325000D03*
X130250000Y-88325000D03*
X129750000Y-88325000D03*
X129250000Y-88325000D03*
X128750000Y-88325000D03*
X128250000Y-88325000D03*
X127750000Y-88325000D03*
X127250000Y-88325000D03*
X126750000Y-88325000D03*
X126250000Y-88325000D03*
X125750000Y-88325000D03*
X125250000Y-88325000D03*
%TD*%
D16*
%TO.C,SW2*%
X93895000Y-97125000D03*
X102355000Y-97125000D03*
X102355000Y-92625000D03*
X93895000Y-92625000D03*
%TD*%
%TO.C,SW1*%
X93845000Y-87025000D03*
X102305000Y-87025000D03*
X102305000Y-82525000D03*
X93845000Y-82525000D03*
%TD*%
D17*
%TO.C,R14*%
X100360000Y-91375000D03*
X99340000Y-91375000D03*
%TD*%
%TO.C,R13*%
X143770000Y-99075000D03*
X142750000Y-99075000D03*
%TD*%
D18*
%TO.C,R12*%
X144840000Y-99050000D03*
X145860000Y-99050000D03*
%TD*%
%TO.C,R11*%
X128515000Y-86575000D03*
X129535000Y-86575000D03*
%TD*%
D17*
%TO.C,R10*%
X108010000Y-95825000D03*
X106990000Y-95825000D03*
%TD*%
%TO.C,R9*%
X108085000Y-93700000D03*
X107065000Y-93700000D03*
%TD*%
%TO.C,R8*%
X108035000Y-91550000D03*
X107015000Y-91550000D03*
%TD*%
%TO.C,R7*%
X107935000Y-89375000D03*
X106915000Y-89375000D03*
%TD*%
%TO.C,R6*%
X108010000Y-87150000D03*
X106990000Y-87150000D03*
%TD*%
%TO.C,R5*%
X107935000Y-84975000D03*
X106915000Y-84975000D03*
%TD*%
%TO.C,R4*%
X107860000Y-82800000D03*
X106840000Y-82800000D03*
%TD*%
%TO.C,R3*%
X107885000Y-80650000D03*
X106865000Y-80650000D03*
%TD*%
%TO.C,R2*%
X102770000Y-116050000D03*
X101750000Y-116050000D03*
%TD*%
%TO.C,R1*%
X102785000Y-99475000D03*
X101765000Y-99475000D03*
%TD*%
D19*
%TO.C,J2*%
X147625000Y-95425000D03*
X147625000Y-93425000D03*
X147625000Y-91425000D03*
X147625000Y-89425000D03*
X147625000Y-88425000D03*
X147625000Y-90425000D03*
X147625000Y-92425000D03*
X147625000Y-94425000D03*
X147625000Y-96425000D03*
%TD*%
D20*
%TO.C,J1*%
X96110000Y-106450000D03*
X96110000Y-107100000D03*
X96110000Y-107750000D03*
X96110000Y-108400000D03*
X96110000Y-109050000D03*
D21*
X93275000Y-111020000D03*
X93275000Y-104480000D03*
D22*
X95635000Y-104540000D03*
X95635000Y-110960000D03*
%TD*%
D23*
%TO.C,D10*%
X111387500Y-95825000D03*
X109512500Y-95825000D03*
%TD*%
%TO.C,D9*%
X109487500Y-93700000D03*
X111362500Y-93700000D03*
%TD*%
%TO.C,D8*%
X109462500Y-91575000D03*
X111337500Y-91575000D03*
%TD*%
%TO.C,D7*%
X109412500Y-89375000D03*
X111287500Y-89375000D03*
%TD*%
%TO.C,D6*%
X109412500Y-87175000D03*
X111287500Y-87175000D03*
%TD*%
%TO.C,D5*%
X109387500Y-85000000D03*
X111262500Y-85000000D03*
%TD*%
%TO.C,D4*%
X109387500Y-82825000D03*
X111262500Y-82825000D03*
%TD*%
%TO.C,D3*%
X109387500Y-80650000D03*
X111262500Y-80650000D03*
%TD*%
D24*
%TO.C,D2*%
X104137500Y-116050000D03*
X105712500Y-116050000D03*
%TD*%
%TO.C,D1*%
X104137500Y-99475000D03*
X105712500Y-99475000D03*
%TD*%
D25*
%TO.C,C23*%
X95865000Y-91475000D03*
X96825000Y-91475000D03*
%TD*%
D26*
%TO.C,C22*%
X100405000Y-88150000D03*
X99445000Y-88150000D03*
%TD*%
D27*
%TO.C,C21*%
X107150000Y-112940000D03*
X107150000Y-113900000D03*
%TD*%
%TO.C,C20*%
X107175000Y-108570000D03*
X107175000Y-109530000D03*
%TD*%
D28*
%TO.C,C19*%
X96950000Y-113900000D03*
X96950000Y-112940000D03*
%TD*%
D27*
%TO.C,C18*%
X107175000Y-105795000D03*
X107175000Y-106755000D03*
%TD*%
%TO.C,C17*%
X107175000Y-100970000D03*
X107175000Y-101930000D03*
%TD*%
D28*
%TO.C,C16*%
X96850000Y-102675000D03*
X96850000Y-101715000D03*
%TD*%
D27*
%TO.C,C15*%
X120675000Y-100445000D03*
X120675000Y-101405000D03*
%TD*%
%TO.C,C14*%
X121800000Y-100475000D03*
X121800000Y-101435000D03*
%TD*%
D28*
%TO.C,C13*%
X120650000Y-99405000D03*
X120650000Y-98445000D03*
%TD*%
%TO.C,C12*%
X121800000Y-99405000D03*
X121800000Y-98445000D03*
%TD*%
D25*
%TO.C,C11*%
X116425000Y-88200000D03*
X117385000Y-88200000D03*
%TD*%
D26*
%TO.C,C10*%
X116480000Y-103000000D03*
X115520000Y-103000000D03*
%TD*%
D25*
%TO.C,C9*%
X136045000Y-105375000D03*
X137005000Y-105375000D03*
%TD*%
D28*
%TO.C,C8*%
X140650000Y-91205000D03*
X140650000Y-90245000D03*
%TD*%
D26*
%TO.C,C7*%
X121705000Y-91400000D03*
X120745000Y-91400000D03*
%TD*%
D25*
%TO.C,C6*%
X124945000Y-86525000D03*
X125905000Y-86525000D03*
%TD*%
%TO.C,C5*%
X139490000Y-88975000D03*
X140450000Y-88975000D03*
%TD*%
D27*
%TO.C,C4*%
X138250000Y-104270000D03*
X138250000Y-105230000D03*
%TD*%
D26*
%TO.C,C3*%
X126055000Y-105600000D03*
X125095000Y-105600000D03*
%TD*%
D28*
%TO.C,C2*%
X121650000Y-94630000D03*
X121650000Y-93670000D03*
%TD*%
D26*
%TO.C,C1*%
X121680000Y-92450000D03*
X120720000Y-92450000D03*
%TD*%
M02*
