%TF.GenerationSoftware,KiCad,Pcbnew,(6.0.2)*%
%TF.CreationDate,2022-03-17T20:21:47-04:00*%
%TF.ProjectId,sparkboxBreakout,73706172-6b62-46f7-9842-7265616b6f75,rev?*%
%TF.SameCoordinates,Original*%
%TF.FileFunction,Copper,L4,Bot*%
%TF.FilePolarity,Positive*%
%FSLAX46Y46*%
G04 Gerber Fmt 4.6, Leading zero omitted, Abs format (unit mm)*
G04 Created by KiCad (PCBNEW (6.0.2)) date 2022-03-17 20:21:47*
%MOMM*%
%LPD*%
G01*
G04 APERTURE LIST*
%TA.AperFunction,ComponentPad*%
%ADD10R,1.700000X1.700000*%
%TD*%
%TA.AperFunction,ComponentPad*%
%ADD11O,1.700000X1.700000*%
%TD*%
%TA.AperFunction,ComponentPad*%
%ADD12O,3.200000X1.300000*%
%TD*%
%TA.AperFunction,ViaPad*%
%ADD13C,0.460000*%
%TD*%
%TA.AperFunction,Conductor*%
%ADD14C,0.500000*%
%TD*%
%TA.AperFunction,Conductor*%
%ADD15C,0.250000*%
%TD*%
G04 APERTURE END LIST*
D10*
%TO.P,J4,1,Pin_1*%
%TO.N,FMC_DA0*%
X114100000Y-116850000D03*
D11*
%TO.P,J4,2,Pin_2*%
%TO.N,unconnected-(J4-Pad2)*%
X114100000Y-114310000D03*
%TO.P,J4,3,Pin_3*%
%TO.N,FMC_DA1*%
X116640000Y-116850000D03*
%TO.P,J4,4,Pin_4*%
%TO.N,+3V3*%
X116640000Y-114310000D03*
%TO.P,J4,5,Pin_5*%
%TO.N,FMC_DA2*%
X119180000Y-116850000D03*
%TO.P,J4,6,Pin_6*%
%TO.N,GND*%
X119180000Y-114310000D03*
%TO.P,J4,7,Pin_7*%
%TO.N,FMC_DA3*%
X121720000Y-116850000D03*
%TO.P,J4,8,Pin_8*%
%TO.N,FMC_NBL0*%
X121720000Y-114310000D03*
%TO.P,J4,9,Pin_9*%
%TO.N,FMC_DA4*%
X124260000Y-116850000D03*
%TO.P,J4,10,Pin_10*%
%TO.N,FMC_NBL1*%
X124260000Y-114310000D03*
%TO.P,J4,11,Pin_11*%
%TO.N,FMC_DA5*%
X126800000Y-116850000D03*
%TO.P,J4,12,Pin_12*%
%TO.N,FMC_NL*%
X126800000Y-114310000D03*
%TO.P,J4,13,Pin_13*%
%TO.N,FMC_DA6*%
X129340000Y-116850000D03*
%TO.P,J4,14,Pin_14*%
%TO.N,FMC_NWE*%
X129340000Y-114310000D03*
%TO.P,J4,15,Pin_15*%
%TO.N,FMC_DA7*%
X131880000Y-116850000D03*
%TO.P,J4,16,Pin_16*%
%TO.N,FMC_NOE*%
X131880000Y-114310000D03*
%TO.P,J4,17,Pin_17*%
%TO.N,FMC_DA8*%
X134420000Y-116850000D03*
%TO.P,J4,18,Pin_18*%
%TO.N,FMC_NE2*%
X134420000Y-114310000D03*
%TO.P,J4,19,Pin_19*%
%TO.N,FMC_DA9*%
X136960000Y-116850000D03*
%TO.P,J4,20,Pin_20*%
%TO.N,GND*%
X136960000Y-114310000D03*
%TO.P,J4,21,Pin_21*%
%TO.N,FMC_DA10*%
X139500000Y-116850000D03*
%TO.P,J4,22,Pin_22*%
%TO.N,GND*%
X139500000Y-114310000D03*
%TO.P,J4,23,Pin_23*%
%TO.N,FMC_DA11*%
X142040000Y-116850000D03*
%TO.P,J4,24,Pin_24*%
%TO.N,GND*%
X142040000Y-114310000D03*
%TO.P,J4,25,Pin_25*%
%TO.N,FMC_DA12*%
X144580000Y-116850000D03*
%TO.P,J4,26,Pin_26*%
%TO.N,+3V3*%
X144580000Y-114310000D03*
%TO.P,J4,27,Pin_27*%
%TO.N,FMC_DA13*%
X147120000Y-116850000D03*
%TO.P,J4,28,Pin_28*%
%TO.N,+3V3*%
X147120000Y-114310000D03*
%TO.P,J4,29,Pin_29*%
%TO.N,FMC_DA14*%
X149660000Y-116850000D03*
%TO.P,J4,30,Pin_30*%
%TO.N,FMC_DA15*%
X149660000Y-114310000D03*
%TD*%
D10*
%TO.P,J3,1,Pin_1*%
%TO.N,+3.3VA*%
X120075000Y-81100000D03*
D11*
%TO.P,J3,2,Pin_2*%
%TO.N,DAC_1*%
X122615000Y-81100000D03*
%TO.P,J3,3,Pin_3*%
%TO.N,DAC_2*%
X125155000Y-81100000D03*
%TO.P,J3,4,Pin_4*%
%TO.N,+5V*%
X127695000Y-81100000D03*
%TO.P,J3,5,Pin_5*%
%TO.N,I2C_SDA*%
X130235000Y-81100000D03*
%TO.P,J3,6,Pin_6*%
%TO.N,I2C_SCL*%
X132775000Y-81100000D03*
%TO.P,J3,7,Pin_7*%
%TO.N,SWCLK*%
X135315000Y-81100000D03*
%TO.P,J3,8,Pin_8*%
%TO.N,SWDIO*%
X137855000Y-81100000D03*
%TO.P,J3,9,Pin_9*%
%TO.N,+3V3*%
X140395000Y-81100000D03*
%TO.P,J3,10,Pin_10*%
%TO.N,GND*%
X142935000Y-81100000D03*
%TD*%
D12*
%TO.P,J2,10,SHIELD*%
%TO.N,GND*%
X148775000Y-98825000D03*
X148775000Y-86025000D03*
%TD*%
D13*
%TO.N,FMC_DA4*%
X125900000Y-111650000D03*
%TO.N,DAC_2*%
X126750000Y-93200000D03*
%TO.N,DAC_1*%
X125850000Y-94775000D03*
%TO.N,FMC_NBL1*%
X127375000Y-96100000D03*
X125475000Y-100575000D03*
%TO.N,FMC_NBL0*%
X128025000Y-91550000D03*
X121775000Y-105775000D03*
%TO.N,FMC_DA1*%
X128425000Y-101000000D03*
%TO.N,FMC_DA0*%
X127725000Y-101775000D03*
%TO.N,FMC_DA3*%
X130250000Y-94975000D03*
%TO.N,FMC_DA2*%
X129550000Y-96175000D03*
%TO.N,FMC_NL*%
X131250000Y-99350000D03*
%TO.N,FMC_NWE*%
X132300000Y-90900000D03*
%TO.N,FMC_NOE*%
X132825000Y-90050000D03*
%TO.N,FMC_NE2*%
X141050000Y-97950000D03*
%TO.N,BUTTON_USER*%
X124786362Y-99290939D03*
%TO.N,NRST*%
X125300000Y-96925000D03*
%TO.N,+5V*%
X145400000Y-95700000D03*
%TO.N,LED5*%
X125075000Y-92925000D03*
%TO.N,LED6*%
X124987094Y-93762906D03*
%TO.N,LED7*%
X124925000Y-95250000D03*
%TO.N,LED4*%
X125150000Y-92000000D03*
%TO.N,GND*%
X120650000Y-98450000D03*
%TO.N,BUTTON_USER*%
X111350000Y-100900000D03*
%TO.N,NRST*%
X112225000Y-98775000D03*
%TO.N,LED7*%
X111375000Y-95800000D03*
%TO.N,LED6*%
X111375000Y-93700000D03*
%TO.N,LED5*%
X111300000Y-91575000D03*
%TO.N,LED4*%
X111275000Y-89375000D03*
%TO.N,LED3*%
X111275000Y-87175000D03*
X124925000Y-91000000D03*
%TO.N,GND*%
X107175000Y-101925000D03*
X107175000Y-106750000D03*
X107175000Y-109525000D03*
X96950000Y-112925000D03*
X101750000Y-116050000D03*
X107150000Y-113900000D03*
%TO.N,+3V3*%
X105175000Y-105325000D03*
X105150000Y-102750000D03*
X105150000Y-104025000D03*
X124945000Y-86525000D03*
%TO.N,GND*%
X125905000Y-86525000D03*
X129525000Y-86550000D03*
X142850000Y-92400000D03*
X147625000Y-92425000D03*
X147625000Y-89425000D03*
%TO.N,USB_FS_VBUS*%
X147650000Y-95450000D03*
X143112500Y-95700000D03*
%TO.N,GND*%
X143100000Y-96650000D03*
%TO.N,+3V3*%
X139490000Y-88975000D03*
%TO.N,GND*%
X140650000Y-90245000D03*
%TO.N,+3V3*%
X143775000Y-99075000D03*
X138250000Y-104270000D03*
%TO.N,GND*%
X137005000Y-105375000D03*
%TO.N,+3V3*%
X126055000Y-105600000D03*
%TO.N,GND*%
X125095000Y-105600000D03*
X121800000Y-101435000D03*
X115525000Y-103000000D03*
X117400000Y-88200000D03*
%TO.N,+3V3*%
X121650000Y-94630000D03*
%TO.N,GND*%
X121650000Y-93670000D03*
%TO.N,+3V3*%
X121680000Y-92450000D03*
%TO.N,GND*%
X120720000Y-92450000D03*
X98075000Y-91475000D03*
X99425000Y-88150000D03*
X98075000Y-82525000D03*
%TO.N,+3V3*%
X98025000Y-97125000D03*
%TO.N,GND*%
X106865000Y-81685000D03*
X106915000Y-86060000D03*
X106915000Y-90435000D03*
X107065000Y-94710000D03*
%TO.N,+3.3VA*%
X120675000Y-100445000D03*
X120650000Y-99405000D03*
X105150000Y-110400000D03*
X105175000Y-111600000D03*
%TO.N,GND*%
X98350000Y-101700000D03*
X99400000Y-101700000D03*
X93275000Y-104480000D03*
X93275000Y-111020000D03*
X94350000Y-108825000D03*
X98275000Y-109300000D03*
X99375000Y-109275000D03*
%TO.N,+5V*%
X96850000Y-105625000D03*
X98300000Y-113900000D03*
X99350000Y-113900000D03*
X99350000Y-106325000D03*
X98325000Y-106350000D03*
X94575000Y-107125000D03*
%TD*%
D14*
%TO.N,+3.3VA*%
X120675000Y-103550000D02*
X120675000Y-100445000D01*
X112625000Y-111600000D02*
X120675000Y-103550000D01*
X105175000Y-111600000D02*
X112625000Y-111600000D01*
X120620000Y-99405000D02*
X120650000Y-99405000D01*
D15*
%TO.N,FMC_NBL0*%
X128025000Y-99475000D02*
X128025000Y-91550000D01*
X121775000Y-105775000D02*
X121775000Y-105725000D01*
X121775000Y-105725000D02*
X128025000Y-99475000D01*
%TO.N,FMC_NBL1*%
X125475000Y-100575000D02*
X127375000Y-98675000D01*
X127375000Y-98675000D02*
X127375000Y-96100000D01*
%TO.N,FMC_DA4*%
X125625489Y-115484511D02*
X124260000Y-116850000D01*
X125625489Y-111924511D02*
X125625489Y-115484511D01*
X125900000Y-111650000D02*
X125625489Y-111924511D01*
%TO.N,DAC_1*%
X122615000Y-85540000D02*
X122615000Y-81100000D01*
X125850000Y-88775000D02*
X122615000Y-85540000D01*
X125850000Y-94775000D02*
X125850000Y-88775000D01*
%TO.N,DAC_2*%
X126459511Y-82404511D02*
X125155000Y-81100000D01*
X126459511Y-92909511D02*
X126459511Y-82404511D01*
X126750000Y-93200000D02*
X126459511Y-92909511D01*
%TO.N,FMC_DA0*%
X115325000Y-115625000D02*
X114100000Y-116850000D01*
X115325000Y-113963990D02*
X115325000Y-115625000D01*
X127513990Y-101775000D02*
X115325000Y-113963990D01*
X127725000Y-101775000D02*
X127513990Y-101775000D01*
%TO.N,FMC_DA1*%
X118025000Y-115465000D02*
X116640000Y-116850000D01*
X118025000Y-115100000D02*
X118025000Y-115465000D01*
X118005489Y-115080489D02*
X118025000Y-115100000D01*
X118005489Y-113619511D02*
X118005489Y-115080489D01*
X119303709Y-113135489D02*
X118489511Y-113135489D01*
X128425000Y-101000000D02*
X128425000Y-104014198D01*
X118489511Y-113135489D02*
X118005489Y-113619511D01*
X128425000Y-104014198D02*
X119303709Y-113135489D01*
D14*
%TO.N,+3.3VA*%
X116389025Y-81100000D02*
X120075000Y-81100000D01*
X109550000Y-87939025D02*
X116389025Y-81100000D01*
X107854511Y-99270489D02*
X109550000Y-97575000D01*
X109550000Y-97575000D02*
X109550000Y-87939025D01*
X107854511Y-107695489D02*
X107854511Y-99270489D01*
X105150000Y-110400000D02*
X107854511Y-107695489D01*
%TO.N,+5V*%
X126395000Y-79800000D02*
X127695000Y-81100000D01*
X107850000Y-88025000D02*
X116075000Y-79800000D01*
X116075000Y-79800000D02*
X126395000Y-79800000D01*
X107850000Y-97825000D02*
X107850000Y-88025000D01*
X99350000Y-106325000D02*
X107850000Y-97825000D01*
D15*
%TO.N,FMC_DA3*%
X122975000Y-115595000D02*
X121720000Y-116850000D01*
X122975000Y-112975000D02*
X122975000Y-115595000D01*
X130250000Y-105700000D02*
X122975000Y-112975000D01*
X130250000Y-94975000D02*
X130250000Y-105700000D01*
%TO.N,BUTTON_USER*%
X114354511Y-97895489D02*
X111350000Y-100900000D01*
X123995489Y-97895489D02*
X114354511Y-97895489D01*
X124786362Y-98686362D02*
X123995489Y-97895489D01*
X124786362Y-99290939D02*
X124786362Y-98686362D01*
%TO.N,FMC_NL*%
X126800000Y-112475000D02*
X126800000Y-114310000D01*
X131275000Y-108000000D02*
X126800000Y-112475000D01*
X131250000Y-99350000D02*
X131275000Y-99375000D01*
X131275000Y-99375000D02*
X131275000Y-108000000D01*
%TO.N,FMC_DA2*%
X120354511Y-113995489D02*
X120354511Y-115675489D01*
X129150000Y-96575000D02*
X129150000Y-105200000D01*
X129550000Y-96175000D02*
X129150000Y-96575000D01*
X120354511Y-115675489D02*
X119180000Y-116850000D01*
X129150000Y-105200000D02*
X120354511Y-113995489D01*
%TO.N,FMC_NWE*%
X129340000Y-112410000D02*
X129340000Y-114310000D01*
X133175000Y-91775000D02*
X133175000Y-108575000D01*
X133175000Y-108575000D02*
X129340000Y-112410000D01*
X132300000Y-90900000D02*
X133175000Y-91775000D01*
%TO.N,FMC_NOE*%
X134250000Y-109450000D02*
X134250000Y-91475000D01*
X134250000Y-91475000D02*
X132825000Y-90050000D01*
X131880000Y-111820000D02*
X134250000Y-109450000D01*
X131880000Y-114310000D02*
X131880000Y-111820000D01*
%TO.N,FMC_NE2*%
X141050000Y-107680000D02*
X134420000Y-114310000D01*
X141050000Y-97950000D02*
X141050000Y-107680000D01*
%TO.N,NRST*%
X113625000Y-97375000D02*
X112225000Y-98775000D01*
X124850000Y-97375000D02*
X113625000Y-97375000D01*
X125300000Y-96925000D02*
X124850000Y-97375000D01*
D14*
%TO.N,+5V*%
X128994511Y-79800489D02*
X127695000Y-81100000D01*
X143473276Y-79800489D02*
X128994511Y-79800489D01*
X145400000Y-81727213D02*
X143473276Y-79800489D01*
X145400000Y-95700000D02*
X145400000Y-81727213D01*
D15*
%TO.N,USB_FS_VBUS*%
X146700000Y-96400000D02*
X147650000Y-95450000D01*
X143812500Y-96400000D02*
X146700000Y-96400000D01*
X143112500Y-95700000D02*
X143812500Y-96400000D01*
%TO.N,LED6*%
X112859511Y-95184511D02*
X111375000Y-93700000D01*
X123965489Y-95184511D02*
X112859511Y-95184511D01*
X124987094Y-93762906D02*
X124987094Y-94162906D01*
X124987094Y-94162906D02*
X123965489Y-95184511D01*
%TO.N,LED7*%
X124925000Y-95250000D02*
X124375000Y-95800000D01*
X124375000Y-95800000D02*
X111375000Y-95800000D01*
%TO.N,LED5*%
X112729511Y-93004511D02*
X111300000Y-91575000D01*
X124995489Y-93004511D02*
X112729511Y-93004511D01*
X125075000Y-92925000D02*
X124995489Y-93004511D01*
%TO.N,LED4*%
X113454511Y-91554511D02*
X111275000Y-89375000D01*
X124704511Y-91554511D02*
X113454511Y-91554511D01*
X125150000Y-92000000D02*
X124704511Y-91554511D01*
%TO.N,LED3*%
X122475000Y-87175000D02*
X111275000Y-87175000D01*
X124925000Y-89625000D02*
X122475000Y-87175000D01*
X124925000Y-91000000D02*
X124925000Y-89625000D01*
%TD*%
%TA.AperFunction,Conductor*%
%TO.N,+5V*%
G36*
X94701966Y-105245002D02*
G01*
X94748459Y-105298658D01*
X94758563Y-105368932D01*
X94742799Y-105414285D01*
X94724674Y-105445490D01*
X94722553Y-105452494D01*
X94722551Y-105452498D01*
X94682879Y-105583488D01*
X94673405Y-105614767D01*
X94662453Y-105791298D01*
X94692406Y-105965614D01*
X94761657Y-106128364D01*
X94765990Y-106134252D01*
X94765993Y-106134257D01*
X94815201Y-106201122D01*
X94866492Y-106270818D01*
X94872070Y-106275557D01*
X94872073Y-106275560D01*
X94995706Y-106380594D01*
X94995710Y-106380597D01*
X95001285Y-106385333D01*
X95082820Y-106426967D01*
X95152292Y-106462442D01*
X95152294Y-106462443D01*
X95158808Y-106465769D01*
X95165913Y-106467508D01*
X95165917Y-106467509D01*
X95248238Y-106487652D01*
X95330610Y-106507808D01*
X95336212Y-106508156D01*
X95336215Y-106508156D01*
X95339825Y-106508380D01*
X95339835Y-106508380D01*
X95341764Y-106508500D01*
X95469293Y-106508500D01*
X95539036Y-106500369D01*
X95593411Y-106494030D01*
X95593415Y-106494029D01*
X95600681Y-106493182D01*
X95607556Y-106490687D01*
X95607558Y-106490686D01*
X95760061Y-106435329D01*
X95760062Y-106435329D01*
X95766937Y-106432833D01*
X95773054Y-106428822D01*
X95773057Y-106428821D01*
X95908733Y-106339868D01*
X95908734Y-106339867D01*
X95914852Y-106335856D01*
X96036490Y-106207453D01*
X96125326Y-106054510D01*
X96154436Y-105958398D01*
X96174473Y-105892239D01*
X96176595Y-105885233D01*
X96187547Y-105708702D01*
X96157594Y-105534386D01*
X96119768Y-105445490D01*
X96100554Y-105400333D01*
X96092288Y-105329819D01*
X96123456Y-105266030D01*
X96184164Y-105229219D01*
X96216495Y-105225000D01*
X100048674Y-105225000D01*
X100116795Y-105245002D01*
X100163288Y-105298658D01*
X100174674Y-105351325D01*
X100165997Y-108718044D01*
X100145819Y-108786113D01*
X100092044Y-108832467D01*
X100021744Y-108842390D01*
X99957239Y-108812730D01*
X99950591Y-108806503D01*
X99845638Y-108700814D01*
X99845634Y-108700811D01*
X99840675Y-108695817D01*
X99830520Y-108689372D01*
X99768871Y-108650249D01*
X99700786Y-108607041D01*
X99604150Y-108572630D01*
X99551338Y-108553824D01*
X99551336Y-108553823D01*
X99544704Y-108551462D01*
X99537718Y-108550629D01*
X99537714Y-108550628D01*
X99421501Y-108536771D01*
X99380188Y-108531845D01*
X99373186Y-108532581D01*
X99373184Y-108532581D01*
X99222415Y-108548428D01*
X99222413Y-108548428D01*
X99215415Y-108549164D01*
X99058572Y-108602557D01*
X99014491Y-108629676D01*
X98975446Y-108653697D01*
X98917457Y-108689372D01*
X98912428Y-108694297D01*
X98912420Y-108694303D01*
X98899482Y-108706974D01*
X98836818Y-108740346D01*
X98766059Y-108734541D01*
X98741088Y-108720166D01*
X98740675Y-108720817D01*
X98600786Y-108632041D01*
X98504150Y-108597630D01*
X98451338Y-108578824D01*
X98451336Y-108578823D01*
X98444704Y-108576462D01*
X98437718Y-108575629D01*
X98437714Y-108575628D01*
X98321501Y-108561771D01*
X98280188Y-108556845D01*
X98273186Y-108557581D01*
X98273184Y-108557581D01*
X98122415Y-108573428D01*
X98122413Y-108573428D01*
X98115415Y-108574164D01*
X97958572Y-108627557D01*
X97945141Y-108635820D01*
X97823459Y-108710679D01*
X97823456Y-108710681D01*
X97817457Y-108714372D01*
X97699082Y-108830293D01*
X97695263Y-108836218D01*
X97695262Y-108836220D01*
X97655636Y-108897708D01*
X97609331Y-108969559D01*
X97606920Y-108976182D01*
X97606919Y-108976185D01*
X97555075Y-109118626D01*
X97555074Y-109118631D01*
X97552665Y-109125249D01*
X97531899Y-109289624D01*
X97548067Y-109454514D01*
X97550291Y-109461199D01*
X97550291Y-109461200D01*
X97559321Y-109488346D01*
X97600364Y-109611725D01*
X97686192Y-109753443D01*
X97801284Y-109872625D01*
X97807176Y-109876480D01*
X97807180Y-109876484D01*
X97934024Y-109959488D01*
X97939920Y-109963346D01*
X97946524Y-109965802D01*
X97946526Y-109965803D01*
X98017565Y-109992222D01*
X98095210Y-110021098D01*
X98259436Y-110043010D01*
X98266447Y-110042372D01*
X98266451Y-110042372D01*
X98417415Y-110028633D01*
X98424436Y-110027994D01*
X98431138Y-110025816D01*
X98431140Y-110025816D01*
X98575309Y-109978973D01*
X98575312Y-109978972D01*
X98582008Y-109976796D01*
X98652980Y-109934488D01*
X98718267Y-109895570D01*
X98718270Y-109895568D01*
X98724322Y-109891960D01*
X98751673Y-109865914D01*
X98814796Y-109833423D01*
X98885467Y-109840216D01*
X98907554Y-109851728D01*
X99039920Y-109938346D01*
X99046524Y-109940802D01*
X99046526Y-109940803D01*
X99093838Y-109958398D01*
X99195210Y-109996098D01*
X99359436Y-110018010D01*
X99366447Y-110017372D01*
X99366451Y-110017372D01*
X99517415Y-110003633D01*
X99524436Y-110002994D01*
X99531138Y-110000816D01*
X99531140Y-110000816D01*
X99675309Y-109953973D01*
X99675312Y-109953972D01*
X99682008Y-109951796D01*
X99782384Y-109891960D01*
X99818267Y-109870570D01*
X99818270Y-109870568D01*
X99824322Y-109866960D01*
X99944304Y-109752702D01*
X99944730Y-109753150D01*
X99999706Y-109716577D01*
X100070694Y-109715453D01*
X100131020Y-109752887D01*
X100161531Y-109816993D01*
X100163113Y-109837219D01*
X100153294Y-113647030D01*
X100150324Y-114799325D01*
X100130146Y-114867394D01*
X100076371Y-114913748D01*
X100024324Y-114925000D01*
X94076000Y-114925000D01*
X94007879Y-114904998D01*
X93961386Y-114851342D01*
X93950000Y-114799000D01*
X93950000Y-112914624D01*
X96206899Y-112914624D01*
X96223067Y-113079514D01*
X96275364Y-113236725D01*
X96361192Y-113378443D01*
X96476284Y-113497625D01*
X96482176Y-113501480D01*
X96482180Y-113501484D01*
X96609024Y-113584488D01*
X96614920Y-113588346D01*
X96621524Y-113590802D01*
X96621526Y-113590803D01*
X96692565Y-113617222D01*
X96770210Y-113646098D01*
X96934436Y-113668010D01*
X96941447Y-113667372D01*
X96941451Y-113667372D01*
X97092415Y-113653633D01*
X97099436Y-113652994D01*
X97106138Y-113650816D01*
X97106140Y-113650816D01*
X97250309Y-113603973D01*
X97250312Y-113603972D01*
X97257008Y-113601796D01*
X97326881Y-113560143D01*
X97393267Y-113520570D01*
X97393270Y-113520568D01*
X97399322Y-113516960D01*
X97464118Y-113455255D01*
X97514200Y-113407563D01*
X97514202Y-113407561D01*
X97519304Y-113402702D01*
X97610990Y-113264703D01*
X97669825Y-113109820D01*
X97692883Y-112945751D01*
X97693173Y-112925000D01*
X97674705Y-112760351D01*
X97620218Y-112603886D01*
X97532420Y-112463380D01*
X97415675Y-112345817D01*
X97405520Y-112339372D01*
X97361447Y-112311403D01*
X97275786Y-112257041D01*
X97179150Y-112222630D01*
X97126338Y-112203824D01*
X97126336Y-112203823D01*
X97119704Y-112201462D01*
X97112718Y-112200629D01*
X97112714Y-112200628D01*
X96996501Y-112186771D01*
X96955188Y-112181845D01*
X96948186Y-112182581D01*
X96948184Y-112182581D01*
X96797415Y-112198428D01*
X96797413Y-112198428D01*
X96790415Y-112199164D01*
X96633572Y-112252557D01*
X96620141Y-112260820D01*
X96498459Y-112335679D01*
X96498456Y-112335681D01*
X96492457Y-112339372D01*
X96374082Y-112455293D01*
X96284331Y-112594559D01*
X96281920Y-112601182D01*
X96281919Y-112601185D01*
X96230075Y-112743626D01*
X96230074Y-112743631D01*
X96227665Y-112750249D01*
X96206899Y-112914624D01*
X93950000Y-112914624D01*
X93950000Y-111345948D01*
X93958212Y-111301204D01*
X93992325Y-111211402D01*
X93992326Y-111211400D01*
X93994825Y-111204820D01*
X94017883Y-111040751D01*
X94018173Y-111020000D01*
X93999705Y-110855351D01*
X93957009Y-110732745D01*
X93950000Y-110691308D01*
X93950000Y-109645492D01*
X93970002Y-109577371D01*
X94023658Y-109530878D01*
X94093932Y-109520774D01*
X94119916Y-109527394D01*
X94170210Y-109546098D01*
X94334436Y-109568010D01*
X94341447Y-109567372D01*
X94341451Y-109567372D01*
X94492415Y-109553633D01*
X94499436Y-109552994D01*
X94506140Y-109550816D01*
X94513037Y-109549400D01*
X94513371Y-109551027D01*
X94575695Y-109549244D01*
X94636494Y-109585904D01*
X94667822Y-109649615D01*
X94669426Y-109678905D01*
X94662453Y-109791298D01*
X94663693Y-109798514D01*
X94663693Y-109798516D01*
X94687720Y-109938346D01*
X94692406Y-109965614D01*
X94761657Y-110128364D01*
X94765990Y-110134252D01*
X94765993Y-110134257D01*
X94815201Y-110201122D01*
X94866492Y-110270818D01*
X94872070Y-110275557D01*
X94872073Y-110275560D01*
X94995706Y-110380594D01*
X94995710Y-110380597D01*
X95001285Y-110385333D01*
X95082820Y-110426967D01*
X95152292Y-110462442D01*
X95152294Y-110462443D01*
X95158808Y-110465769D01*
X95165913Y-110467508D01*
X95165917Y-110467509D01*
X95248238Y-110487652D01*
X95330610Y-110507808D01*
X95336212Y-110508156D01*
X95336215Y-110508156D01*
X95339825Y-110508380D01*
X95339835Y-110508380D01*
X95341764Y-110508500D01*
X95469293Y-110508500D01*
X95539036Y-110500369D01*
X95593411Y-110494030D01*
X95593415Y-110494029D01*
X95600681Y-110493182D01*
X95607556Y-110490687D01*
X95607558Y-110490686D01*
X95760061Y-110435329D01*
X95760062Y-110435329D01*
X95766937Y-110432833D01*
X95773054Y-110428822D01*
X95773057Y-110428821D01*
X95908733Y-110339868D01*
X95908734Y-110339867D01*
X95914852Y-110335856D01*
X96036490Y-110207453D01*
X96125326Y-110054510D01*
X96129003Y-110042372D01*
X96174473Y-109892239D01*
X96176595Y-109885233D01*
X96187547Y-109708702D01*
X96182428Y-109678908D01*
X96158834Y-109541602D01*
X96158834Y-109541601D01*
X96157594Y-109534386D01*
X96088343Y-109371636D01*
X96084010Y-109365748D01*
X96084007Y-109365743D01*
X95987846Y-109235077D01*
X95983508Y-109229182D01*
X95977930Y-109224443D01*
X95977927Y-109224440D01*
X95854294Y-109119406D01*
X95854290Y-109119403D01*
X95848715Y-109114667D01*
X95755693Y-109067167D01*
X95697708Y-109037558D01*
X95697706Y-109037557D01*
X95691192Y-109034231D01*
X95684087Y-109032492D01*
X95684083Y-109032491D01*
X95591431Y-109009820D01*
X95519390Y-108992192D01*
X95513788Y-108991844D01*
X95513785Y-108991844D01*
X95510175Y-108991620D01*
X95510165Y-108991620D01*
X95508236Y-108991500D01*
X95380707Y-108991500D01*
X95310964Y-108999631D01*
X95256589Y-109005970D01*
X95256585Y-109005971D01*
X95249319Y-109006818D01*
X95243096Y-109009077D01*
X95172487Y-109005296D01*
X95114899Y-108963774D01*
X95088901Y-108897708D01*
X95089625Y-108868937D01*
X95092331Y-108849680D01*
X95092331Y-108849677D01*
X95092883Y-108845751D01*
X95093173Y-108825000D01*
X95074705Y-108660351D01*
X95066163Y-108635820D01*
X95036495Y-108550628D01*
X95020218Y-108503886D01*
X94932420Y-108363380D01*
X94815675Y-108245817D01*
X94805520Y-108239372D01*
X94761447Y-108211403D01*
X94675786Y-108157041D01*
X94579150Y-108122630D01*
X94526338Y-108103824D01*
X94526336Y-108103823D01*
X94519704Y-108101462D01*
X94512718Y-108100629D01*
X94512714Y-108100628D01*
X94396501Y-108086771D01*
X94355188Y-108081845D01*
X94348186Y-108082581D01*
X94348184Y-108082581D01*
X94197415Y-108098428D01*
X94197413Y-108098428D01*
X94190415Y-108099164D01*
X94116604Y-108124291D01*
X94045673Y-108127309D01*
X93984369Y-108091499D01*
X93952158Y-108028230D01*
X93950000Y-108005013D01*
X93950000Y-105351000D01*
X93970002Y-105282879D01*
X94023658Y-105236386D01*
X94076000Y-105225000D01*
X94633845Y-105225000D01*
X94701966Y-105245002D01*
G37*
%TD.AperFunction*%
%TD*%
M02*
