%TF.GenerationSoftware,KiCad,Pcbnew,(6.0.2)*%
%TF.CreationDate,2022-03-17T20:21:47-04:00*%
%TF.ProjectId,sparkboxBreakout,73706172-6b62-46f7-9842-7265616b6f75,rev?*%
%TF.SameCoordinates,Original*%
%TF.FileFunction,Copper,L1,Top*%
%TF.FilePolarity,Positive*%
%FSLAX46Y46*%
G04 Gerber Fmt 4.6, Leading zero omitted, Abs format (unit mm)*
G04 Created by KiCad (PCBNEW (6.0.2)) date 2022-03-17 20:21:47*
%MOMM*%
%LPD*%
G01*
G04 APERTURE LIST*
G04 Aperture macros list*
%AMRoundRect*
0 Rectangle with rounded corners*
0 $1 Rounding radius*
0 $2 $3 $4 $5 $6 $7 $8 $9 X,Y pos of 4 corners*
0 Add a 4 corners polygon primitive as box body*
4,1,4,$2,$3,$4,$5,$6,$7,$8,$9,$2,$3,0*
0 Add four circle primitives for the rounded corners*
1,1,$1+$1,$2,$3*
1,1,$1+$1,$4,$5*
1,1,$1+$1,$6,$7*
1,1,$1+$1,$8,$9*
0 Add four rect primitives between the rounded corners*
20,1,$1+$1,$2,$3,$4,$5,0*
20,1,$1+$1,$4,$5,$6,$7,0*
20,1,$1+$1,$6,$7,$8,$9,0*
20,1,$1+$1,$8,$9,$2,$3,0*%
G04 Aperture macros list end*
%TA.AperFunction,SMDPad,CuDef*%
%ADD10R,2.000000X4.500000*%
%TD*%
%TA.AperFunction,SMDPad,CuDef*%
%ADD11R,2.000000X1.500000*%
%TD*%
%TA.AperFunction,SMDPad,CuDef*%
%ADD12R,2.000000X3.800000*%
%TD*%
%TA.AperFunction,SMDPad,CuDef*%
%ADD13RoundRect,0.150000X-0.512500X-0.150000X0.512500X-0.150000X0.512500X0.150000X-0.512500X0.150000X0*%
%TD*%
%TA.AperFunction,SMDPad,CuDef*%
%ADD14RoundRect,0.075000X-0.725000X-0.075000X0.725000X-0.075000X0.725000X0.075000X-0.725000X0.075000X0*%
%TD*%
%TA.AperFunction,SMDPad,CuDef*%
%ADD15RoundRect,0.075000X-0.075000X-0.725000X0.075000X-0.725000X0.075000X0.725000X-0.075000X0.725000X0*%
%TD*%
%TA.AperFunction,SMDPad,CuDef*%
%ADD16RoundRect,0.245000X0.855000X-0.245000X0.855000X0.245000X-0.855000X0.245000X-0.855000X-0.245000X0*%
%TD*%
%TA.AperFunction,SMDPad,CuDef*%
%ADD17RoundRect,0.135000X0.135000X0.185000X-0.135000X0.185000X-0.135000X-0.185000X0.135000X-0.185000X0*%
%TD*%
%TA.AperFunction,SMDPad,CuDef*%
%ADD18RoundRect,0.135000X-0.135000X-0.185000X0.135000X-0.185000X0.135000X0.185000X-0.135000X0.185000X0*%
%TD*%
%TA.AperFunction,ComponentPad*%
%ADD19R,1.700000X1.700000*%
%TD*%
%TA.AperFunction,ComponentPad*%
%ADD20O,1.700000X1.700000*%
%TD*%
%TA.AperFunction,SMDPad,CuDef*%
%ADD21R,1.600000X0.700000*%
%TD*%
%TA.AperFunction,ComponentPad*%
%ADD22O,3.200000X1.300000*%
%TD*%
%TA.AperFunction,SMDPad,CuDef*%
%ADD23RoundRect,0.100000X-0.825000X0.100000X-0.825000X-0.100000X0.825000X-0.100000X0.825000X0.100000X0*%
%TD*%
%TA.AperFunction,SMDPad,CuDef*%
%ADD24RoundRect,0.325000X-0.325000X0.520000X-0.325000X-0.520000X0.325000X-0.520000X0.325000X0.520000X0*%
%TD*%
%TA.AperFunction,SMDPad,CuDef*%
%ADD25RoundRect,0.225000X-0.225000X0.587500X-0.225000X-0.587500X0.225000X-0.587500X0.225000X0.587500X0*%
%TD*%
%TA.AperFunction,SMDPad,CuDef*%
%ADD26RoundRect,0.243750X-0.243750X-0.456250X0.243750X-0.456250X0.243750X0.456250X-0.243750X0.456250X0*%
%TD*%
%TA.AperFunction,SMDPad,CuDef*%
%ADD27RoundRect,0.218750X-0.218750X-0.256250X0.218750X-0.256250X0.218750X0.256250X-0.218750X0.256250X0*%
%TD*%
%TA.AperFunction,SMDPad,CuDef*%
%ADD28RoundRect,0.140000X-0.140000X-0.170000X0.140000X-0.170000X0.140000X0.170000X-0.140000X0.170000X0*%
%TD*%
%TA.AperFunction,SMDPad,CuDef*%
%ADD29RoundRect,0.140000X0.140000X0.170000X-0.140000X0.170000X-0.140000X-0.170000X0.140000X-0.170000X0*%
%TD*%
%TA.AperFunction,SMDPad,CuDef*%
%ADD30RoundRect,0.140000X-0.170000X0.140000X-0.170000X-0.140000X0.170000X-0.140000X0.170000X0.140000X0*%
%TD*%
%TA.AperFunction,SMDPad,CuDef*%
%ADD31RoundRect,0.140000X0.170000X-0.140000X0.170000X0.140000X-0.170000X0.140000X-0.170000X-0.140000X0*%
%TD*%
%TA.AperFunction,ViaPad*%
%ADD32C,0.460000*%
%TD*%
%TA.AperFunction,Conductor*%
%ADD33C,0.250000*%
%TD*%
%TA.AperFunction,Conductor*%
%ADD34C,0.200000*%
%TD*%
G04 APERTURE END LIST*
D10*
%TO.P,Y1,1,1*%
%TO.N,OSC_OUT*%
X116425000Y-99825000D03*
%TO.P,Y1,2,2*%
%TO.N,OSC_IN*%
X116425000Y-91325000D03*
%TD*%
D11*
%TO.P,U5,1,GND*%
%TO.N,GND*%
X98875000Y-109300000D03*
D12*
%TO.P,U5,2,VO*%
%TO.N,+3.3VA*%
X105175000Y-111600000D03*
D11*
X98875000Y-111600000D03*
%TO.P,U5,3,VI*%
%TO.N,+5V*%
X98875000Y-113900000D03*
%TD*%
D13*
%TO.P,U4,1,I/O1*%
%TO.N,USB_FS_P*%
X142837500Y-91450000D03*
%TO.P,U4,2,GND*%
%TO.N,GND*%
X142837500Y-92400000D03*
%TO.P,U4,3,I/O2*%
%TO.N,USB_FS_N*%
X142837500Y-93350000D03*
%TO.P,U4,4,I/O2*%
%TO.N,Net-(J2-Pad2)*%
X145112500Y-93350000D03*
%TO.P,U4,5,VBUS*%
%TO.N,unconnected-(U4-Pad5)*%
X145112500Y-92400000D03*
%TO.P,U4,6,I/O1*%
%TO.N,Net-(J2-Pad3)*%
X145112500Y-91450000D03*
%TD*%
%TO.P,U3,1,OUT*%
%TO.N,USB_FS_VBUS*%
X143112500Y-95700000D03*
%TO.P,U3,2,GND*%
%TO.N,GND*%
X143112500Y-96650000D03*
%TO.P,U3,3,~{FAULT}*%
%TO.N,USB_FS_OVCR*%
X143112500Y-97600000D03*
%TO.P,U3,4,~{EN}*%
%TO.N,USB_FS_PWR_EN*%
X145387500Y-97600000D03*
%TO.P,U3,5,IN*%
%TO.N,+5V*%
X145387500Y-95700000D03*
%TD*%
D11*
%TO.P,U2,1,GND*%
%TO.N,GND*%
X98850000Y-101725000D03*
D12*
%TO.P,U2,2,VO*%
%TO.N,+3V3*%
X105150000Y-104025000D03*
D11*
X98850000Y-104025000D03*
%TO.P,U2,3,VI*%
%TO.N,+5V*%
X98850000Y-106325000D03*
%TD*%
D14*
%TO.P,U1,1,PE2*%
%TO.N,LED0*%
X123575000Y-90000000D03*
%TO.P,U1,2,PE3*%
%TO.N,LED1*%
X123575000Y-90500000D03*
%TO.P,U1,3,PE4*%
%TO.N,LED2*%
X123575000Y-91000000D03*
%TO.P,U1,4,PE5*%
%TO.N,LED3*%
X123575000Y-91500000D03*
%TO.P,U1,5,PE6*%
%TO.N,LED4*%
X123575000Y-92000000D03*
%TO.P,U1,6,VBAT*%
%TO.N,+3V3*%
X123575000Y-92500000D03*
%TO.P,U1,7,PC13*%
%TO.N,LED5*%
X123575000Y-93000000D03*
%TO.P,U1,8,PC14*%
%TO.N,LED6*%
X123575000Y-93500000D03*
%TO.P,U1,9,PC15*%
%TO.N,LED7*%
X123575000Y-94000000D03*
%TO.P,U1,10,VSS*%
%TO.N,GND*%
X123575000Y-94500000D03*
%TO.P,U1,11,VDD*%
%TO.N,+3V3*%
X123575000Y-95000000D03*
%TO.P,U1,12,PH0*%
%TO.N,OSC_IN*%
X123575000Y-95500000D03*
%TO.P,U1,13,PH1*%
%TO.N,OSC_OUT*%
X123575000Y-96000000D03*
%TO.P,U1,14,NRST*%
%TO.N,NRST*%
X123575000Y-96500000D03*
%TO.P,U1,15,PC0*%
%TO.N,unconnected-(U1-Pad15)*%
X123575000Y-97000000D03*
%TO.P,U1,16,PC1*%
%TO.N,unconnected-(U1-Pad16)*%
X123575000Y-97500000D03*
%TO.P,U1,17,PC2_C*%
%TO.N,unconnected-(U1-Pad17)*%
X123575000Y-98000000D03*
%TO.P,U1,18,PC3_C*%
%TO.N,unconnected-(U1-Pad18)*%
X123575000Y-98500000D03*
%TO.P,U1,19,VSSA*%
%TO.N,GND*%
X123575000Y-99000000D03*
%TO.P,U1,20,VREF+*%
%TO.N,+3.3VA*%
X123575000Y-99500000D03*
%TO.P,U1,21,VDDA*%
X123575000Y-100000000D03*
%TO.P,U1,22,PA0*%
%TO.N,BUTTON_USER*%
X123575000Y-100500000D03*
%TO.P,U1,23,PA1*%
%TO.N,unconnected-(U1-Pad23)*%
X123575000Y-101000000D03*
%TO.P,U1,24,PA2*%
%TO.N,unconnected-(U1-Pad24)*%
X123575000Y-101500000D03*
%TO.P,U1,25,PA3*%
%TO.N,unconnected-(U1-Pad25)*%
X123575000Y-102000000D03*
D15*
%TO.P,U1,26,VSS*%
%TO.N,GND*%
X125250000Y-103675000D03*
%TO.P,U1,27,VDD*%
%TO.N,+3V3*%
X125750000Y-103675000D03*
%TO.P,U1,28,PA4*%
%TO.N,DAC_1*%
X126250000Y-103675000D03*
%TO.P,U1,29,PA5*%
%TO.N,DAC_2*%
X126750000Y-103675000D03*
%TO.P,U1,30,PA6*%
%TO.N,unconnected-(U1-Pad30)*%
X127250000Y-103675000D03*
%TO.P,U1,31,PA7*%
%TO.N,unconnected-(U1-Pad31)*%
X127750000Y-103675000D03*
%TO.P,U1,32,PC4*%
%TO.N,unconnected-(U1-Pad32)*%
X128250000Y-103675000D03*
%TO.P,U1,33,PC5*%
%TO.N,unconnected-(U1-Pad33)*%
X128750000Y-103675000D03*
%TO.P,U1,34,PB0*%
%TO.N,unconnected-(U1-Pad34)*%
X129250000Y-103675000D03*
%TO.P,U1,35,PB1*%
%TO.N,unconnected-(U1-Pad35)*%
X129750000Y-103675000D03*
%TO.P,U1,36,PB2*%
%TO.N,unconnected-(U1-Pad36)*%
X130250000Y-103675000D03*
%TO.P,U1,37,PE7*%
%TO.N,FMC_DA4*%
X130750000Y-103675000D03*
%TO.P,U1,38,PE8*%
%TO.N,FMC_DA5*%
X131250000Y-103675000D03*
%TO.P,U1,39,PE9*%
%TO.N,FMC_DA6*%
X131750000Y-103675000D03*
%TO.P,U1,40,PE10*%
%TO.N,FMC_DA7*%
X132250000Y-103675000D03*
%TO.P,U1,41,PE11*%
%TO.N,FMC_DA8*%
X132750000Y-103675000D03*
%TO.P,U1,42,PE12*%
%TO.N,FMC_DA9*%
X133250000Y-103675000D03*
%TO.P,U1,43,PE13*%
%TO.N,FMC_DA10*%
X133750000Y-103675000D03*
%TO.P,U1,44,PE14*%
%TO.N,FMC_DA11*%
X134250000Y-103675000D03*
%TO.P,U1,45,PE15*%
%TO.N,FMC_DA12*%
X134750000Y-103675000D03*
%TO.P,U1,46,PB10*%
%TO.N,unconnected-(U1-Pad46)*%
X135250000Y-103675000D03*
%TO.P,U1,47,PB11*%
%TO.N,unconnected-(U1-Pad47)*%
X135750000Y-103675000D03*
%TO.P,U1,48,VCAP1*%
%TO.N,VCAP1*%
X136250000Y-103675000D03*
%TO.P,U1,49,VSS*%
%TO.N,GND*%
X136750000Y-103675000D03*
%TO.P,U1,50,VDD*%
%TO.N,+3V3*%
X137250000Y-103675000D03*
D14*
%TO.P,U1,51,PB12*%
%TO.N,unconnected-(U1-Pad51)*%
X138925000Y-102000000D03*
%TO.P,U1,52,PB13*%
%TO.N,unconnected-(U1-Pad52)*%
X138925000Y-101500000D03*
%TO.P,U1,53,PB14*%
%TO.N,unconnected-(U1-Pad53)*%
X138925000Y-101000000D03*
%TO.P,U1,54,PB15*%
%TO.N,unconnected-(U1-Pad54)*%
X138925000Y-100500000D03*
%TO.P,U1,55,PD8*%
%TO.N,FMC_DA13*%
X138925000Y-100000000D03*
%TO.P,U1,56,PD9*%
%TO.N,FMC_DA14*%
X138925000Y-99500000D03*
%TO.P,U1,57,PD10*%
%TO.N,FMC_DA15*%
X138925000Y-99000000D03*
%TO.P,U1,58,PD11*%
%TO.N,FMC_A16*%
X138925000Y-98500000D03*
%TO.P,U1,59,PD12*%
%TO.N,FMC_A17*%
X138925000Y-98000000D03*
%TO.P,U1,60,PD13*%
%TO.N,FMC_A18*%
X138925000Y-97500000D03*
%TO.P,U1,61,PD14*%
%TO.N,FMC_DA0*%
X138925000Y-97000000D03*
%TO.P,U1,62,PD15*%
%TO.N,FMC_DA1*%
X138925000Y-96500000D03*
%TO.P,U1,63,PC6*%
%TO.N,unconnected-(U1-Pad63)*%
X138925000Y-96000000D03*
%TO.P,U1,64,PC7*%
%TO.N,FMC_NE1*%
X138925000Y-95500000D03*
%TO.P,U1,65,PC8*%
%TO.N,FMC_NE2*%
X138925000Y-95000000D03*
%TO.P,U1,66,PC9*%
%TO.N,unconnected-(U1-Pad66)*%
X138925000Y-94500000D03*
%TO.P,U1,67,PA8*%
%TO.N,USB_FS_OVCR*%
X138925000Y-94000000D03*
%TO.P,U1,68,PA9*%
%TO.N,USB_FS_VBUS*%
X138925000Y-93500000D03*
%TO.P,U1,69,PA10*%
%TO.N,USB_FS_PWR_EN*%
X138925000Y-93000000D03*
%TO.P,U1,70,PA11*%
%TO.N,USB_FS_N*%
X138925000Y-92500000D03*
%TO.P,U1,71,PA12*%
%TO.N,USB_FS_P*%
X138925000Y-92000000D03*
%TO.P,U1,72,PA13*%
%TO.N,SWDIO*%
X138925000Y-91500000D03*
%TO.P,U1,73,VCAP2*%
%TO.N,VCAP2*%
X138925000Y-91000000D03*
%TO.P,U1,74,VSS*%
%TO.N,GND*%
X138925000Y-90500000D03*
%TO.P,U1,75,VDD*%
%TO.N,+3V3*%
X138925000Y-90000000D03*
D15*
%TO.P,U1,76,PA14*%
%TO.N,SWCLK*%
X137250000Y-88325000D03*
%TO.P,U1,77,PA15*%
%TO.N,unconnected-(U1-Pad77)*%
X136750000Y-88325000D03*
%TO.P,U1,78,PC10*%
%TO.N,unconnected-(U1-Pad78)*%
X136250000Y-88325000D03*
%TO.P,U1,79,PC11*%
%TO.N,unconnected-(U1-Pad79)*%
X135750000Y-88325000D03*
%TO.P,U1,80,PC12*%
%TO.N,unconnected-(U1-Pad80)*%
X135250000Y-88325000D03*
%TO.P,U1,81,PD0*%
%TO.N,FMC_DA2*%
X134750000Y-88325000D03*
%TO.P,U1,82,PD1*%
%TO.N,FMC_DA3*%
X134250000Y-88325000D03*
%TO.P,U1,83,PD2*%
%TO.N,unconnected-(U1-Pad83)*%
X133750000Y-88325000D03*
%TO.P,U1,84,PD3*%
%TO.N,unconnected-(U1-Pad84)*%
X133250000Y-88325000D03*
%TO.P,U1,85,PD4*%
%TO.N,FMC_NOE*%
X132750000Y-88325000D03*
%TO.P,U1,86,PD5*%
%TO.N,FMC_NWE*%
X132250000Y-88325000D03*
%TO.P,U1,87,PD6*%
%TO.N,unconnected-(U1-Pad87)*%
X131750000Y-88325000D03*
%TO.P,U1,88,PD7*%
%TO.N,unconnected-(U1-Pad88)*%
X131250000Y-88325000D03*
%TO.P,U1,89,PB3*%
%TO.N,unconnected-(U1-Pad89)*%
X130750000Y-88325000D03*
%TO.P,U1,90,PB4*%
%TO.N,unconnected-(U1-Pad90)*%
X130250000Y-88325000D03*
%TO.P,U1,91,PB5*%
%TO.N,unconnected-(U1-Pad91)*%
X129750000Y-88325000D03*
%TO.P,U1,92,PB6*%
%TO.N,unconnected-(U1-Pad92)*%
X129250000Y-88325000D03*
%TO.P,U1,93,PB7*%
%TO.N,FMC_NL*%
X128750000Y-88325000D03*
%TO.P,U1,94,BOOT0*%
%TO.N,Net-(R11-Pad1)*%
X128250000Y-88325000D03*
%TO.P,U1,95,PB8*%
%TO.N,I2C_SCL*%
X127750000Y-88325000D03*
%TO.P,U1,96,PB9*%
%TO.N,I2C_SDA*%
X127250000Y-88325000D03*
%TO.P,U1,97,PE0*%
%TO.N,FMC_NBL0*%
X126750000Y-88325000D03*
%TO.P,U1,98,PE1*%
%TO.N,FMC_NBL1*%
X126250000Y-88325000D03*
%TO.P,U1,99,VSS*%
%TO.N,GND*%
X125750000Y-88325000D03*
%TO.P,U1,100,VDD*%
%TO.N,+3V3*%
X125250000Y-88325000D03*
%TD*%
D16*
%TO.P,SW2,1*%
%TO.N,+3V3*%
X93895000Y-97125000D03*
X102355000Y-97125000D03*
%TO.P,SW2,2*%
%TO.N,BUTTON_USER*%
X102355000Y-92625000D03*
X93895000Y-92625000D03*
%TD*%
%TO.P,SW1,1*%
%TO.N,NRST*%
X93845000Y-87025000D03*
X102305000Y-87025000D03*
%TO.P,SW1,2*%
%TO.N,GND*%
X102305000Y-82525000D03*
X93845000Y-82525000D03*
%TD*%
D17*
%TO.P,R14,1*%
%TO.N,BUTTON_USER*%
X100360000Y-91375000D03*
%TO.P,R14,2*%
%TO.N,GND*%
X99340000Y-91375000D03*
%TD*%
%TO.P,R13,1*%
%TO.N,+3V3*%
X143770000Y-99075000D03*
%TO.P,R13,2*%
%TO.N,USB_FS_OVCR*%
X142750000Y-99075000D03*
%TD*%
D18*
%TO.P,R12,1*%
%TO.N,+3V3*%
X144840000Y-99050000D03*
%TO.P,R12,2*%
%TO.N,USB_FS_PWR_EN*%
X145860000Y-99050000D03*
%TD*%
%TO.P,R11,1*%
%TO.N,Net-(R11-Pad1)*%
X128515000Y-86575000D03*
%TO.P,R11,2*%
%TO.N,GND*%
X129535000Y-86575000D03*
%TD*%
D17*
%TO.P,R10,1*%
%TO.N,Net-(D10-Pad1)*%
X108010000Y-95825000D03*
%TO.P,R10,2*%
%TO.N,GND*%
X106990000Y-95825000D03*
%TD*%
%TO.P,R9,1*%
%TO.N,Net-(D9-Pad1)*%
X108085000Y-93700000D03*
%TO.P,R9,2*%
%TO.N,GND*%
X107065000Y-93700000D03*
%TD*%
%TO.P,R8,1*%
%TO.N,Net-(D8-Pad1)*%
X108035000Y-91550000D03*
%TO.P,R8,2*%
%TO.N,GND*%
X107015000Y-91550000D03*
%TD*%
%TO.P,R7,1*%
%TO.N,Net-(D7-Pad1)*%
X107935000Y-89375000D03*
%TO.P,R7,2*%
%TO.N,GND*%
X106915000Y-89375000D03*
%TD*%
%TO.P,R6,1*%
%TO.N,Net-(D6-Pad1)*%
X108010000Y-87150000D03*
%TO.P,R6,2*%
%TO.N,GND*%
X106990000Y-87150000D03*
%TD*%
%TO.P,R5,1*%
%TO.N,Net-(D5-Pad1)*%
X107935000Y-84975000D03*
%TO.P,R5,2*%
%TO.N,GND*%
X106915000Y-84975000D03*
%TD*%
%TO.P,R4,1*%
%TO.N,Net-(D4-Pad1)*%
X107860000Y-82800000D03*
%TO.P,R4,2*%
%TO.N,GND*%
X106840000Y-82800000D03*
%TD*%
%TO.P,R3,1*%
%TO.N,Net-(D3-Pad1)*%
X107885000Y-80650000D03*
%TO.P,R3,2*%
%TO.N,GND*%
X106865000Y-80650000D03*
%TD*%
%TO.P,R2,1*%
%TO.N,Net-(D2-Pad1)*%
X102770000Y-116050000D03*
%TO.P,R2,2*%
%TO.N,GND*%
X101750000Y-116050000D03*
%TD*%
%TO.P,R1,1*%
%TO.N,Net-(D1-Pad1)*%
X102785000Y-99475000D03*
%TO.P,R1,2*%
%TO.N,GND*%
X101765000Y-99475000D03*
%TD*%
D19*
%TO.P,J4,1,Pin_1*%
%TO.N,FMC_DA0*%
X114100000Y-116850000D03*
D20*
%TO.P,J4,2,Pin_2*%
%TO.N,unconnected-(J4-Pad2)*%
X114100000Y-114310000D03*
%TO.P,J4,3,Pin_3*%
%TO.N,FMC_DA1*%
X116640000Y-116850000D03*
%TO.P,J4,4,Pin_4*%
%TO.N,+3V3*%
X116640000Y-114310000D03*
%TO.P,J4,5,Pin_5*%
%TO.N,FMC_DA2*%
X119180000Y-116850000D03*
%TO.P,J4,6,Pin_6*%
%TO.N,GND*%
X119180000Y-114310000D03*
%TO.P,J4,7,Pin_7*%
%TO.N,FMC_DA3*%
X121720000Y-116850000D03*
%TO.P,J4,8,Pin_8*%
%TO.N,FMC_NBL0*%
X121720000Y-114310000D03*
%TO.P,J4,9,Pin_9*%
%TO.N,FMC_DA4*%
X124260000Y-116850000D03*
%TO.P,J4,10,Pin_10*%
%TO.N,FMC_NBL1*%
X124260000Y-114310000D03*
%TO.P,J4,11,Pin_11*%
%TO.N,FMC_DA5*%
X126800000Y-116850000D03*
%TO.P,J4,12,Pin_12*%
%TO.N,FMC_NL*%
X126800000Y-114310000D03*
%TO.P,J4,13,Pin_13*%
%TO.N,FMC_DA6*%
X129340000Y-116850000D03*
%TO.P,J4,14,Pin_14*%
%TO.N,FMC_NWE*%
X129340000Y-114310000D03*
%TO.P,J4,15,Pin_15*%
%TO.N,FMC_DA7*%
X131880000Y-116850000D03*
%TO.P,J4,16,Pin_16*%
%TO.N,FMC_NOE*%
X131880000Y-114310000D03*
%TO.P,J4,17,Pin_17*%
%TO.N,FMC_DA8*%
X134420000Y-116850000D03*
%TO.P,J4,18,Pin_18*%
%TO.N,FMC_NE2*%
X134420000Y-114310000D03*
%TO.P,J4,19,Pin_19*%
%TO.N,FMC_DA9*%
X136960000Y-116850000D03*
%TO.P,J4,20,Pin_20*%
%TO.N,GND*%
X136960000Y-114310000D03*
%TO.P,J4,21,Pin_21*%
%TO.N,FMC_DA10*%
X139500000Y-116850000D03*
%TO.P,J4,22,Pin_22*%
%TO.N,GND*%
X139500000Y-114310000D03*
%TO.P,J4,23,Pin_23*%
%TO.N,FMC_DA11*%
X142040000Y-116850000D03*
%TO.P,J4,24,Pin_24*%
%TO.N,GND*%
X142040000Y-114310000D03*
%TO.P,J4,25,Pin_25*%
%TO.N,FMC_DA12*%
X144580000Y-116850000D03*
%TO.P,J4,26,Pin_26*%
%TO.N,+3V3*%
X144580000Y-114310000D03*
%TO.P,J4,27,Pin_27*%
%TO.N,FMC_DA13*%
X147120000Y-116850000D03*
%TO.P,J4,28,Pin_28*%
%TO.N,+3V3*%
X147120000Y-114310000D03*
%TO.P,J4,29,Pin_29*%
%TO.N,FMC_DA14*%
X149660000Y-116850000D03*
%TO.P,J4,30,Pin_30*%
%TO.N,FMC_DA15*%
X149660000Y-114310000D03*
%TD*%
D19*
%TO.P,J3,1,Pin_1*%
%TO.N,+3.3VA*%
X120075000Y-81100000D03*
D20*
%TO.P,J3,2,Pin_2*%
%TO.N,DAC_1*%
X122615000Y-81100000D03*
%TO.P,J3,3,Pin_3*%
%TO.N,DAC_2*%
X125155000Y-81100000D03*
%TO.P,J3,4,Pin_4*%
%TO.N,+5V*%
X127695000Y-81100000D03*
%TO.P,J3,5,Pin_5*%
%TO.N,I2C_SDA*%
X130235000Y-81100000D03*
%TO.P,J3,6,Pin_6*%
%TO.N,I2C_SCL*%
X132775000Y-81100000D03*
%TO.P,J3,7,Pin_7*%
%TO.N,SWCLK*%
X135315000Y-81100000D03*
%TO.P,J3,8,Pin_8*%
%TO.N,SWDIO*%
X137855000Y-81100000D03*
%TO.P,J3,9,Pin_9*%
%TO.N,+3V3*%
X140395000Y-81100000D03*
%TO.P,J3,10,Pin_10*%
%TO.N,GND*%
X142935000Y-81100000D03*
%TD*%
D21*
%TO.P,J2,1,VBUS*%
%TO.N,USB_FS_VBUS*%
X147625000Y-95425000D03*
%TO.P,J2,2,D-*%
%TO.N,Net-(J2-Pad2)*%
X147625000Y-93425000D03*
%TO.P,J2,3,D+*%
%TO.N,Net-(J2-Pad3)*%
X147625000Y-91425000D03*
%TO.P,J2,4,GND*%
%TO.N,GND*%
X147625000Y-89425000D03*
%TO.P,J2,5,SSRX-*%
%TO.N,unconnected-(J2-Pad5)*%
X147625000Y-88425000D03*
%TO.P,J2,6,SSRX+*%
%TO.N,unconnected-(J2-Pad6)*%
X147625000Y-90425000D03*
%TO.P,J2,7,DRAIN*%
%TO.N,GND*%
X147625000Y-92425000D03*
%TO.P,J2,8,SSTX-*%
%TO.N,unconnected-(J2-Pad8)*%
X147625000Y-94425000D03*
%TO.P,J2,9,SSTX+*%
%TO.N,unconnected-(J2-Pad9)*%
X147625000Y-96425000D03*
D22*
%TO.P,J2,10,SHIELD*%
%TO.N,GND*%
X148775000Y-98825000D03*
X148775000Y-86025000D03*
%TD*%
D23*
%TO.P,J1,1,VBUS*%
%TO.N,+5V*%
X96110000Y-106450000D03*
%TO.P,J1,2,D-*%
%TO.N,unconnected-(J1-Pad2)*%
X96110000Y-107100000D03*
%TO.P,J1,3,D+*%
%TO.N,unconnected-(J1-Pad3)*%
X96110000Y-107750000D03*
%TO.P,J1,4,ID*%
%TO.N,unconnected-(J1-Pad4)*%
X96110000Y-108400000D03*
%TO.P,J1,5,GND*%
%TO.N,GND*%
X96110000Y-109050000D03*
D24*
%TO.P,J1,6,Shield*%
X93275000Y-111020000D03*
X93275000Y-104480000D03*
D25*
X95635000Y-104540000D03*
X95635000Y-110960000D03*
%TD*%
D26*
%TO.P,D10,2,A*%
%TO.N,LED7*%
X111387500Y-95825000D03*
%TO.P,D10,1,K*%
%TO.N,Net-(D10-Pad1)*%
X109512500Y-95825000D03*
%TD*%
%TO.P,D9,1,K*%
%TO.N,Net-(D9-Pad1)*%
X109487500Y-93700000D03*
%TO.P,D9,2,A*%
%TO.N,LED6*%
X111362500Y-93700000D03*
%TD*%
%TO.P,D8,1,K*%
%TO.N,Net-(D8-Pad1)*%
X109462500Y-91575000D03*
%TO.P,D8,2,A*%
%TO.N,LED5*%
X111337500Y-91575000D03*
%TD*%
%TO.P,D7,1,K*%
%TO.N,Net-(D7-Pad1)*%
X109412500Y-89375000D03*
%TO.P,D7,2,A*%
%TO.N,LED4*%
X111287500Y-89375000D03*
%TD*%
%TO.P,D6,1,K*%
%TO.N,Net-(D6-Pad1)*%
X109412500Y-87175000D03*
%TO.P,D6,2,A*%
%TO.N,LED3*%
X111287500Y-87175000D03*
%TD*%
%TO.P,D5,1,K*%
%TO.N,Net-(D5-Pad1)*%
X109387500Y-85000000D03*
%TO.P,D5,2,A*%
%TO.N,LED2*%
X111262500Y-85000000D03*
%TD*%
%TO.P,D4,1,K*%
%TO.N,Net-(D4-Pad1)*%
X109387500Y-82825000D03*
%TO.P,D4,2,A*%
%TO.N,LED1*%
X111262500Y-82825000D03*
%TD*%
%TO.P,D3,1,K*%
%TO.N,Net-(D3-Pad1)*%
X109387500Y-80650000D03*
%TO.P,D3,2,A*%
%TO.N,LED0*%
X111262500Y-80650000D03*
%TD*%
D27*
%TO.P,D2,1,K*%
%TO.N,Net-(D2-Pad1)*%
X104137500Y-116050000D03*
%TO.P,D2,2,A*%
%TO.N,+3.3VA*%
X105712500Y-116050000D03*
%TD*%
%TO.P,D1,1,K*%
%TO.N,Net-(D1-Pad1)*%
X104137500Y-99475000D03*
%TO.P,D1,2,A*%
%TO.N,+3V3*%
X105712500Y-99475000D03*
%TD*%
D28*
%TO.P,C23,1*%
%TO.N,BUTTON_USER*%
X95865000Y-91475000D03*
%TO.P,C23,2*%
%TO.N,GND*%
X96825000Y-91475000D03*
%TD*%
D29*
%TO.P,C22,1*%
%TO.N,NRST*%
X100405000Y-88150000D03*
%TO.P,C22,2*%
%TO.N,GND*%
X99445000Y-88150000D03*
%TD*%
D30*
%TO.P,C21,1*%
%TO.N,+3.3VA*%
X107150000Y-112940000D03*
%TO.P,C21,2*%
%TO.N,GND*%
X107150000Y-113900000D03*
%TD*%
%TO.P,C20,1*%
%TO.N,+3.3VA*%
X107175000Y-108570000D03*
%TO.P,C20,2*%
%TO.N,GND*%
X107175000Y-109530000D03*
%TD*%
D31*
%TO.P,C19,1*%
%TO.N,+5V*%
X96950000Y-113900000D03*
%TO.P,C19,2*%
%TO.N,GND*%
X96950000Y-112940000D03*
%TD*%
D30*
%TO.P,C18,1*%
%TO.N,+3V3*%
X107175000Y-105795000D03*
%TO.P,C18,2*%
%TO.N,GND*%
X107175000Y-106755000D03*
%TD*%
%TO.P,C17,1*%
%TO.N,+3V3*%
X107175000Y-100970000D03*
%TO.P,C17,2*%
%TO.N,GND*%
X107175000Y-101930000D03*
%TD*%
D31*
%TO.P,C16,1*%
%TO.N,+5V*%
X96850000Y-102675000D03*
%TO.P,C16,2*%
%TO.N,GND*%
X96850000Y-101715000D03*
%TD*%
D30*
%TO.P,C15,1*%
%TO.N,+3.3VA*%
X120675000Y-100445000D03*
%TO.P,C15,2*%
%TO.N,GND*%
X120675000Y-101405000D03*
%TD*%
%TO.P,C14,1*%
%TO.N,+3.3VA*%
X121800000Y-100475000D03*
%TO.P,C14,2*%
%TO.N,GND*%
X121800000Y-101435000D03*
%TD*%
D31*
%TO.P,C13,1*%
%TO.N,+3.3VA*%
X120650000Y-99405000D03*
%TO.P,C13,2*%
%TO.N,GND*%
X120650000Y-98445000D03*
%TD*%
%TO.P,C12,1*%
%TO.N,+3.3VA*%
X121800000Y-99405000D03*
%TO.P,C12,2*%
%TO.N,GND*%
X121800000Y-98445000D03*
%TD*%
D28*
%TO.P,C11,1*%
%TO.N,OSC_IN*%
X116425000Y-88200000D03*
%TO.P,C11,2*%
%TO.N,GND*%
X117385000Y-88200000D03*
%TD*%
D29*
%TO.P,C10,1*%
%TO.N,OSC_OUT*%
X116480000Y-103000000D03*
%TO.P,C10,2*%
%TO.N,GND*%
X115520000Y-103000000D03*
%TD*%
D28*
%TO.P,C9,1*%
%TO.N,VCAP1*%
X136045000Y-105375000D03*
%TO.P,C9,2*%
%TO.N,GND*%
X137005000Y-105375000D03*
%TD*%
D31*
%TO.P,C8,1*%
%TO.N,VCAP2*%
X140650000Y-91205000D03*
%TO.P,C8,2*%
%TO.N,GND*%
X140650000Y-90245000D03*
%TD*%
D29*
%TO.P,C7,1*%
%TO.N,+3V3*%
X121705000Y-91400000D03*
%TO.P,C7,2*%
%TO.N,GND*%
X120745000Y-91400000D03*
%TD*%
D28*
%TO.P,C6,1*%
%TO.N,+3V3*%
X124945000Y-86525000D03*
%TO.P,C6,2*%
%TO.N,GND*%
X125905000Y-86525000D03*
%TD*%
%TO.P,C5,1*%
%TO.N,+3V3*%
X139490000Y-88975000D03*
%TO.P,C5,2*%
%TO.N,GND*%
X140450000Y-88975000D03*
%TD*%
D30*
%TO.P,C4,1*%
%TO.N,+3V3*%
X138250000Y-104270000D03*
%TO.P,C4,2*%
%TO.N,GND*%
X138250000Y-105230000D03*
%TD*%
D29*
%TO.P,C3,1*%
%TO.N,+3V3*%
X126055000Y-105600000D03*
%TO.P,C3,2*%
%TO.N,GND*%
X125095000Y-105600000D03*
%TD*%
D31*
%TO.P,C2,1*%
%TO.N,+3V3*%
X121650000Y-94630000D03*
%TO.P,C2,2*%
%TO.N,GND*%
X121650000Y-93670000D03*
%TD*%
D29*
%TO.P,C1,1*%
%TO.N,+3V3*%
X121680000Y-92450000D03*
%TO.P,C1,2*%
%TO.N,GND*%
X120720000Y-92450000D03*
%TD*%
D32*
%TO.N,FMC_DA4*%
X125900000Y-111650000D03*
%TO.N,DAC_2*%
X126750000Y-93200000D03*
%TO.N,DAC_1*%
X125850000Y-94775000D03*
%TO.N,FMC_NBL1*%
X127375000Y-96100000D03*
X125475000Y-100575000D03*
%TO.N,FMC_NBL0*%
X128025000Y-91550000D03*
X121775000Y-105775000D03*
%TO.N,FMC_DA1*%
X128425000Y-101000000D03*
%TO.N,FMC_DA0*%
X127725000Y-101775000D03*
%TO.N,FMC_DA3*%
X130250000Y-94975000D03*
%TO.N,FMC_DA2*%
X129550000Y-96175000D03*
%TO.N,FMC_NL*%
X131250000Y-99350000D03*
%TO.N,FMC_NWE*%
X132300000Y-90900000D03*
%TO.N,FMC_NOE*%
X132825000Y-90050000D03*
%TO.N,FMC_NE2*%
X141050000Y-97950000D03*
%TO.N,BUTTON_USER*%
X124786362Y-99290939D03*
%TO.N,NRST*%
X125300000Y-96925000D03*
%TO.N,+5V*%
X145400000Y-95700000D03*
%TO.N,LED5*%
X125075000Y-92925000D03*
%TO.N,LED6*%
X124987094Y-93762906D03*
%TO.N,LED7*%
X124925000Y-95250000D03*
%TO.N,LED4*%
X125150000Y-92000000D03*
%TO.N,GND*%
X120650000Y-98450000D03*
%TO.N,BUTTON_USER*%
X111350000Y-100900000D03*
%TO.N,NRST*%
X112225000Y-98775000D03*
%TO.N,LED7*%
X111375000Y-95800000D03*
%TO.N,LED6*%
X111375000Y-93700000D03*
%TO.N,LED5*%
X111300000Y-91575000D03*
%TO.N,LED4*%
X111275000Y-89375000D03*
%TO.N,LED3*%
X111275000Y-87175000D03*
X124925000Y-91000000D03*
%TO.N,GND*%
X107175000Y-101925000D03*
X107175000Y-106750000D03*
X107175000Y-109525000D03*
X96950000Y-112925000D03*
X101750000Y-116050000D03*
X107150000Y-113900000D03*
%TO.N,+3V3*%
X105175000Y-105325000D03*
X105150000Y-102750000D03*
X105150000Y-104025000D03*
X124945000Y-86525000D03*
%TO.N,GND*%
X125905000Y-86525000D03*
X129525000Y-86550000D03*
X142850000Y-92400000D03*
X147625000Y-92425000D03*
X147625000Y-89425000D03*
%TO.N,USB_FS_VBUS*%
X147650000Y-95450000D03*
X143112500Y-95700000D03*
%TO.N,GND*%
X143100000Y-96650000D03*
%TO.N,+3V3*%
X139490000Y-88975000D03*
%TO.N,GND*%
X140650000Y-90245000D03*
%TO.N,+3V3*%
X143775000Y-99075000D03*
X138250000Y-104270000D03*
%TO.N,GND*%
X137005000Y-105375000D03*
%TO.N,+3V3*%
X126055000Y-105600000D03*
%TO.N,GND*%
X125095000Y-105600000D03*
X121800000Y-101435000D03*
X115525000Y-103000000D03*
X117400000Y-88200000D03*
%TO.N,+3V3*%
X121650000Y-94630000D03*
%TO.N,GND*%
X121650000Y-93670000D03*
%TO.N,+3V3*%
X121680000Y-92450000D03*
%TO.N,GND*%
X120720000Y-92450000D03*
X98075000Y-91475000D03*
X99425000Y-88150000D03*
X98075000Y-82525000D03*
%TO.N,+3V3*%
X98025000Y-97125000D03*
%TO.N,GND*%
X106865000Y-81685000D03*
X106915000Y-86060000D03*
X106915000Y-90435000D03*
X107065000Y-94710000D03*
%TO.N,+3.3VA*%
X120675000Y-100445000D03*
X120650000Y-99405000D03*
X105150000Y-110400000D03*
X105175000Y-111600000D03*
%TO.N,GND*%
X98350000Y-101700000D03*
X99400000Y-101700000D03*
X93275000Y-104480000D03*
X93275000Y-111020000D03*
X94350000Y-108825000D03*
X98275000Y-109300000D03*
X99375000Y-109275000D03*
%TO.N,+5V*%
X96850000Y-105625000D03*
X98300000Y-113900000D03*
X99350000Y-113900000D03*
X99350000Y-106325000D03*
X98325000Y-106350000D03*
X94575000Y-107125000D03*
%TD*%
D33*
%TO.N,FMC_NBL0*%
X121720000Y-105830000D02*
X121720000Y-114310000D01*
X121775000Y-105775000D02*
X121720000Y-105830000D01*
%TO.N,FMC_NBL1*%
X124260000Y-103140000D02*
X124260000Y-114310000D01*
X124975000Y-102425000D02*
X124260000Y-103140000D01*
X124975000Y-101075000D02*
X124975000Y-102425000D01*
X125475000Y-100575000D02*
X124975000Y-101075000D01*
%TO.N,FMC_NBL0*%
X128025000Y-91475000D02*
X126750000Y-90200000D01*
X128025000Y-91550000D02*
X128025000Y-91475000D01*
X126750000Y-90200000D02*
X126750000Y-88325000D01*
%TO.N,FMC_NBL1*%
X126250000Y-90650000D02*
X126250000Y-88325000D01*
X127375000Y-96100000D02*
X127375000Y-91775000D01*
X127375000Y-91775000D02*
X126250000Y-90650000D01*
%TO.N,USB_FS_N*%
X141960718Y-93350000D02*
X142837500Y-93350000D01*
X141085718Y-92475000D02*
X141960718Y-93350000D01*
X140650000Y-92475000D02*
X141085718Y-92475000D01*
%TO.N,FMC_DA4*%
X130750000Y-106800000D02*
X125900000Y-111650000D01*
X130750000Y-104900000D02*
X130750000Y-106800000D01*
%TO.N,DAC_1*%
X126250000Y-103675000D02*
X126250000Y-96025000D01*
X126250000Y-96025000D02*
X125850000Y-95625000D01*
X125850000Y-95625000D02*
X125850000Y-94775000D01*
%TO.N,DAC_2*%
X126750000Y-93200000D02*
X126750000Y-103675000D01*
%TO.N,FMC_NL*%
X128750000Y-96900000D02*
X128750000Y-88325000D01*
X131200000Y-99350000D02*
X128750000Y-96900000D01*
X131250000Y-99350000D02*
X131200000Y-99350000D01*
%TO.N,FMC_DA1*%
X135800000Y-96500000D02*
X138925000Y-96500000D01*
X131875000Y-100425000D02*
X135800000Y-96500000D01*
X129000000Y-100425000D02*
X131875000Y-100425000D01*
X128425000Y-101000000D02*
X129000000Y-100425000D01*
%TO.N,FMC_DA0*%
X136550000Y-97000000D02*
X138925000Y-97000000D01*
X127725000Y-101775000D02*
X131775000Y-101775000D01*
X131775000Y-101775000D02*
X136550000Y-97000000D01*
%TO.N,FMC_DA4*%
X130750000Y-103675000D02*
X130750000Y-104900000D01*
%TO.N,FMC_DA8*%
X133245489Y-115675489D02*
X134420000Y-116850000D01*
X133245489Y-111181207D02*
X133245489Y-115675489D01*
X132750000Y-110685718D02*
X133245489Y-111181207D01*
X132750000Y-103675000D02*
X132750000Y-110685718D01*
%TO.N,BUTTON_USER*%
X124786362Y-99290939D02*
X124786362Y-100153644D01*
X124440006Y-100500000D02*
X123575000Y-100500000D01*
X124786362Y-100153644D02*
X124440006Y-100500000D01*
%TO.N,FMC_DA2*%
X134750000Y-89234198D02*
X134750000Y-88325000D01*
X134725000Y-91625000D02*
X134725000Y-89259198D01*
X134725000Y-89259198D02*
X134750000Y-89234198D01*
X129550000Y-96175000D02*
X130175000Y-96175000D01*
X130175000Y-96175000D02*
X134725000Y-91625000D01*
%TO.N,USB_FS_PWR_EN*%
X144400480Y-96612980D02*
X145387500Y-97600000D01*
X144400480Y-95625480D02*
X144400480Y-96612980D01*
X143050480Y-95075480D02*
X143850480Y-95075480D01*
X140975000Y-93000000D02*
X143050480Y-95075480D01*
X138925000Y-93000000D02*
X140975000Y-93000000D01*
X143850480Y-95075480D02*
X144400480Y-95625480D01*
%TO.N,USB_FS_P*%
X141975000Y-91450000D02*
X142837500Y-91450000D01*
X141400000Y-92025000D02*
X141975000Y-91450000D01*
X140650000Y-92025000D02*
X141400000Y-92025000D01*
%TO.N,FMC_DA3*%
X134250000Y-90975000D02*
X130250000Y-94975000D01*
X134250000Y-88325000D02*
X134250000Y-90975000D01*
%TO.N,FMC_NWE*%
X132250000Y-90850000D02*
X132250000Y-88325000D01*
X132300000Y-90900000D02*
X132250000Y-90850000D01*
%TO.N,FMC_NOE*%
X132750000Y-89975000D02*
X132825000Y-90050000D01*
X132750000Y-88325000D02*
X132750000Y-89975000D01*
%TO.N,FMC_NE2*%
X141050000Y-96259994D02*
X141050000Y-97950000D01*
X139790006Y-95000000D02*
X141050000Y-96259994D01*
X138925000Y-95000000D02*
X139790006Y-95000000D01*
%TO.N,USB_FS_OVCR*%
X142500000Y-97600000D02*
X143112500Y-97600000D01*
X142000000Y-97100000D02*
X142500000Y-97600000D01*
X142000000Y-95775000D02*
X142000000Y-97100000D01*
X140225000Y-94000000D02*
X142000000Y-95775000D01*
X138925000Y-94000000D02*
X140225000Y-94000000D01*
%TO.N,GND*%
X120655000Y-98445000D02*
X120650000Y-98450000D01*
X121800000Y-98445000D02*
X120655000Y-98445000D01*
X122154994Y-98445000D02*
X121800000Y-98445000D01*
X122709994Y-99000000D02*
X122154994Y-98445000D01*
X123575000Y-99000000D02*
X122709994Y-99000000D01*
%TO.N,NRST*%
X124875000Y-96500000D02*
X125300000Y-96925000D01*
X123575000Y-96500000D02*
X124875000Y-96500000D01*
%TO.N,LED6*%
X124724188Y-93500000D02*
X123575000Y-93500000D01*
X124987094Y-93762906D02*
X124724188Y-93500000D01*
%TO.N,LED7*%
X124925000Y-94484994D02*
X124440006Y-94000000D01*
X124440006Y-94000000D02*
X123575000Y-94000000D01*
X124925000Y-95250000D02*
X124925000Y-94484994D01*
%TO.N,LED5*%
X125000000Y-93000000D02*
X125075000Y-92925000D01*
X123575000Y-93000000D02*
X125000000Y-93000000D01*
%TO.N,LED4*%
X123575000Y-92000000D02*
X125150000Y-92000000D01*
%TO.N,LED3*%
X124440006Y-91500000D02*
X123575000Y-91500000D01*
X124925000Y-91000000D02*
X124925000Y-91015006D01*
X124925000Y-91015006D02*
X124440006Y-91500000D01*
%TO.N,NRST*%
X108970141Y-98775000D02*
X112225000Y-98775000D01*
X104375000Y-94179859D02*
X108970141Y-98775000D01*
X104375000Y-92775000D02*
X104375000Y-94179859D01*
X104375000Y-89095000D02*
X104375000Y-92775000D01*
X102305000Y-87025000D02*
X104375000Y-89095000D01*
%TO.N,BUTTON_USER*%
X109450000Y-100900000D02*
X111350000Y-100900000D01*
X109400000Y-100850000D02*
X109450000Y-100900000D01*
X102355000Y-92625000D02*
X102355000Y-93805000D01*
X102355000Y-93805000D02*
X109400000Y-100850000D01*
%TO.N,+3.3VA*%
X106515000Y-112940000D02*
X105175000Y-111600000D01*
X107150000Y-112940000D02*
X106515000Y-112940000D01*
%TO.N,GND*%
X101625000Y-99475000D02*
X99400000Y-101700000D01*
X101765000Y-99475000D02*
X101625000Y-99475000D01*
%TO.N,+3V3*%
X105150000Y-100037500D02*
X105150000Y-104025000D01*
X105712500Y-99475000D02*
X105150000Y-100037500D01*
%TO.N,+3.3VA*%
X105175000Y-115512500D02*
X105175000Y-111600000D01*
X105712500Y-116050000D02*
X105175000Y-115512500D01*
%TO.N,+3V3*%
X106930000Y-100970000D02*
X107175000Y-100970000D01*
X105150000Y-102750000D02*
X106930000Y-100970000D01*
X106250000Y-105325000D02*
X105175000Y-105325000D01*
X106720000Y-105795000D02*
X106250000Y-105325000D01*
X107175000Y-105795000D02*
X106720000Y-105795000D01*
%TO.N,Net-(J2-Pad3)*%
X145137500Y-91425000D02*
X147625000Y-91425000D01*
X145112500Y-91450000D02*
X145137500Y-91425000D01*
%TO.N,Net-(J2-Pad2)*%
X145187500Y-93425000D02*
X147625000Y-93425000D01*
X145112500Y-93350000D02*
X145187500Y-93425000D01*
%TO.N,USB_FS_VBUS*%
X142800000Y-95700000D02*
X143112500Y-95700000D01*
X140600000Y-93500000D02*
X142800000Y-95700000D01*
X138925000Y-93500000D02*
X140600000Y-93500000D01*
%TO.N,+3V3*%
X144815000Y-99075000D02*
X144840000Y-99050000D01*
X143775000Y-99075000D02*
X144815000Y-99075000D01*
%TO.N,GND*%
X121770000Y-101405000D02*
X121800000Y-101435000D01*
X120675000Y-101405000D02*
X121770000Y-101405000D01*
%TO.N,OSC_IN*%
X120574520Y-95474520D02*
X116425000Y-91325000D01*
X123549520Y-95474520D02*
X120574520Y-95474520D01*
X123575000Y-95500000D02*
X123549520Y-95474520D01*
%TO.N,OSC_OUT*%
X120250000Y-96000000D02*
X116425000Y-99825000D01*
X123575000Y-96000000D02*
X120250000Y-96000000D01*
%TO.N,+3V3*%
X122020000Y-95000000D02*
X121650000Y-94630000D01*
X123575000Y-95000000D02*
X122020000Y-95000000D01*
%TO.N,GND*%
X122709994Y-94500000D02*
X121879994Y-93670000D01*
X123575000Y-94500000D02*
X122709994Y-94500000D01*
X121879994Y-93670000D02*
X121650000Y-93670000D01*
X120745000Y-91400000D02*
X120745000Y-92425000D01*
X120745000Y-92425000D02*
X120720000Y-92450000D01*
%TO.N,+3V3*%
X121680000Y-92450000D02*
X121680000Y-91425000D01*
X121680000Y-91425000D02*
X121705000Y-91400000D01*
X121730000Y-92500000D02*
X121680000Y-92450000D01*
X123575000Y-92500000D02*
X121730000Y-92500000D01*
%TO.N,LED2*%
X116271930Y-85000000D02*
X111262500Y-85000000D01*
X123575000Y-91000000D02*
X122271930Y-91000000D01*
X122271930Y-91000000D02*
X116271930Y-85000000D01*
%TO.N,LED1*%
X122425000Y-90500000D02*
X123575000Y-90500000D01*
X111262500Y-82825000D02*
X114750000Y-82825000D01*
X114750000Y-82825000D02*
X122425000Y-90500000D01*
%TO.N,LED0*%
X113225000Y-80650000D02*
X111262500Y-80650000D01*
X122575000Y-90000000D02*
X113225000Y-80650000D01*
X123575000Y-90000000D02*
X122575000Y-90000000D01*
%TO.N,GND*%
X98335000Y-101715000D02*
X98350000Y-101700000D01*
X96850000Y-101715000D02*
X98335000Y-101715000D01*
X98075000Y-91475000D02*
X99240000Y-91475000D01*
X99240000Y-91475000D02*
X99340000Y-91375000D01*
X96825000Y-91475000D02*
X98075000Y-91475000D01*
X98075000Y-82525000D02*
X102305000Y-82525000D01*
%TO.N,+3V3*%
X98025000Y-97125000D02*
X102355000Y-97125000D01*
%TO.N,GND*%
X93845000Y-82525000D02*
X98075000Y-82525000D01*
X106865000Y-81685000D02*
X106865000Y-82775000D01*
X106915000Y-86060000D02*
X106915000Y-87075000D01*
X106915000Y-90435000D02*
X106915000Y-91450000D01*
X107065000Y-94710000D02*
X107065000Y-95750000D01*
X107065000Y-95750000D02*
X106990000Y-95825000D01*
X107065000Y-93700000D02*
X107065000Y-94710000D01*
X107015000Y-93650000D02*
X107065000Y-93700000D01*
X107015000Y-91550000D02*
X107015000Y-93650000D01*
X106915000Y-91450000D02*
X107015000Y-91550000D01*
X106915000Y-89375000D02*
X106915000Y-90435000D01*
X106990000Y-89300000D02*
X106915000Y-89375000D01*
X106990000Y-87150000D02*
X106990000Y-89300000D01*
X106915000Y-87075000D02*
X106990000Y-87150000D01*
X106915000Y-84975000D02*
X106915000Y-86060000D01*
X106840000Y-84900000D02*
X106915000Y-84975000D01*
X106840000Y-82800000D02*
X106840000Y-84900000D01*
X106865000Y-80650000D02*
X106865000Y-81685000D01*
X106865000Y-82775000D02*
X106840000Y-82800000D01*
%TO.N,+3.3VA*%
X106980000Y-108570000D02*
X107175000Y-108570000D01*
X105150000Y-110400000D02*
X106980000Y-108570000D01*
%TO.N,GND*%
X95575000Y-104480000D02*
X95635000Y-104540000D01*
X93275000Y-104480000D02*
X95575000Y-104480000D01*
X95575000Y-111020000D02*
X95635000Y-110960000D01*
X93275000Y-111020000D02*
X95575000Y-111020000D01*
X94575000Y-109050000D02*
X96110000Y-109050000D01*
X94350000Y-108825000D02*
X94575000Y-109050000D01*
X97300000Y-109050000D02*
X96110000Y-109050000D01*
X97300000Y-109050000D02*
X97550000Y-109300000D01*
X97550000Y-109300000D02*
X98275000Y-109300000D01*
X98275000Y-109300000D02*
X98875000Y-109300000D01*
%TO.N,+5V*%
X98225000Y-106450000D02*
X96110000Y-106450000D01*
X98350000Y-106325000D02*
X98850000Y-106325000D01*
X98325000Y-106350000D02*
X98225000Y-106450000D01*
X98325000Y-106350000D02*
X98350000Y-106325000D01*
X96850000Y-105625000D02*
X96850000Y-102675000D01*
X96950000Y-113900000D02*
X98300000Y-113900000D01*
X98300000Y-113900000D02*
X98875000Y-113900000D01*
X95234639Y-106450000D02*
X96110000Y-106450000D01*
X94575000Y-107109639D02*
X95234639Y-106450000D01*
X94575000Y-107125000D02*
X94575000Y-107109639D01*
%TO.N,+3.3VA*%
X98875000Y-111600000D02*
X105175000Y-111600000D01*
%TO.N,+3V3*%
X98850000Y-104025000D02*
X105150000Y-104025000D01*
D34*
%TO.N,USB_FS_N*%
X138949999Y-92475001D02*
X140650000Y-92475000D01*
X138925000Y-92500000D02*
X138949999Y-92475001D01*
%TO.N,USB_FS_P*%
X138949999Y-92024999D02*
X140650000Y-92025000D01*
X138925000Y-92000000D02*
X138949999Y-92024999D01*
D33*
%TO.N,Net-(R11-Pad1)*%
X128250000Y-86840000D02*
X128515000Y-86575000D01*
X128250000Y-88325000D02*
X128250000Y-86840000D01*
%TO.N,GND*%
X125750000Y-86680000D02*
X125905000Y-86525000D01*
X125750000Y-88325000D02*
X125750000Y-86680000D01*
%TO.N,+3V3*%
X125250000Y-86830000D02*
X124945000Y-86525000D01*
X125250000Y-88325000D02*
X125250000Y-86830000D01*
%TO.N,GND*%
X140650000Y-89175000D02*
X140450000Y-88975000D01*
X140650000Y-90245000D02*
X140650000Y-89175000D01*
%TO.N,+3V3*%
X138925000Y-89540000D02*
X139490000Y-88975000D01*
X138925000Y-90000000D02*
X138925000Y-89540000D01*
%TO.N,GND*%
X140395000Y-90500000D02*
X140650000Y-90245000D01*
X138925000Y-90500000D02*
X140395000Y-90500000D01*
%TO.N,VCAP2*%
X138925000Y-91000000D02*
X140445000Y-91000000D01*
X140445000Y-91000000D02*
X140650000Y-91205000D01*
%TO.N,VCAP1*%
X136250000Y-103675000D02*
X136250000Y-105170000D01*
X136250000Y-105170000D02*
X136045000Y-105375000D01*
%TO.N,GND*%
X138105000Y-105375000D02*
X138250000Y-105230000D01*
X137005000Y-105375000D02*
X138105000Y-105375000D01*
X136750000Y-105120000D02*
X137005000Y-105375000D01*
X136750000Y-103675000D02*
X136750000Y-105120000D01*
%TO.N,+3V3*%
X137655000Y-103675000D02*
X138250000Y-104270000D01*
X137250000Y-103675000D02*
X137655000Y-103675000D01*
X125750000Y-105295000D02*
X126055000Y-105600000D01*
X125750000Y-103675000D02*
X125750000Y-105295000D01*
%TO.N,GND*%
X125250000Y-105445000D02*
X125095000Y-105600000D01*
X125250000Y-103675000D02*
X125250000Y-105445000D01*
%TO.N,+3.3VA*%
X121800000Y-99405000D02*
X121800000Y-100475000D01*
X120650000Y-99405000D02*
X121800000Y-99405000D01*
X120675000Y-99430000D02*
X120650000Y-99405000D01*
X120675000Y-100445000D02*
X120675000Y-99430000D01*
X120705000Y-100475000D02*
X120675000Y-100445000D01*
X121800000Y-100475000D02*
X120705000Y-100475000D01*
X122275000Y-100000000D02*
X121800000Y-100475000D01*
X123575000Y-100000000D02*
X122275000Y-100000000D01*
X121895000Y-99500000D02*
X123575000Y-99500000D01*
X121800000Y-99405000D02*
X121895000Y-99500000D01*
%TO.N,Net-(D2-Pad1)*%
X102770000Y-116050000D02*
X104137500Y-116050000D01*
%TO.N,Net-(D1-Pad1)*%
X102785000Y-99475000D02*
X104137500Y-99475000D01*
%TO.N,NRST*%
X93845000Y-87025000D02*
X102305000Y-87025000D01*
%TO.N,+3V3*%
X93895000Y-97125000D02*
X98025000Y-97125000D01*
%TO.N,BUTTON_USER*%
X93895000Y-92625000D02*
X102355000Y-92625000D01*
X94725000Y-92625000D02*
X93895000Y-92625000D01*
X95865000Y-91475000D02*
X95865000Y-91485000D01*
X95865000Y-91485000D02*
X94725000Y-92625000D01*
X100375000Y-91375000D02*
X101625000Y-92625000D01*
X100360000Y-91375000D02*
X100375000Y-91375000D01*
X101625000Y-92625000D02*
X102355000Y-92625000D01*
%TO.N,NRST*%
X101525000Y-87025000D02*
X102305000Y-87025000D01*
X100405000Y-88145000D02*
X101525000Y-87025000D01*
X100405000Y-88150000D02*
X100405000Y-88145000D01*
%TO.N,OSC_OUT*%
X116425000Y-102945000D02*
X116480000Y-103000000D01*
X116425000Y-99825000D02*
X116425000Y-102945000D01*
%TO.N,OSC_IN*%
X116425000Y-91325000D02*
X116425000Y-88200000D01*
%TO.N,FMC_DA13*%
X145945489Y-115675489D02*
X147120000Y-116850000D01*
X145945489Y-106020489D02*
X145945489Y-115675489D01*
X138925000Y-100000000D02*
X139925000Y-100000000D01*
X139925000Y-100000000D02*
X145945489Y-106020489D01*
%TO.N,FMC_DA14*%
X148485489Y-107085489D02*
X148485489Y-115675489D01*
X140900000Y-99500000D02*
X148485489Y-107085489D01*
X148485489Y-115675489D02*
X149660000Y-116850000D01*
X138925000Y-99500000D02*
X140900000Y-99500000D01*
%TO.N,FMC_DA15*%
X149660000Y-107260000D02*
X149660000Y-114310000D01*
X141400000Y-99000000D02*
X149660000Y-107260000D01*
X138925000Y-99000000D02*
X141400000Y-99000000D01*
%TO.N,FMC_DA12*%
X143405489Y-114014479D02*
X143405489Y-115675489D01*
X143405489Y-115675489D02*
X144580000Y-116850000D01*
X134750000Y-103675000D02*
X134750000Y-105358990D01*
X134750000Y-105358990D02*
X143405489Y-114014479D01*
%TO.N,FMC_DA11*%
X140700000Y-112850000D02*
X140700000Y-115510000D01*
X134250000Y-106400000D02*
X140700000Y-112850000D01*
X140700000Y-115510000D02*
X142040000Y-116850000D01*
X134250000Y-103675000D02*
X134250000Y-106400000D01*
%TO.N,USB_FS_PWR_EN*%
X145860000Y-98635000D02*
X145860000Y-99050000D01*
X145387500Y-98162500D02*
X145860000Y-98635000D01*
X145387500Y-97600000D02*
X145387500Y-98162500D01*
%TO.N,USB_FS_OVCR*%
X143112500Y-98112500D02*
X143112500Y-97600000D01*
X142750000Y-98475000D02*
X143112500Y-98112500D01*
X142750000Y-99075000D02*
X142750000Y-98475000D01*
%TO.N,SWDIO*%
X137800000Y-81155000D02*
X137855000Y-81100000D01*
X137800000Y-91240006D02*
X137800000Y-81155000D01*
X138059994Y-91500000D02*
X137800000Y-91240006D01*
X138925000Y-91500000D02*
X138059994Y-91500000D01*
%TO.N,SWCLK*%
X137250000Y-83035000D02*
X135315000Y-81100000D01*
X137250000Y-88325000D02*
X137250000Y-83035000D01*
%TO.N,I2C_SDA*%
X127250000Y-84085000D02*
X130235000Y-81100000D01*
X127250000Y-88325000D02*
X127250000Y-84085000D01*
%TO.N,I2C_SCL*%
X127750000Y-86125000D02*
X132775000Y-81100000D01*
X127750000Y-88325000D02*
X127750000Y-86125000D01*
%TO.N,Net-(D3-Pad1)*%
X107885000Y-80650000D02*
X109387500Y-80650000D01*
%TO.N,Net-(D4-Pad1)*%
X109362500Y-82800000D02*
X109387500Y-82825000D01*
X107860000Y-82800000D02*
X109362500Y-82800000D01*
%TO.N,Net-(D5-Pad1)*%
X109362500Y-84975000D02*
X109387500Y-85000000D01*
X107935000Y-84975000D02*
X109362500Y-84975000D01*
%TO.N,Net-(D6-Pad1)*%
X109387500Y-87150000D02*
X109412500Y-87175000D01*
X108010000Y-87150000D02*
X109387500Y-87150000D01*
%TO.N,Net-(D7-Pad1)*%
X107935000Y-89375000D02*
X109412500Y-89375000D01*
%TO.N,Net-(D8-Pad1)*%
X108035000Y-91550000D02*
X109437500Y-91550000D01*
X109437500Y-91550000D02*
X109462500Y-91575000D01*
%TO.N,Net-(D9-Pad1)*%
X108085000Y-93700000D02*
X109487500Y-93700000D01*
%TO.N,Net-(D10-Pad1)*%
X108010000Y-95825000D02*
X109512500Y-95825000D01*
%TO.N,FMC_DA5*%
X125625489Y-115675489D02*
X126800000Y-116850000D01*
X125625489Y-113823501D02*
X125625489Y-115675489D01*
X131250000Y-108198990D02*
X125625489Y-113823501D01*
X131250000Y-103675000D02*
X131250000Y-108198990D01*
%TO.N,FMC_DA6*%
X128125000Y-115635000D02*
X129340000Y-116850000D01*
X128125000Y-113800000D02*
X128125000Y-115635000D01*
X131750000Y-110175000D02*
X128125000Y-113800000D01*
X131750000Y-103675000D02*
X131750000Y-110175000D01*
%TO.N,FMC_DA7*%
X130705489Y-115675489D02*
X131880000Y-116850000D01*
X130705489Y-113823501D02*
X130705489Y-115675489D01*
X132250000Y-112278990D02*
X130705489Y-113823501D01*
X132250000Y-103675000D02*
X132250000Y-112278990D01*
%TO.N,FMC_DA9*%
X133250000Y-103675000D02*
X133250000Y-110550000D01*
X133250000Y-110550000D02*
X135785489Y-113085489D01*
X135785489Y-113085489D02*
X135785489Y-115675489D01*
X135785489Y-115675489D02*
X136960000Y-116850000D01*
%TO.N,FMC_DA10*%
X138325489Y-112175489D02*
X138325489Y-115675489D01*
X138325489Y-115675489D02*
X139500000Y-116850000D01*
X133750000Y-107600000D02*
X138325489Y-112175489D01*
X133750000Y-103675000D02*
X133750000Y-107600000D01*
%TD*%
M02*
