M48
; DRILL file {KiCad (6.0.2)} date Thu Mar 17 20:21:47 2022
; FORMAT={-:-/ absolute / inch / decimal}
; #@! TF.CreationDate,2022-03-17T20:21:47-04:00
; #@! TF.GenerationSoftware,Kicad,Pcbnew,(6.0.2)
; #@! TF.FileFunction,Plated,1,4,PTH
FMAT,2
INCH
; #@! TA.AperFunction,Plated,PTH,ViaDrill
T1C0.0079
; #@! TA.AperFunction,Plated,PTH,ComponentDrill
T2C0.0354
; #@! TA.AperFunction,Plated,PTH,ComponentDrill
T3C0.0394
%
G90
G05
T1
X3.6722Y-4.1134
X3.6722Y-4.3709
X3.7146Y-4.2844
X3.7234Y-4.2175
X3.813Y-4.1585
X3.8169Y-4.4459
X3.8593Y-3.8238
X3.8612Y-3.249
X3.8612Y-3.6014
X3.8691Y-4.3031
X3.8701Y-4.4843
X3.8711Y-4.187
X3.872Y-4.0039
X3.9114Y-4.186
X3.9114Y-4.4843
X3.9124Y-4.3022
X3.9134Y-4.0039
X3.9144Y-3.4705
X4.0059Y-4.5689
X4.1398Y-4.0453
X4.1398Y-4.0955
X4.1398Y-4.3465
X4.1407Y-4.1467
X4.1407Y-4.3937
X4.2073Y-3.2159
X4.2093Y-3.3882
X4.2093Y-3.5604
X4.2152Y-3.7287
X4.2185Y-4.4843
X4.2195Y-4.0128
X4.2195Y-4.2028
X4.2195Y-4.312
X4.3809Y-3.4321
X4.3809Y-3.5187
X4.3819Y-3.6053
X4.3839Y-3.9724
X4.3848Y-3.689
X4.3848Y-3.7717
X4.4183Y-3.8888
X4.5482Y-4.0551
X4.622Y-3.4724
X4.75Y-3.876
X4.75Y-3.9136
X4.751Y-3.9545
X4.7528Y-3.6398
X4.7894Y-3.6878
X4.7894Y-3.7256
X4.7906Y-3.6398
X4.7943Y-4.1644
X4.7953Y-3.9935
X4.9128Y-3.9091
X4.9183Y-3.5827
X4.9183Y-3.75
X4.9191Y-3.4065
X4.9208Y-3.6915
X4.9242Y-3.6585
X4.925Y-4.1575
X4.9272Y-3.622
X4.9331Y-3.8159
X4.94Y-3.9596
X4.9547Y-3.7313
X4.9567Y-4.3957
X4.9569Y-3.4065
X4.9628Y-4.1575
X4.9902Y-3.6693
X5.0148Y-3.7835
X5.0285Y-4.0069
X5.0404Y-3.6043
X5.0561Y-3.9764
X5.0994Y-3.4075
X5.1004Y-3.7864
X5.128Y-3.7392
X5.1673Y-3.9114
X5.2087Y-3.5787
X5.2293Y-3.5453
X5.3939Y-4.1486
X5.4429Y-4.1051
X5.4917Y-3.503
X5.5374Y-3.553
X5.5531Y-3.8563
X5.624Y-3.6378
X5.6339Y-3.8051
X5.6344Y-3.7677
X5.6604Y-3.9006
X5.7244Y-3.7677
X5.812Y-3.5207
X5.812Y-3.6388
X5.813Y-3.7579
T3
X4.4921Y-4.5004
X4.4921Y-4.6004
X4.5921Y-4.5004
X4.5921Y-4.6004
X4.6921Y-4.5004
X4.6921Y-4.6004
X4.7274Y-3.1929
X4.7921Y-4.5004
X4.7921Y-4.6004
X4.8274Y-3.1929
X4.8921Y-4.5004
X4.8921Y-4.6004
X4.9274Y-3.1929
X4.9921Y-4.5004
X4.9921Y-4.6004
X5.0274Y-3.1929
X5.0921Y-4.5004
X5.0921Y-4.6004
X5.1274Y-3.1929
X5.1921Y-4.5004
X5.1921Y-4.6004
X5.2274Y-3.1929
X5.2921Y-4.5004
X5.2921Y-4.6004
X5.3274Y-3.1929
X5.3921Y-4.5004
X5.3921Y-4.6004
X5.4274Y-3.1929
X5.4921Y-4.5004
X5.4921Y-4.6004
X5.5274Y-3.1929
X5.5921Y-4.5004
X5.5921Y-4.6004
X5.6274Y-3.1929
X5.6921Y-4.5004
X5.6921Y-4.6004
X5.7921Y-4.5004
X5.7921Y-4.6004
X5.8921Y-4.5004
X5.8921Y-4.6004
T2
G00X5.8199Y-3.3868
M15
G01X5.8947Y-3.3868
M16
G05
G00X5.8199Y-3.8907
M15
G01X5.8947Y-3.8907
M16
G05
T0
M30
