%TF.GenerationSoftware,KiCad,Pcbnew,(6.0.2)*%
%TF.CreationDate,2022-03-17T20:21:47-04:00*%
%TF.ProjectId,sparkboxBreakout,73706172-6b62-46f7-9842-7265616b6f75,rev?*%
%TF.SameCoordinates,Original*%
%TF.FileFunction,Legend,Top*%
%TF.FilePolarity,Positive*%
%FSLAX46Y46*%
G04 Gerber Fmt 4.6, Leading zero omitted, Abs format (unit mm)*
G04 Created by KiCad (PCBNEW (6.0.2)) date 2022-03-17 20:21:47*
%MOMM*%
%LPD*%
G01*
G04 APERTURE LIST*
%ADD10C,0.150000*%
%ADD11C,0.120000*%
G04 APERTURE END LIST*
D10*
X142625000Y-84836904D02*
X142577380Y-84932142D01*
X142577380Y-85075000D01*
X142625000Y-85217857D01*
X142720238Y-85313095D01*
X142815476Y-85360714D01*
X143005952Y-85408333D01*
X143148809Y-85408333D01*
X143339285Y-85360714D01*
X143434523Y-85313095D01*
X143529761Y-85217857D01*
X143577380Y-85075000D01*
X143577380Y-84979761D01*
X143529761Y-84836904D01*
X143482142Y-84789285D01*
X143148809Y-84789285D01*
X143148809Y-84979761D01*
X143577380Y-84360714D02*
X142577380Y-84360714D01*
X143577380Y-83789285D01*
X142577380Y-83789285D01*
X143577380Y-83313095D02*
X142577380Y-83313095D01*
X142577380Y-83075000D01*
X142625000Y-82932142D01*
X142720238Y-82836904D01*
X142815476Y-82789285D01*
X143005952Y-82741666D01*
X143148809Y-82741666D01*
X143339285Y-82789285D01*
X143434523Y-82836904D01*
X143529761Y-82932142D01*
X143577380Y-83075000D01*
X143577380Y-83313095D01*
X139977380Y-85288095D02*
X139977380Y-84669047D01*
X140358333Y-85002380D01*
X140358333Y-84859523D01*
X140405952Y-84764285D01*
X140453571Y-84716666D01*
X140548809Y-84669047D01*
X140786904Y-84669047D01*
X140882142Y-84716666D01*
X140929761Y-84764285D01*
X140977380Y-84859523D01*
X140977380Y-85145238D01*
X140929761Y-85240476D01*
X140882142Y-85288095D01*
X139977380Y-84383333D02*
X140977380Y-84050000D01*
X139977380Y-83716666D01*
X139977380Y-83478571D02*
X139977380Y-82859523D01*
X140358333Y-83192857D01*
X140358333Y-83050000D01*
X140405952Y-82954761D01*
X140453571Y-82907142D01*
X140548809Y-82859523D01*
X140786904Y-82859523D01*
X140882142Y-82907142D01*
X140929761Y-82954761D01*
X140977380Y-83050000D01*
X140977380Y-83335714D01*
X140929761Y-83430952D01*
X140882142Y-83478571D01*
X138504761Y-86919047D02*
X138552380Y-86776190D01*
X138552380Y-86538095D01*
X138504761Y-86442857D01*
X138457142Y-86395238D01*
X138361904Y-86347619D01*
X138266666Y-86347619D01*
X138171428Y-86395238D01*
X138123809Y-86442857D01*
X138076190Y-86538095D01*
X138028571Y-86728571D01*
X137980952Y-86823809D01*
X137933333Y-86871428D01*
X137838095Y-86919047D01*
X137742857Y-86919047D01*
X137647619Y-86871428D01*
X137600000Y-86823809D01*
X137552380Y-86728571D01*
X137552380Y-86490476D01*
X137600000Y-86347619D01*
X137552380Y-86014285D02*
X138552380Y-85776190D01*
X137838095Y-85585714D01*
X138552380Y-85395238D01*
X137552380Y-85157142D01*
X138552380Y-84776190D02*
X137552380Y-84776190D01*
X137552380Y-84538095D01*
X137600000Y-84395238D01*
X137695238Y-84300000D01*
X137790476Y-84252380D01*
X137980952Y-84204761D01*
X138123809Y-84204761D01*
X138314285Y-84252380D01*
X138409523Y-84300000D01*
X138504761Y-84395238D01*
X138552380Y-84538095D01*
X138552380Y-84776190D01*
X138552380Y-83776190D02*
X137552380Y-83776190D01*
X137552380Y-83109523D02*
X137552380Y-82919047D01*
X137600000Y-82823809D01*
X137695238Y-82728571D01*
X137885714Y-82680952D01*
X138219047Y-82680952D01*
X138409523Y-82728571D01*
X138504761Y-82823809D01*
X138552380Y-82919047D01*
X138552380Y-83109523D01*
X138504761Y-83204761D01*
X138409523Y-83300000D01*
X138219047Y-83347619D01*
X137885714Y-83347619D01*
X137695238Y-83300000D01*
X137600000Y-83204761D01*
X137552380Y-83109523D01*
X135854761Y-87136904D02*
X135902380Y-86994047D01*
X135902380Y-86755952D01*
X135854761Y-86660714D01*
X135807142Y-86613095D01*
X135711904Y-86565476D01*
X135616666Y-86565476D01*
X135521428Y-86613095D01*
X135473809Y-86660714D01*
X135426190Y-86755952D01*
X135378571Y-86946428D01*
X135330952Y-87041666D01*
X135283333Y-87089285D01*
X135188095Y-87136904D01*
X135092857Y-87136904D01*
X134997619Y-87089285D01*
X134950000Y-87041666D01*
X134902380Y-86946428D01*
X134902380Y-86708333D01*
X134950000Y-86565476D01*
X134902380Y-86232142D02*
X135902380Y-85994047D01*
X135188095Y-85803571D01*
X135902380Y-85613095D01*
X134902380Y-85375000D01*
X135807142Y-84422619D02*
X135854761Y-84470238D01*
X135902380Y-84613095D01*
X135902380Y-84708333D01*
X135854761Y-84851190D01*
X135759523Y-84946428D01*
X135664285Y-84994047D01*
X135473809Y-85041666D01*
X135330952Y-85041666D01*
X135140476Y-84994047D01*
X135045238Y-84946428D01*
X134950000Y-84851190D01*
X134902380Y-84708333D01*
X134902380Y-84613095D01*
X134950000Y-84470238D01*
X134997619Y-84422619D01*
X135902380Y-83517857D02*
X135902380Y-83994047D01*
X134902380Y-83994047D01*
X135902380Y-83184523D02*
X134902380Y-83184523D01*
X135902380Y-82613095D02*
X135330952Y-83041666D01*
X134902380Y-82613095D02*
X135473809Y-83184523D01*
X133229761Y-85240476D02*
X133277380Y-85097619D01*
X133277380Y-84859523D01*
X133229761Y-84764285D01*
X133182142Y-84716666D01*
X133086904Y-84669047D01*
X132991666Y-84669047D01*
X132896428Y-84716666D01*
X132848809Y-84764285D01*
X132801190Y-84859523D01*
X132753571Y-85050000D01*
X132705952Y-85145238D01*
X132658333Y-85192857D01*
X132563095Y-85240476D01*
X132467857Y-85240476D01*
X132372619Y-85192857D01*
X132325000Y-85145238D01*
X132277380Y-85050000D01*
X132277380Y-84811904D01*
X132325000Y-84669047D01*
X133182142Y-83669047D02*
X133229761Y-83716666D01*
X133277380Y-83859523D01*
X133277380Y-83954761D01*
X133229761Y-84097619D01*
X133134523Y-84192857D01*
X133039285Y-84240476D01*
X132848809Y-84288095D01*
X132705952Y-84288095D01*
X132515476Y-84240476D01*
X132420238Y-84192857D01*
X132325000Y-84097619D01*
X132277380Y-83954761D01*
X132277380Y-83859523D01*
X132325000Y-83716666D01*
X132372619Y-83669047D01*
X133277380Y-82764285D02*
X133277380Y-83240476D01*
X132277380Y-83240476D01*
X130754761Y-85239285D02*
X130802380Y-85096428D01*
X130802380Y-84858333D01*
X130754761Y-84763095D01*
X130707142Y-84715476D01*
X130611904Y-84667857D01*
X130516666Y-84667857D01*
X130421428Y-84715476D01*
X130373809Y-84763095D01*
X130326190Y-84858333D01*
X130278571Y-85048809D01*
X130230952Y-85144047D01*
X130183333Y-85191666D01*
X130088095Y-85239285D01*
X129992857Y-85239285D01*
X129897619Y-85191666D01*
X129850000Y-85144047D01*
X129802380Y-85048809D01*
X129802380Y-84810714D01*
X129850000Y-84667857D01*
X130802380Y-84239285D02*
X129802380Y-84239285D01*
X129802380Y-84001190D01*
X129850000Y-83858333D01*
X129945238Y-83763095D01*
X130040476Y-83715476D01*
X130230952Y-83667857D01*
X130373809Y-83667857D01*
X130564285Y-83715476D01*
X130659523Y-83763095D01*
X130754761Y-83858333D01*
X130802380Y-84001190D01*
X130802380Y-84239285D01*
X130516666Y-83286904D02*
X130516666Y-82810714D01*
X130802380Y-83382142D02*
X129802380Y-83048809D01*
X130802380Y-82715476D01*
X127377380Y-83715476D02*
X127377380Y-84191666D01*
X127853571Y-84239285D01*
X127805952Y-84191666D01*
X127758333Y-84096428D01*
X127758333Y-83858333D01*
X127805952Y-83763095D01*
X127853571Y-83715476D01*
X127948809Y-83667857D01*
X128186904Y-83667857D01*
X128282142Y-83715476D01*
X128329761Y-83763095D01*
X128377380Y-83858333D01*
X128377380Y-84096428D01*
X128329761Y-84191666D01*
X128282142Y-84239285D01*
X127377380Y-83382142D02*
X128377380Y-83048809D01*
X127377380Y-82715476D01*
X126002380Y-85966666D02*
X125002380Y-85966666D01*
X125002380Y-85728571D01*
X125050000Y-85585714D01*
X125145238Y-85490476D01*
X125240476Y-85442857D01*
X125430952Y-85395238D01*
X125573809Y-85395238D01*
X125764285Y-85442857D01*
X125859523Y-85490476D01*
X125954761Y-85585714D01*
X126002380Y-85728571D01*
X126002380Y-85966666D01*
X125716666Y-85014285D02*
X125716666Y-84538095D01*
X126002380Y-85109523D02*
X125002380Y-84776190D01*
X126002380Y-84442857D01*
X125907142Y-83538095D02*
X125954761Y-83585714D01*
X126002380Y-83728571D01*
X126002380Y-83823809D01*
X125954761Y-83966666D01*
X125859523Y-84061904D01*
X125764285Y-84109523D01*
X125573809Y-84157142D01*
X125430952Y-84157142D01*
X125240476Y-84109523D01*
X125145238Y-84061904D01*
X125050000Y-83966666D01*
X125002380Y-83823809D01*
X125002380Y-83728571D01*
X125050000Y-83585714D01*
X125097619Y-83538095D01*
X125097619Y-83157142D02*
X125050000Y-83109523D01*
X125002380Y-83014285D01*
X125002380Y-82776190D01*
X125050000Y-82680952D01*
X125097619Y-82633333D01*
X125192857Y-82585714D01*
X125288095Y-82585714D01*
X125430952Y-82633333D01*
X126002380Y-83204761D01*
X126002380Y-82585714D01*
X123102380Y-86066666D02*
X122102380Y-86066666D01*
X122102380Y-85828571D01*
X122150000Y-85685714D01*
X122245238Y-85590476D01*
X122340476Y-85542857D01*
X122530952Y-85495238D01*
X122673809Y-85495238D01*
X122864285Y-85542857D01*
X122959523Y-85590476D01*
X123054761Y-85685714D01*
X123102380Y-85828571D01*
X123102380Y-86066666D01*
X122816666Y-85114285D02*
X122816666Y-84638095D01*
X123102380Y-85209523D02*
X122102380Y-84876190D01*
X123102380Y-84542857D01*
X123007142Y-83638095D02*
X123054761Y-83685714D01*
X123102380Y-83828571D01*
X123102380Y-83923809D01*
X123054761Y-84066666D01*
X122959523Y-84161904D01*
X122864285Y-84209523D01*
X122673809Y-84257142D01*
X122530952Y-84257142D01*
X122340476Y-84209523D01*
X122245238Y-84161904D01*
X122150000Y-84066666D01*
X122102380Y-83923809D01*
X122102380Y-83828571D01*
X122150000Y-83685714D01*
X122197619Y-83638095D01*
X123102380Y-82685714D02*
X123102380Y-83257142D01*
X123102380Y-82971428D02*
X122102380Y-82971428D01*
X122245238Y-83066666D01*
X122340476Y-83161904D01*
X122388095Y-83257142D01*
X119627380Y-86091666D02*
X119627380Y-85472619D01*
X120008333Y-85805952D01*
X120008333Y-85663095D01*
X120055952Y-85567857D01*
X120103571Y-85520238D01*
X120198809Y-85472619D01*
X120436904Y-85472619D01*
X120532142Y-85520238D01*
X120579761Y-85567857D01*
X120627380Y-85663095D01*
X120627380Y-85948809D01*
X120579761Y-86044047D01*
X120532142Y-86091666D01*
X119627380Y-85186904D02*
X120627380Y-84853571D01*
X119627380Y-84520238D01*
X119627380Y-84282142D02*
X119627380Y-83663095D01*
X120008333Y-83996428D01*
X120008333Y-83853571D01*
X120055952Y-83758333D01*
X120103571Y-83710714D01*
X120198809Y-83663095D01*
X120436904Y-83663095D01*
X120532142Y-83710714D01*
X120579761Y-83758333D01*
X120627380Y-83853571D01*
X120627380Y-84139285D01*
X120579761Y-84234523D01*
X120532142Y-84282142D01*
X120341666Y-83282142D02*
X120341666Y-82805952D01*
X120627380Y-83377380D02*
X119627380Y-83044047D01*
X120627380Y-82710714D01*
X96485714Y-97777380D02*
X96485714Y-98586904D01*
X96533333Y-98682142D01*
X96580952Y-98729761D01*
X96676190Y-98777380D01*
X96866666Y-98777380D01*
X96961904Y-98729761D01*
X97009523Y-98682142D01*
X97057142Y-98586904D01*
X97057142Y-97777380D01*
X97485714Y-98729761D02*
X97628571Y-98777380D01*
X97866666Y-98777380D01*
X97961904Y-98729761D01*
X98009523Y-98682142D01*
X98057142Y-98586904D01*
X98057142Y-98491666D01*
X98009523Y-98396428D01*
X97961904Y-98348809D01*
X97866666Y-98301190D01*
X97676190Y-98253571D01*
X97580952Y-98205952D01*
X97533333Y-98158333D01*
X97485714Y-98063095D01*
X97485714Y-97967857D01*
X97533333Y-97872619D01*
X97580952Y-97825000D01*
X97676190Y-97777380D01*
X97914285Y-97777380D01*
X98057142Y-97825000D01*
X98485714Y-98253571D02*
X98819047Y-98253571D01*
X98961904Y-98777380D02*
X98485714Y-98777380D01*
X98485714Y-97777380D01*
X98961904Y-97777380D01*
X99961904Y-98777380D02*
X99628571Y-98301190D01*
X99390476Y-98777380D02*
X99390476Y-97777380D01*
X99771428Y-97777380D01*
X99866666Y-97825000D01*
X99914285Y-97872619D01*
X99961904Y-97967857D01*
X99961904Y-98110714D01*
X99914285Y-98205952D01*
X99866666Y-98253571D01*
X99771428Y-98301190D01*
X99390476Y-98301190D01*
X96447619Y-81652380D02*
X96114285Y-81176190D01*
X95876190Y-81652380D02*
X95876190Y-80652380D01*
X96257142Y-80652380D01*
X96352380Y-80700000D01*
X96400000Y-80747619D01*
X96447619Y-80842857D01*
X96447619Y-80985714D01*
X96400000Y-81080952D01*
X96352380Y-81128571D01*
X96257142Y-81176190D01*
X95876190Y-81176190D01*
X96876190Y-81128571D02*
X97209523Y-81128571D01*
X97352380Y-81652380D02*
X96876190Y-81652380D01*
X96876190Y-80652380D01*
X97352380Y-80652380D01*
X97733333Y-81604761D02*
X97876190Y-81652380D01*
X98114285Y-81652380D01*
X98209523Y-81604761D01*
X98257142Y-81557142D01*
X98304761Y-81461904D01*
X98304761Y-81366666D01*
X98257142Y-81271428D01*
X98209523Y-81223809D01*
X98114285Y-81176190D01*
X97923809Y-81128571D01*
X97828571Y-81080952D01*
X97780952Y-81033333D01*
X97733333Y-80938095D01*
X97733333Y-80842857D01*
X97780952Y-80747619D01*
X97828571Y-80700000D01*
X97923809Y-80652380D01*
X98161904Y-80652380D01*
X98304761Y-80700000D01*
X98733333Y-81128571D02*
X99066666Y-81128571D01*
X99209523Y-81652380D02*
X98733333Y-81652380D01*
X98733333Y-80652380D01*
X99209523Y-80652380D01*
X99495238Y-80652380D02*
X100066666Y-80652380D01*
X99780952Y-81652380D02*
X99780952Y-80652380D01*
%TO.C,*%
%TO.C,Y1*%
X113076190Y-100751190D02*
X113552380Y-100751190D01*
X112552380Y-101084523D02*
X113076190Y-100751190D01*
X112552380Y-100417857D01*
X113552380Y-99560714D02*
X113552380Y-100132142D01*
X113552380Y-99846428D02*
X112552380Y-99846428D01*
X112695238Y-99941666D01*
X112790476Y-100036904D01*
X112838095Y-100132142D01*
%TO.C,U5*%
X106702380Y-111911904D02*
X107511904Y-111911904D01*
X107607142Y-111864285D01*
X107654761Y-111816666D01*
X107702380Y-111721428D01*
X107702380Y-111530952D01*
X107654761Y-111435714D01*
X107607142Y-111388095D01*
X107511904Y-111340476D01*
X106702380Y-111340476D01*
X106702380Y-110388095D02*
X106702380Y-110864285D01*
X107178571Y-110911904D01*
X107130952Y-110864285D01*
X107083333Y-110769047D01*
X107083333Y-110530952D01*
X107130952Y-110435714D01*
X107178571Y-110388095D01*
X107273809Y-110340476D01*
X107511904Y-110340476D01*
X107607142Y-110388095D01*
X107654761Y-110435714D01*
X107702380Y-110530952D01*
X107702380Y-110769047D01*
X107654761Y-110864285D01*
X107607142Y-110911904D01*
%TO.C,U4*%
X143213095Y-89452380D02*
X143213095Y-90261904D01*
X143260714Y-90357142D01*
X143308333Y-90404761D01*
X143403571Y-90452380D01*
X143594047Y-90452380D01*
X143689285Y-90404761D01*
X143736904Y-90357142D01*
X143784523Y-90261904D01*
X143784523Y-89452380D01*
X144689285Y-89785714D02*
X144689285Y-90452380D01*
X144451190Y-89404761D02*
X144213095Y-90119047D01*
X144832142Y-90119047D01*
%TO.C,U3*%
X140927380Y-97486904D02*
X141736904Y-97486904D01*
X141832142Y-97439285D01*
X141879761Y-97391666D01*
X141927380Y-97296428D01*
X141927380Y-97105952D01*
X141879761Y-97010714D01*
X141832142Y-96963095D01*
X141736904Y-96915476D01*
X140927380Y-96915476D01*
X140927380Y-96534523D02*
X140927380Y-95915476D01*
X141308333Y-96248809D01*
X141308333Y-96105952D01*
X141355952Y-96010714D01*
X141403571Y-95963095D01*
X141498809Y-95915476D01*
X141736904Y-95915476D01*
X141832142Y-95963095D01*
X141879761Y-96010714D01*
X141927380Y-96105952D01*
X141927380Y-96391666D01*
X141879761Y-96486904D01*
X141832142Y-96534523D01*
%TO.C,U2*%
X106802380Y-104686904D02*
X107611904Y-104686904D01*
X107707142Y-104639285D01*
X107754761Y-104591666D01*
X107802380Y-104496428D01*
X107802380Y-104305952D01*
X107754761Y-104210714D01*
X107707142Y-104163095D01*
X107611904Y-104115476D01*
X106802380Y-104115476D01*
X106897619Y-103686904D02*
X106850000Y-103639285D01*
X106802380Y-103544047D01*
X106802380Y-103305952D01*
X106850000Y-103210714D01*
X106897619Y-103163095D01*
X106992857Y-103115476D01*
X107088095Y-103115476D01*
X107230952Y-103163095D01*
X107802380Y-103734523D01*
X107802380Y-103115476D01*
%TO.C,U1*%
X130488095Y-105202380D02*
X130488095Y-106011904D01*
X130535714Y-106107142D01*
X130583333Y-106154761D01*
X130678571Y-106202380D01*
X130869047Y-106202380D01*
X130964285Y-106154761D01*
X131011904Y-106107142D01*
X131059523Y-106011904D01*
X131059523Y-105202380D01*
X132059523Y-106202380D02*
X131488095Y-106202380D01*
X131773809Y-106202380D02*
X131773809Y-105202380D01*
X131678571Y-105345238D01*
X131583333Y-105440476D01*
X131488095Y-105488095D01*
%TO.C,SW2*%
X94329761Y-96208333D02*
X94377380Y-96065476D01*
X94377380Y-95827380D01*
X94329761Y-95732142D01*
X94282142Y-95684523D01*
X94186904Y-95636904D01*
X94091666Y-95636904D01*
X93996428Y-95684523D01*
X93948809Y-95732142D01*
X93901190Y-95827380D01*
X93853571Y-96017857D01*
X93805952Y-96113095D01*
X93758333Y-96160714D01*
X93663095Y-96208333D01*
X93567857Y-96208333D01*
X93472619Y-96160714D01*
X93425000Y-96113095D01*
X93377380Y-96017857D01*
X93377380Y-95779761D01*
X93425000Y-95636904D01*
X93377380Y-95303571D02*
X94377380Y-95065476D01*
X93663095Y-94875000D01*
X94377380Y-94684523D01*
X93377380Y-94446428D01*
X93472619Y-94113095D02*
X93425000Y-94065476D01*
X93377380Y-93970238D01*
X93377380Y-93732142D01*
X93425000Y-93636904D01*
X93472619Y-93589285D01*
X93567857Y-93541666D01*
X93663095Y-93541666D01*
X93805952Y-93589285D01*
X94377380Y-94160714D01*
X94377380Y-93541666D01*
%TO.C,SW1*%
X94054761Y-86083333D02*
X94102380Y-85940476D01*
X94102380Y-85702380D01*
X94054761Y-85607142D01*
X94007142Y-85559523D01*
X93911904Y-85511904D01*
X93816666Y-85511904D01*
X93721428Y-85559523D01*
X93673809Y-85607142D01*
X93626190Y-85702380D01*
X93578571Y-85892857D01*
X93530952Y-85988095D01*
X93483333Y-86035714D01*
X93388095Y-86083333D01*
X93292857Y-86083333D01*
X93197619Y-86035714D01*
X93150000Y-85988095D01*
X93102380Y-85892857D01*
X93102380Y-85654761D01*
X93150000Y-85511904D01*
X93102380Y-85178571D02*
X94102380Y-84940476D01*
X93388095Y-84750000D01*
X94102380Y-84559523D01*
X93102380Y-84321428D01*
X94102380Y-83416666D02*
X94102380Y-83988095D01*
X94102380Y-83702380D02*
X93102380Y-83702380D01*
X93245238Y-83797619D01*
X93340476Y-83892857D01*
X93388095Y-83988095D01*
%TO.C,R14*%
X99117142Y-90627380D02*
X98783809Y-90151190D01*
X98545714Y-90627380D02*
X98545714Y-89627380D01*
X98926666Y-89627380D01*
X99021904Y-89675000D01*
X99069523Y-89722619D01*
X99117142Y-89817857D01*
X99117142Y-89960714D01*
X99069523Y-90055952D01*
X99021904Y-90103571D01*
X98926666Y-90151190D01*
X98545714Y-90151190D01*
X100069523Y-90627380D02*
X99498095Y-90627380D01*
X99783809Y-90627380D02*
X99783809Y-89627380D01*
X99688571Y-89770238D01*
X99593333Y-89865476D01*
X99498095Y-89913095D01*
X100926666Y-89960714D02*
X100926666Y-90627380D01*
X100688571Y-89579761D02*
X100450476Y-90294047D01*
X101069523Y-90294047D01*
%TO.C,R13*%
X142232142Y-100852380D02*
X141898809Y-100376190D01*
X141660714Y-100852380D02*
X141660714Y-99852380D01*
X142041666Y-99852380D01*
X142136904Y-99900000D01*
X142184523Y-99947619D01*
X142232142Y-100042857D01*
X142232142Y-100185714D01*
X142184523Y-100280952D01*
X142136904Y-100328571D01*
X142041666Y-100376190D01*
X141660714Y-100376190D01*
X143184523Y-100852380D02*
X142613095Y-100852380D01*
X142898809Y-100852380D02*
X142898809Y-99852380D01*
X142803571Y-99995238D01*
X142708333Y-100090476D01*
X142613095Y-100138095D01*
X143517857Y-99852380D02*
X144136904Y-99852380D01*
X143803571Y-100233333D01*
X143946428Y-100233333D01*
X144041666Y-100280952D01*
X144089285Y-100328571D01*
X144136904Y-100423809D01*
X144136904Y-100661904D01*
X144089285Y-100757142D01*
X144041666Y-100804761D01*
X143946428Y-100852380D01*
X143660714Y-100852380D01*
X143565476Y-100804761D01*
X143517857Y-100757142D01*
%TO.C,R12*%
X145107142Y-100852380D02*
X144773809Y-100376190D01*
X144535714Y-100852380D02*
X144535714Y-99852380D01*
X144916666Y-99852380D01*
X145011904Y-99900000D01*
X145059523Y-99947619D01*
X145107142Y-100042857D01*
X145107142Y-100185714D01*
X145059523Y-100280952D01*
X145011904Y-100328571D01*
X144916666Y-100376190D01*
X144535714Y-100376190D01*
X146059523Y-100852380D02*
X145488095Y-100852380D01*
X145773809Y-100852380D02*
X145773809Y-99852380D01*
X145678571Y-99995238D01*
X145583333Y-100090476D01*
X145488095Y-100138095D01*
X146440476Y-99947619D02*
X146488095Y-99900000D01*
X146583333Y-99852380D01*
X146821428Y-99852380D01*
X146916666Y-99900000D01*
X146964285Y-99947619D01*
X147011904Y-100042857D01*
X147011904Y-100138095D01*
X146964285Y-100280952D01*
X146392857Y-100852380D01*
X147011904Y-100852380D01*
%TO.C,R11*%
X130857142Y-87002380D02*
X130523809Y-86526190D01*
X130285714Y-87002380D02*
X130285714Y-86002380D01*
X130666666Y-86002380D01*
X130761904Y-86050000D01*
X130809523Y-86097619D01*
X130857142Y-86192857D01*
X130857142Y-86335714D01*
X130809523Y-86430952D01*
X130761904Y-86478571D01*
X130666666Y-86526190D01*
X130285714Y-86526190D01*
X131809523Y-87002380D02*
X131238095Y-87002380D01*
X131523809Y-87002380D02*
X131523809Y-86002380D01*
X131428571Y-86145238D01*
X131333333Y-86240476D01*
X131238095Y-86288095D01*
X132761904Y-87002380D02*
X132190476Y-87002380D01*
X132476190Y-87002380D02*
X132476190Y-86002380D01*
X132380952Y-86145238D01*
X132285714Y-86240476D01*
X132190476Y-86288095D01*
%TO.C,R10*%
X104407142Y-96327380D02*
X104073809Y-95851190D01*
X103835714Y-96327380D02*
X103835714Y-95327380D01*
X104216666Y-95327380D01*
X104311904Y-95375000D01*
X104359523Y-95422619D01*
X104407142Y-95517857D01*
X104407142Y-95660714D01*
X104359523Y-95755952D01*
X104311904Y-95803571D01*
X104216666Y-95851190D01*
X103835714Y-95851190D01*
X105359523Y-96327380D02*
X104788095Y-96327380D01*
X105073809Y-96327380D02*
X105073809Y-95327380D01*
X104978571Y-95470238D01*
X104883333Y-95565476D01*
X104788095Y-95613095D01*
X105978571Y-95327380D02*
X106073809Y-95327380D01*
X106169047Y-95375000D01*
X106216666Y-95422619D01*
X106264285Y-95517857D01*
X106311904Y-95708333D01*
X106311904Y-95946428D01*
X106264285Y-96136904D01*
X106216666Y-96232142D01*
X106169047Y-96279761D01*
X106073809Y-96327380D01*
X105978571Y-96327380D01*
X105883333Y-96279761D01*
X105835714Y-96232142D01*
X105788095Y-96136904D01*
X105740476Y-95946428D01*
X105740476Y-95708333D01*
X105788095Y-95517857D01*
X105835714Y-95422619D01*
X105883333Y-95375000D01*
X105978571Y-95327380D01*
%TO.C,R9*%
X105308333Y-94152380D02*
X104975000Y-93676190D01*
X104736904Y-94152380D02*
X104736904Y-93152380D01*
X105117857Y-93152380D01*
X105213095Y-93200000D01*
X105260714Y-93247619D01*
X105308333Y-93342857D01*
X105308333Y-93485714D01*
X105260714Y-93580952D01*
X105213095Y-93628571D01*
X105117857Y-93676190D01*
X104736904Y-93676190D01*
X105784523Y-94152380D02*
X105975000Y-94152380D01*
X106070238Y-94104761D01*
X106117857Y-94057142D01*
X106213095Y-93914285D01*
X106260714Y-93723809D01*
X106260714Y-93342857D01*
X106213095Y-93247619D01*
X106165476Y-93200000D01*
X106070238Y-93152380D01*
X105879761Y-93152380D01*
X105784523Y-93200000D01*
X105736904Y-93247619D01*
X105689285Y-93342857D01*
X105689285Y-93580952D01*
X105736904Y-93676190D01*
X105784523Y-93723809D01*
X105879761Y-93771428D01*
X106070238Y-93771428D01*
X106165476Y-93723809D01*
X106213095Y-93676190D01*
X106260714Y-93580952D01*
%TO.C,R8*%
X105283333Y-92002380D02*
X104950000Y-91526190D01*
X104711904Y-92002380D02*
X104711904Y-91002380D01*
X105092857Y-91002380D01*
X105188095Y-91050000D01*
X105235714Y-91097619D01*
X105283333Y-91192857D01*
X105283333Y-91335714D01*
X105235714Y-91430952D01*
X105188095Y-91478571D01*
X105092857Y-91526190D01*
X104711904Y-91526190D01*
X105854761Y-91430952D02*
X105759523Y-91383333D01*
X105711904Y-91335714D01*
X105664285Y-91240476D01*
X105664285Y-91192857D01*
X105711904Y-91097619D01*
X105759523Y-91050000D01*
X105854761Y-91002380D01*
X106045238Y-91002380D01*
X106140476Y-91050000D01*
X106188095Y-91097619D01*
X106235714Y-91192857D01*
X106235714Y-91240476D01*
X106188095Y-91335714D01*
X106140476Y-91383333D01*
X106045238Y-91430952D01*
X105854761Y-91430952D01*
X105759523Y-91478571D01*
X105711904Y-91526190D01*
X105664285Y-91621428D01*
X105664285Y-91811904D01*
X105711904Y-91907142D01*
X105759523Y-91954761D01*
X105854761Y-92002380D01*
X106045238Y-92002380D01*
X106140476Y-91954761D01*
X106188095Y-91907142D01*
X106235714Y-91811904D01*
X106235714Y-91621428D01*
X106188095Y-91526190D01*
X106140476Y-91478571D01*
X106045238Y-91430952D01*
%TO.C,R7*%
X105333333Y-89827380D02*
X105000000Y-89351190D01*
X104761904Y-89827380D02*
X104761904Y-88827380D01*
X105142857Y-88827380D01*
X105238095Y-88875000D01*
X105285714Y-88922619D01*
X105333333Y-89017857D01*
X105333333Y-89160714D01*
X105285714Y-89255952D01*
X105238095Y-89303571D01*
X105142857Y-89351190D01*
X104761904Y-89351190D01*
X105666666Y-88827380D02*
X106333333Y-88827380D01*
X105904761Y-89827380D01*
%TO.C,R6*%
X105308333Y-87602380D02*
X104975000Y-87126190D01*
X104736904Y-87602380D02*
X104736904Y-86602380D01*
X105117857Y-86602380D01*
X105213095Y-86650000D01*
X105260714Y-86697619D01*
X105308333Y-86792857D01*
X105308333Y-86935714D01*
X105260714Y-87030952D01*
X105213095Y-87078571D01*
X105117857Y-87126190D01*
X104736904Y-87126190D01*
X106165476Y-86602380D02*
X105975000Y-86602380D01*
X105879761Y-86650000D01*
X105832142Y-86697619D01*
X105736904Y-86840476D01*
X105689285Y-87030952D01*
X105689285Y-87411904D01*
X105736904Y-87507142D01*
X105784523Y-87554761D01*
X105879761Y-87602380D01*
X106070238Y-87602380D01*
X106165476Y-87554761D01*
X106213095Y-87507142D01*
X106260714Y-87411904D01*
X106260714Y-87173809D01*
X106213095Y-87078571D01*
X106165476Y-87030952D01*
X106070238Y-86983333D01*
X105879761Y-86983333D01*
X105784523Y-87030952D01*
X105736904Y-87078571D01*
X105689285Y-87173809D01*
%TO.C,R5*%
X105233333Y-85452380D02*
X104900000Y-84976190D01*
X104661904Y-85452380D02*
X104661904Y-84452380D01*
X105042857Y-84452380D01*
X105138095Y-84500000D01*
X105185714Y-84547619D01*
X105233333Y-84642857D01*
X105233333Y-84785714D01*
X105185714Y-84880952D01*
X105138095Y-84928571D01*
X105042857Y-84976190D01*
X104661904Y-84976190D01*
X106138095Y-84452380D02*
X105661904Y-84452380D01*
X105614285Y-84928571D01*
X105661904Y-84880952D01*
X105757142Y-84833333D01*
X105995238Y-84833333D01*
X106090476Y-84880952D01*
X106138095Y-84928571D01*
X106185714Y-85023809D01*
X106185714Y-85261904D01*
X106138095Y-85357142D01*
X106090476Y-85404761D01*
X105995238Y-85452380D01*
X105757142Y-85452380D01*
X105661904Y-85404761D01*
X105614285Y-85357142D01*
%TO.C,R4*%
X105183333Y-83252380D02*
X104850000Y-82776190D01*
X104611904Y-83252380D02*
X104611904Y-82252380D01*
X104992857Y-82252380D01*
X105088095Y-82300000D01*
X105135714Y-82347619D01*
X105183333Y-82442857D01*
X105183333Y-82585714D01*
X105135714Y-82680952D01*
X105088095Y-82728571D01*
X104992857Y-82776190D01*
X104611904Y-82776190D01*
X106040476Y-82585714D02*
X106040476Y-83252380D01*
X105802380Y-82204761D02*
X105564285Y-82919047D01*
X106183333Y-82919047D01*
%TO.C,R3*%
X105233333Y-81177380D02*
X104900000Y-80701190D01*
X104661904Y-81177380D02*
X104661904Y-80177380D01*
X105042857Y-80177380D01*
X105138095Y-80225000D01*
X105185714Y-80272619D01*
X105233333Y-80367857D01*
X105233333Y-80510714D01*
X105185714Y-80605952D01*
X105138095Y-80653571D01*
X105042857Y-80701190D01*
X104661904Y-80701190D01*
X105566666Y-80177380D02*
X106185714Y-80177380D01*
X105852380Y-80558333D01*
X105995238Y-80558333D01*
X106090476Y-80605952D01*
X106138095Y-80653571D01*
X106185714Y-80748809D01*
X106185714Y-80986904D01*
X106138095Y-81082142D01*
X106090476Y-81129761D01*
X105995238Y-81177380D01*
X105709523Y-81177380D01*
X105614285Y-81129761D01*
X105566666Y-81082142D01*
%TO.C,R2*%
X100008333Y-116527380D02*
X99675000Y-116051190D01*
X99436904Y-116527380D02*
X99436904Y-115527380D01*
X99817857Y-115527380D01*
X99913095Y-115575000D01*
X99960714Y-115622619D01*
X100008333Y-115717857D01*
X100008333Y-115860714D01*
X99960714Y-115955952D01*
X99913095Y-116003571D01*
X99817857Y-116051190D01*
X99436904Y-116051190D01*
X100389285Y-115622619D02*
X100436904Y-115575000D01*
X100532142Y-115527380D01*
X100770238Y-115527380D01*
X100865476Y-115575000D01*
X100913095Y-115622619D01*
X100960714Y-115717857D01*
X100960714Y-115813095D01*
X100913095Y-115955952D01*
X100341666Y-116527380D01*
X100960714Y-116527380D01*
%TO.C,R1*%
X100133333Y-99977380D02*
X99800000Y-99501190D01*
X99561904Y-99977380D02*
X99561904Y-98977380D01*
X99942857Y-98977380D01*
X100038095Y-99025000D01*
X100085714Y-99072619D01*
X100133333Y-99167857D01*
X100133333Y-99310714D01*
X100085714Y-99405952D01*
X100038095Y-99453571D01*
X99942857Y-99501190D01*
X99561904Y-99501190D01*
X101085714Y-99977380D02*
X100514285Y-99977380D01*
X100800000Y-99977380D02*
X100800000Y-98977380D01*
X100704761Y-99120238D01*
X100609523Y-99215476D01*
X100514285Y-99263095D01*
%TO.C,J4*%
X111222380Y-115913333D02*
X111936666Y-115913333D01*
X112079523Y-115960952D01*
X112174761Y-116056190D01*
X112222380Y-116199047D01*
X112222380Y-116294285D01*
X111555714Y-115008571D02*
X112222380Y-115008571D01*
X111174761Y-115246666D02*
X111889047Y-115484761D01*
X111889047Y-114865714D01*
%TO.C,J3*%
X117197380Y-81433333D02*
X117911666Y-81433333D01*
X118054523Y-81480952D01*
X118149761Y-81576190D01*
X118197380Y-81719047D01*
X118197380Y-81814285D01*
X117197380Y-81052380D02*
X117197380Y-80433333D01*
X117578333Y-80766666D01*
X117578333Y-80623809D01*
X117625952Y-80528571D01*
X117673571Y-80480952D01*
X117768809Y-80433333D01*
X118006904Y-80433333D01*
X118102142Y-80480952D01*
X118149761Y-80528571D01*
X118197380Y-80623809D01*
X118197380Y-80909523D01*
X118149761Y-81004761D01*
X118102142Y-81052380D01*
%TO.C,J2*%
X153491666Y-84677380D02*
X153491666Y-85391666D01*
X153444047Y-85534523D01*
X153348809Y-85629761D01*
X153205952Y-85677380D01*
X153110714Y-85677380D01*
X153920238Y-84772619D02*
X153967857Y-84725000D01*
X154063095Y-84677380D01*
X154301190Y-84677380D01*
X154396428Y-84725000D01*
X154444047Y-84772619D01*
X154491666Y-84867857D01*
X154491666Y-84963095D01*
X154444047Y-85105952D01*
X153872619Y-85677380D01*
X154491666Y-85677380D01*
%TO.C,J1*%
X92916666Y-102102380D02*
X92916666Y-102816666D01*
X92869047Y-102959523D01*
X92773809Y-103054761D01*
X92630952Y-103102380D01*
X92535714Y-103102380D01*
X93916666Y-103102380D02*
X93345238Y-103102380D01*
X93630952Y-103102380D02*
X93630952Y-102102380D01*
X93535714Y-102245238D01*
X93440476Y-102340476D01*
X93345238Y-102388095D01*
%TO.C,D10*%
X113427380Y-97514285D02*
X112427380Y-97514285D01*
X112427380Y-97276190D01*
X112475000Y-97133333D01*
X112570238Y-97038095D01*
X112665476Y-96990476D01*
X112855952Y-96942857D01*
X112998809Y-96942857D01*
X113189285Y-96990476D01*
X113284523Y-97038095D01*
X113379761Y-97133333D01*
X113427380Y-97276190D01*
X113427380Y-97514285D01*
X113427380Y-95990476D02*
X113427380Y-96561904D01*
X113427380Y-96276190D02*
X112427380Y-96276190D01*
X112570238Y-96371428D01*
X112665476Y-96466666D01*
X112713095Y-96561904D01*
X112427380Y-95371428D02*
X112427380Y-95276190D01*
X112475000Y-95180952D01*
X112522619Y-95133333D01*
X112617857Y-95085714D01*
X112808333Y-95038095D01*
X113046428Y-95038095D01*
X113236904Y-95085714D01*
X113332142Y-95133333D01*
X113379761Y-95180952D01*
X113427380Y-95276190D01*
X113427380Y-95371428D01*
X113379761Y-95466666D01*
X113332142Y-95514285D01*
X113236904Y-95561904D01*
X113046428Y-95609523D01*
X112808333Y-95609523D01*
X112617857Y-95561904D01*
X112522619Y-95514285D01*
X112475000Y-95466666D01*
X112427380Y-95371428D01*
%TO.C,D9*%
X113502380Y-94413095D02*
X112502380Y-94413095D01*
X112502380Y-94175000D01*
X112550000Y-94032142D01*
X112645238Y-93936904D01*
X112740476Y-93889285D01*
X112930952Y-93841666D01*
X113073809Y-93841666D01*
X113264285Y-93889285D01*
X113359523Y-93936904D01*
X113454761Y-94032142D01*
X113502380Y-94175000D01*
X113502380Y-94413095D01*
X113502380Y-93365476D02*
X113502380Y-93175000D01*
X113454761Y-93079761D01*
X113407142Y-93032142D01*
X113264285Y-92936904D01*
X113073809Y-92889285D01*
X112692857Y-92889285D01*
X112597619Y-92936904D01*
X112550000Y-92984523D01*
X112502380Y-93079761D01*
X112502380Y-93270238D01*
X112550000Y-93365476D01*
X112597619Y-93413095D01*
X112692857Y-93460714D01*
X112930952Y-93460714D01*
X113026190Y-93413095D01*
X113073809Y-93365476D01*
X113121428Y-93270238D01*
X113121428Y-93079761D01*
X113073809Y-92984523D01*
X113026190Y-92936904D01*
X112930952Y-92889285D01*
%TO.C,D8*%
X113477380Y-92313095D02*
X112477380Y-92313095D01*
X112477380Y-92075000D01*
X112525000Y-91932142D01*
X112620238Y-91836904D01*
X112715476Y-91789285D01*
X112905952Y-91741666D01*
X113048809Y-91741666D01*
X113239285Y-91789285D01*
X113334523Y-91836904D01*
X113429761Y-91932142D01*
X113477380Y-92075000D01*
X113477380Y-92313095D01*
X112905952Y-91170238D02*
X112858333Y-91265476D01*
X112810714Y-91313095D01*
X112715476Y-91360714D01*
X112667857Y-91360714D01*
X112572619Y-91313095D01*
X112525000Y-91265476D01*
X112477380Y-91170238D01*
X112477380Y-90979761D01*
X112525000Y-90884523D01*
X112572619Y-90836904D01*
X112667857Y-90789285D01*
X112715476Y-90789285D01*
X112810714Y-90836904D01*
X112858333Y-90884523D01*
X112905952Y-90979761D01*
X112905952Y-91170238D01*
X112953571Y-91265476D01*
X113001190Y-91313095D01*
X113096428Y-91360714D01*
X113286904Y-91360714D01*
X113382142Y-91313095D01*
X113429761Y-91265476D01*
X113477380Y-91170238D01*
X113477380Y-90979761D01*
X113429761Y-90884523D01*
X113382142Y-90836904D01*
X113286904Y-90789285D01*
X113096428Y-90789285D01*
X113001190Y-90836904D01*
X112953571Y-90884523D01*
X112905952Y-90979761D01*
%TO.C,D7*%
X113452380Y-90113095D02*
X112452380Y-90113095D01*
X112452380Y-89875000D01*
X112500000Y-89732142D01*
X112595238Y-89636904D01*
X112690476Y-89589285D01*
X112880952Y-89541666D01*
X113023809Y-89541666D01*
X113214285Y-89589285D01*
X113309523Y-89636904D01*
X113404761Y-89732142D01*
X113452380Y-89875000D01*
X113452380Y-90113095D01*
X112452380Y-89208333D02*
X112452380Y-88541666D01*
X113452380Y-88970238D01*
%TO.C,D6*%
X113452380Y-87863095D02*
X112452380Y-87863095D01*
X112452380Y-87625000D01*
X112500000Y-87482142D01*
X112595238Y-87386904D01*
X112690476Y-87339285D01*
X112880952Y-87291666D01*
X113023809Y-87291666D01*
X113214285Y-87339285D01*
X113309523Y-87386904D01*
X113404761Y-87482142D01*
X113452380Y-87625000D01*
X113452380Y-87863095D01*
X112452380Y-86434523D02*
X112452380Y-86625000D01*
X112500000Y-86720238D01*
X112547619Y-86767857D01*
X112690476Y-86863095D01*
X112880952Y-86910714D01*
X113261904Y-86910714D01*
X113357142Y-86863095D01*
X113404761Y-86815476D01*
X113452380Y-86720238D01*
X113452380Y-86529761D01*
X113404761Y-86434523D01*
X113357142Y-86386904D01*
X113261904Y-86339285D01*
X113023809Y-86339285D01*
X112928571Y-86386904D01*
X112880952Y-86434523D01*
X112833333Y-86529761D01*
X112833333Y-86720238D01*
X112880952Y-86815476D01*
X112928571Y-86863095D01*
X113023809Y-86910714D01*
%TO.C,D5*%
X113427380Y-85738095D02*
X112427380Y-85738095D01*
X112427380Y-85500000D01*
X112475000Y-85357142D01*
X112570238Y-85261904D01*
X112665476Y-85214285D01*
X112855952Y-85166666D01*
X112998809Y-85166666D01*
X113189285Y-85214285D01*
X113284523Y-85261904D01*
X113379761Y-85357142D01*
X113427380Y-85500000D01*
X113427380Y-85738095D01*
X112427380Y-84261904D02*
X112427380Y-84738095D01*
X112903571Y-84785714D01*
X112855952Y-84738095D01*
X112808333Y-84642857D01*
X112808333Y-84404761D01*
X112855952Y-84309523D01*
X112903571Y-84261904D01*
X112998809Y-84214285D01*
X113236904Y-84214285D01*
X113332142Y-84261904D01*
X113379761Y-84309523D01*
X113427380Y-84404761D01*
X113427380Y-84642857D01*
X113379761Y-84738095D01*
X113332142Y-84785714D01*
%TO.C,D4*%
X113427380Y-83538095D02*
X112427380Y-83538095D01*
X112427380Y-83300000D01*
X112475000Y-83157142D01*
X112570238Y-83061904D01*
X112665476Y-83014285D01*
X112855952Y-82966666D01*
X112998809Y-82966666D01*
X113189285Y-83014285D01*
X113284523Y-83061904D01*
X113379761Y-83157142D01*
X113427380Y-83300000D01*
X113427380Y-83538095D01*
X112760714Y-82109523D02*
X113427380Y-82109523D01*
X112379761Y-82347619D02*
X113094047Y-82585714D01*
X113094047Y-81966666D01*
%TO.C,D3*%
X113402380Y-81363095D02*
X112402380Y-81363095D01*
X112402380Y-81125000D01*
X112450000Y-80982142D01*
X112545238Y-80886904D01*
X112640476Y-80839285D01*
X112830952Y-80791666D01*
X112973809Y-80791666D01*
X113164285Y-80839285D01*
X113259523Y-80886904D01*
X113354761Y-80982142D01*
X113402380Y-81125000D01*
X113402380Y-81363095D01*
X112402380Y-80458333D02*
X112402380Y-79839285D01*
X112783333Y-80172619D01*
X112783333Y-80029761D01*
X112830952Y-79934523D01*
X112878571Y-79886904D01*
X112973809Y-79839285D01*
X113211904Y-79839285D01*
X113307142Y-79886904D01*
X113354761Y-79934523D01*
X113402380Y-80029761D01*
X113402380Y-80315476D01*
X113354761Y-80410714D01*
X113307142Y-80458333D01*
%TO.C,D2*%
X106711904Y-116552380D02*
X106711904Y-115552380D01*
X106950000Y-115552380D01*
X107092857Y-115600000D01*
X107188095Y-115695238D01*
X107235714Y-115790476D01*
X107283333Y-115980952D01*
X107283333Y-116123809D01*
X107235714Y-116314285D01*
X107188095Y-116409523D01*
X107092857Y-116504761D01*
X106950000Y-116552380D01*
X106711904Y-116552380D01*
X107664285Y-115647619D02*
X107711904Y-115600000D01*
X107807142Y-115552380D01*
X108045238Y-115552380D01*
X108140476Y-115600000D01*
X108188095Y-115647619D01*
X108235714Y-115742857D01*
X108235714Y-115838095D01*
X108188095Y-115980952D01*
X107616666Y-116552380D01*
X108235714Y-116552380D01*
%TO.C,D1*%
X106661904Y-99877380D02*
X106661904Y-98877380D01*
X106900000Y-98877380D01*
X107042857Y-98925000D01*
X107138095Y-99020238D01*
X107185714Y-99115476D01*
X107233333Y-99305952D01*
X107233333Y-99448809D01*
X107185714Y-99639285D01*
X107138095Y-99734523D01*
X107042857Y-99829761D01*
X106900000Y-99877380D01*
X106661904Y-99877380D01*
X108185714Y-99877380D02*
X107614285Y-99877380D01*
X107900000Y-99877380D02*
X107900000Y-98877380D01*
X107804761Y-99020238D01*
X107709523Y-99115476D01*
X107614285Y-99163095D01*
%TO.C,C23*%
X95702142Y-90672142D02*
X95654523Y-90719761D01*
X95511666Y-90767380D01*
X95416428Y-90767380D01*
X95273571Y-90719761D01*
X95178333Y-90624523D01*
X95130714Y-90529285D01*
X95083095Y-90338809D01*
X95083095Y-90195952D01*
X95130714Y-90005476D01*
X95178333Y-89910238D01*
X95273571Y-89815000D01*
X95416428Y-89767380D01*
X95511666Y-89767380D01*
X95654523Y-89815000D01*
X95702142Y-89862619D01*
X96083095Y-89862619D02*
X96130714Y-89815000D01*
X96225952Y-89767380D01*
X96464047Y-89767380D01*
X96559285Y-89815000D01*
X96606904Y-89862619D01*
X96654523Y-89957857D01*
X96654523Y-90053095D01*
X96606904Y-90195952D01*
X96035476Y-90767380D01*
X96654523Y-90767380D01*
X96987857Y-89767380D02*
X97606904Y-89767380D01*
X97273571Y-90148333D01*
X97416428Y-90148333D01*
X97511666Y-90195952D01*
X97559285Y-90243571D01*
X97606904Y-90338809D01*
X97606904Y-90576904D01*
X97559285Y-90672142D01*
X97511666Y-90719761D01*
X97416428Y-90767380D01*
X97130714Y-90767380D01*
X97035476Y-90719761D01*
X96987857Y-90672142D01*
%TO.C,C22*%
X96882142Y-88707142D02*
X96834523Y-88754761D01*
X96691666Y-88802380D01*
X96596428Y-88802380D01*
X96453571Y-88754761D01*
X96358333Y-88659523D01*
X96310714Y-88564285D01*
X96263095Y-88373809D01*
X96263095Y-88230952D01*
X96310714Y-88040476D01*
X96358333Y-87945238D01*
X96453571Y-87850000D01*
X96596428Y-87802380D01*
X96691666Y-87802380D01*
X96834523Y-87850000D01*
X96882142Y-87897619D01*
X97263095Y-87897619D02*
X97310714Y-87850000D01*
X97405952Y-87802380D01*
X97644047Y-87802380D01*
X97739285Y-87850000D01*
X97786904Y-87897619D01*
X97834523Y-87992857D01*
X97834523Y-88088095D01*
X97786904Y-88230952D01*
X97215476Y-88802380D01*
X97834523Y-88802380D01*
X98215476Y-87897619D02*
X98263095Y-87850000D01*
X98358333Y-87802380D01*
X98596428Y-87802380D01*
X98691666Y-87850000D01*
X98739285Y-87897619D01*
X98786904Y-87992857D01*
X98786904Y-88088095D01*
X98739285Y-88230952D01*
X98167857Y-88802380D01*
X98786904Y-88802380D01*
%TO.C,C21*%
X108667142Y-114062857D02*
X108714761Y-114110476D01*
X108762380Y-114253333D01*
X108762380Y-114348571D01*
X108714761Y-114491428D01*
X108619523Y-114586666D01*
X108524285Y-114634285D01*
X108333809Y-114681904D01*
X108190952Y-114681904D01*
X108000476Y-114634285D01*
X107905238Y-114586666D01*
X107810000Y-114491428D01*
X107762380Y-114348571D01*
X107762380Y-114253333D01*
X107810000Y-114110476D01*
X107857619Y-114062857D01*
X107857619Y-113681904D02*
X107810000Y-113634285D01*
X107762380Y-113539047D01*
X107762380Y-113300952D01*
X107810000Y-113205714D01*
X107857619Y-113158095D01*
X107952857Y-113110476D01*
X108048095Y-113110476D01*
X108190952Y-113158095D01*
X108762380Y-113729523D01*
X108762380Y-113110476D01*
X108762380Y-112158095D02*
X108762380Y-112729523D01*
X108762380Y-112443809D02*
X107762380Y-112443809D01*
X107905238Y-112539047D01*
X108000476Y-112634285D01*
X108048095Y-112729523D01*
%TO.C,C20*%
X108692142Y-109692857D02*
X108739761Y-109740476D01*
X108787380Y-109883333D01*
X108787380Y-109978571D01*
X108739761Y-110121428D01*
X108644523Y-110216666D01*
X108549285Y-110264285D01*
X108358809Y-110311904D01*
X108215952Y-110311904D01*
X108025476Y-110264285D01*
X107930238Y-110216666D01*
X107835000Y-110121428D01*
X107787380Y-109978571D01*
X107787380Y-109883333D01*
X107835000Y-109740476D01*
X107882619Y-109692857D01*
X107882619Y-109311904D02*
X107835000Y-109264285D01*
X107787380Y-109169047D01*
X107787380Y-108930952D01*
X107835000Y-108835714D01*
X107882619Y-108788095D01*
X107977857Y-108740476D01*
X108073095Y-108740476D01*
X108215952Y-108788095D01*
X108787380Y-109359523D01*
X108787380Y-108740476D01*
X107787380Y-108121428D02*
X107787380Y-108026190D01*
X107835000Y-107930952D01*
X107882619Y-107883333D01*
X107977857Y-107835714D01*
X108168333Y-107788095D01*
X108406428Y-107788095D01*
X108596904Y-107835714D01*
X108692142Y-107883333D01*
X108739761Y-107930952D01*
X108787380Y-108026190D01*
X108787380Y-108121428D01*
X108739761Y-108216666D01*
X108692142Y-108264285D01*
X108596904Y-108311904D01*
X108406428Y-108359523D01*
X108168333Y-108359523D01*
X107977857Y-108311904D01*
X107882619Y-108264285D01*
X107835000Y-108216666D01*
X107787380Y-108121428D01*
%TO.C,C19*%
X96132142Y-114267857D02*
X96179761Y-114315476D01*
X96227380Y-114458333D01*
X96227380Y-114553571D01*
X96179761Y-114696428D01*
X96084523Y-114791666D01*
X95989285Y-114839285D01*
X95798809Y-114886904D01*
X95655952Y-114886904D01*
X95465476Y-114839285D01*
X95370238Y-114791666D01*
X95275000Y-114696428D01*
X95227380Y-114553571D01*
X95227380Y-114458333D01*
X95275000Y-114315476D01*
X95322619Y-114267857D01*
X96227380Y-113315476D02*
X96227380Y-113886904D01*
X96227380Y-113601190D02*
X95227380Y-113601190D01*
X95370238Y-113696428D01*
X95465476Y-113791666D01*
X95513095Y-113886904D01*
X96227380Y-112839285D02*
X96227380Y-112648809D01*
X96179761Y-112553571D01*
X96132142Y-112505952D01*
X95989285Y-112410714D01*
X95798809Y-112363095D01*
X95417857Y-112363095D01*
X95322619Y-112410714D01*
X95275000Y-112458333D01*
X95227380Y-112553571D01*
X95227380Y-112744047D01*
X95275000Y-112839285D01*
X95322619Y-112886904D01*
X95417857Y-112934523D01*
X95655952Y-112934523D01*
X95751190Y-112886904D01*
X95798809Y-112839285D01*
X95846428Y-112744047D01*
X95846428Y-112553571D01*
X95798809Y-112458333D01*
X95751190Y-112410714D01*
X95655952Y-112363095D01*
%TO.C,C18*%
X108692142Y-106917857D02*
X108739761Y-106965476D01*
X108787380Y-107108333D01*
X108787380Y-107203571D01*
X108739761Y-107346428D01*
X108644523Y-107441666D01*
X108549285Y-107489285D01*
X108358809Y-107536904D01*
X108215952Y-107536904D01*
X108025476Y-107489285D01*
X107930238Y-107441666D01*
X107835000Y-107346428D01*
X107787380Y-107203571D01*
X107787380Y-107108333D01*
X107835000Y-106965476D01*
X107882619Y-106917857D01*
X108787380Y-105965476D02*
X108787380Y-106536904D01*
X108787380Y-106251190D02*
X107787380Y-106251190D01*
X107930238Y-106346428D01*
X108025476Y-106441666D01*
X108073095Y-106536904D01*
X108215952Y-105394047D02*
X108168333Y-105489285D01*
X108120714Y-105536904D01*
X108025476Y-105584523D01*
X107977857Y-105584523D01*
X107882619Y-105536904D01*
X107835000Y-105489285D01*
X107787380Y-105394047D01*
X107787380Y-105203571D01*
X107835000Y-105108333D01*
X107882619Y-105060714D01*
X107977857Y-105013095D01*
X108025476Y-105013095D01*
X108120714Y-105060714D01*
X108168333Y-105108333D01*
X108215952Y-105203571D01*
X108215952Y-105394047D01*
X108263571Y-105489285D01*
X108311190Y-105536904D01*
X108406428Y-105584523D01*
X108596904Y-105584523D01*
X108692142Y-105536904D01*
X108739761Y-105489285D01*
X108787380Y-105394047D01*
X108787380Y-105203571D01*
X108739761Y-105108333D01*
X108692142Y-105060714D01*
X108596904Y-105013095D01*
X108406428Y-105013095D01*
X108311190Y-105060714D01*
X108263571Y-105108333D01*
X108215952Y-105203571D01*
%TO.C,C17*%
X108692142Y-102092857D02*
X108739761Y-102140476D01*
X108787380Y-102283333D01*
X108787380Y-102378571D01*
X108739761Y-102521428D01*
X108644523Y-102616666D01*
X108549285Y-102664285D01*
X108358809Y-102711904D01*
X108215952Y-102711904D01*
X108025476Y-102664285D01*
X107930238Y-102616666D01*
X107835000Y-102521428D01*
X107787380Y-102378571D01*
X107787380Y-102283333D01*
X107835000Y-102140476D01*
X107882619Y-102092857D01*
X108787380Y-101140476D02*
X108787380Y-101711904D01*
X108787380Y-101426190D02*
X107787380Y-101426190D01*
X107930238Y-101521428D01*
X108025476Y-101616666D01*
X108073095Y-101711904D01*
X107787380Y-100807142D02*
X107787380Y-100140476D01*
X108787380Y-100569047D01*
%TO.C,C16*%
X96007142Y-102567857D02*
X96054761Y-102615476D01*
X96102380Y-102758333D01*
X96102380Y-102853571D01*
X96054761Y-102996428D01*
X95959523Y-103091666D01*
X95864285Y-103139285D01*
X95673809Y-103186904D01*
X95530952Y-103186904D01*
X95340476Y-103139285D01*
X95245238Y-103091666D01*
X95150000Y-102996428D01*
X95102380Y-102853571D01*
X95102380Y-102758333D01*
X95150000Y-102615476D01*
X95197619Y-102567857D01*
X96102380Y-101615476D02*
X96102380Y-102186904D01*
X96102380Y-101901190D02*
X95102380Y-101901190D01*
X95245238Y-101996428D01*
X95340476Y-102091666D01*
X95388095Y-102186904D01*
X95102380Y-100758333D02*
X95102380Y-100948809D01*
X95150000Y-101044047D01*
X95197619Y-101091666D01*
X95340476Y-101186904D01*
X95530952Y-101234523D01*
X95911904Y-101234523D01*
X96007142Y-101186904D01*
X96054761Y-101139285D01*
X96102380Y-101044047D01*
X96102380Y-100853571D01*
X96054761Y-100758333D01*
X96007142Y-100710714D01*
X95911904Y-100663095D01*
X95673809Y-100663095D01*
X95578571Y-100710714D01*
X95530952Y-100758333D01*
X95483333Y-100853571D01*
X95483333Y-101044047D01*
X95530952Y-101139285D01*
X95578571Y-101186904D01*
X95673809Y-101234523D01*
%TO.C,C15*%
X120857142Y-103942857D02*
X120904761Y-103990476D01*
X120952380Y-104133333D01*
X120952380Y-104228571D01*
X120904761Y-104371428D01*
X120809523Y-104466666D01*
X120714285Y-104514285D01*
X120523809Y-104561904D01*
X120380952Y-104561904D01*
X120190476Y-104514285D01*
X120095238Y-104466666D01*
X120000000Y-104371428D01*
X119952380Y-104228571D01*
X119952380Y-104133333D01*
X120000000Y-103990476D01*
X120047619Y-103942857D01*
X120952380Y-102990476D02*
X120952380Y-103561904D01*
X120952380Y-103276190D02*
X119952380Y-103276190D01*
X120095238Y-103371428D01*
X120190476Y-103466666D01*
X120238095Y-103561904D01*
X119952380Y-102085714D02*
X119952380Y-102561904D01*
X120428571Y-102609523D01*
X120380952Y-102561904D01*
X120333333Y-102466666D01*
X120333333Y-102228571D01*
X120380952Y-102133333D01*
X120428571Y-102085714D01*
X120523809Y-102038095D01*
X120761904Y-102038095D01*
X120857142Y-102085714D01*
X120904761Y-102133333D01*
X120952380Y-102228571D01*
X120952380Y-102466666D01*
X120904761Y-102561904D01*
X120857142Y-102609523D01*
%TO.C,C14*%
X122157142Y-104017857D02*
X122204761Y-104065476D01*
X122252380Y-104208333D01*
X122252380Y-104303571D01*
X122204761Y-104446428D01*
X122109523Y-104541666D01*
X122014285Y-104589285D01*
X121823809Y-104636904D01*
X121680952Y-104636904D01*
X121490476Y-104589285D01*
X121395238Y-104541666D01*
X121300000Y-104446428D01*
X121252380Y-104303571D01*
X121252380Y-104208333D01*
X121300000Y-104065476D01*
X121347619Y-104017857D01*
X122252380Y-103065476D02*
X122252380Y-103636904D01*
X122252380Y-103351190D02*
X121252380Y-103351190D01*
X121395238Y-103446428D01*
X121490476Y-103541666D01*
X121538095Y-103636904D01*
X121585714Y-102208333D02*
X122252380Y-102208333D01*
X121204761Y-102446428D02*
X121919047Y-102684523D01*
X121919047Y-102065476D01*
%TO.C,C13*%
X120807142Y-97192857D02*
X120854761Y-97240476D01*
X120902380Y-97383333D01*
X120902380Y-97478571D01*
X120854761Y-97621428D01*
X120759523Y-97716666D01*
X120664285Y-97764285D01*
X120473809Y-97811904D01*
X120330952Y-97811904D01*
X120140476Y-97764285D01*
X120045238Y-97716666D01*
X119950000Y-97621428D01*
X119902380Y-97478571D01*
X119902380Y-97383333D01*
X119950000Y-97240476D01*
X119997619Y-97192857D01*
X120902380Y-96240476D02*
X120902380Y-96811904D01*
X120902380Y-96526190D02*
X119902380Y-96526190D01*
X120045238Y-96621428D01*
X120140476Y-96716666D01*
X120188095Y-96811904D01*
X119902380Y-95907142D02*
X119902380Y-95288095D01*
X120283333Y-95621428D01*
X120283333Y-95478571D01*
X120330952Y-95383333D01*
X120378571Y-95335714D01*
X120473809Y-95288095D01*
X120711904Y-95288095D01*
X120807142Y-95335714D01*
X120854761Y-95383333D01*
X120902380Y-95478571D01*
X120902380Y-95764285D01*
X120854761Y-95859523D01*
X120807142Y-95907142D01*
%TO.C,C12*%
X122132142Y-97192857D02*
X122179761Y-97240476D01*
X122227380Y-97383333D01*
X122227380Y-97478571D01*
X122179761Y-97621428D01*
X122084523Y-97716666D01*
X121989285Y-97764285D01*
X121798809Y-97811904D01*
X121655952Y-97811904D01*
X121465476Y-97764285D01*
X121370238Y-97716666D01*
X121275000Y-97621428D01*
X121227380Y-97478571D01*
X121227380Y-97383333D01*
X121275000Y-97240476D01*
X121322619Y-97192857D01*
X122227380Y-96240476D02*
X122227380Y-96811904D01*
X122227380Y-96526190D02*
X121227380Y-96526190D01*
X121370238Y-96621428D01*
X121465476Y-96716666D01*
X121513095Y-96811904D01*
X121322619Y-95859523D02*
X121275000Y-95811904D01*
X121227380Y-95716666D01*
X121227380Y-95478571D01*
X121275000Y-95383333D01*
X121322619Y-95335714D01*
X121417857Y-95288095D01*
X121513095Y-95288095D01*
X121655952Y-95335714D01*
X122227380Y-95907142D01*
X122227380Y-95288095D01*
%TO.C,C11*%
X116262142Y-87397142D02*
X116214523Y-87444761D01*
X116071666Y-87492380D01*
X115976428Y-87492380D01*
X115833571Y-87444761D01*
X115738333Y-87349523D01*
X115690714Y-87254285D01*
X115643095Y-87063809D01*
X115643095Y-86920952D01*
X115690714Y-86730476D01*
X115738333Y-86635238D01*
X115833571Y-86540000D01*
X115976428Y-86492380D01*
X116071666Y-86492380D01*
X116214523Y-86540000D01*
X116262142Y-86587619D01*
X117214523Y-87492380D02*
X116643095Y-87492380D01*
X116928809Y-87492380D02*
X116928809Y-86492380D01*
X116833571Y-86635238D01*
X116738333Y-86730476D01*
X116643095Y-86778095D01*
X118166904Y-87492380D02*
X117595476Y-87492380D01*
X117881190Y-87492380D02*
X117881190Y-86492380D01*
X117785952Y-86635238D01*
X117690714Y-86730476D01*
X117595476Y-86778095D01*
%TO.C,C10*%
X115357142Y-104517142D02*
X115309523Y-104564761D01*
X115166666Y-104612380D01*
X115071428Y-104612380D01*
X114928571Y-104564761D01*
X114833333Y-104469523D01*
X114785714Y-104374285D01*
X114738095Y-104183809D01*
X114738095Y-104040952D01*
X114785714Y-103850476D01*
X114833333Y-103755238D01*
X114928571Y-103660000D01*
X115071428Y-103612380D01*
X115166666Y-103612380D01*
X115309523Y-103660000D01*
X115357142Y-103707619D01*
X116309523Y-104612380D02*
X115738095Y-104612380D01*
X116023809Y-104612380D02*
X116023809Y-103612380D01*
X115928571Y-103755238D01*
X115833333Y-103850476D01*
X115738095Y-103898095D01*
X116928571Y-103612380D02*
X117023809Y-103612380D01*
X117119047Y-103660000D01*
X117166666Y-103707619D01*
X117214285Y-103802857D01*
X117261904Y-103993333D01*
X117261904Y-104231428D01*
X117214285Y-104421904D01*
X117166666Y-104517142D01*
X117119047Y-104564761D01*
X117023809Y-104612380D01*
X116928571Y-104612380D01*
X116833333Y-104564761D01*
X116785714Y-104517142D01*
X116738095Y-104421904D01*
X116690476Y-104231428D01*
X116690476Y-103993333D01*
X116738095Y-103802857D01*
X116785714Y-103707619D01*
X116833333Y-103660000D01*
X116928571Y-103612380D01*
%TO.C,C9*%
X136358333Y-106982142D02*
X136310714Y-107029761D01*
X136167857Y-107077380D01*
X136072619Y-107077380D01*
X135929761Y-107029761D01*
X135834523Y-106934523D01*
X135786904Y-106839285D01*
X135739285Y-106648809D01*
X135739285Y-106505952D01*
X135786904Y-106315476D01*
X135834523Y-106220238D01*
X135929761Y-106125000D01*
X136072619Y-106077380D01*
X136167857Y-106077380D01*
X136310714Y-106125000D01*
X136358333Y-106172619D01*
X136834523Y-107077380D02*
X137025000Y-107077380D01*
X137120238Y-107029761D01*
X137167857Y-106982142D01*
X137263095Y-106839285D01*
X137310714Y-106648809D01*
X137310714Y-106267857D01*
X137263095Y-106172619D01*
X137215476Y-106125000D01*
X137120238Y-106077380D01*
X136929761Y-106077380D01*
X136834523Y-106125000D01*
X136786904Y-106172619D01*
X136739285Y-106267857D01*
X136739285Y-106505952D01*
X136786904Y-106601190D01*
X136834523Y-106648809D01*
X136929761Y-106696428D01*
X137120238Y-106696428D01*
X137215476Y-106648809D01*
X137263095Y-106601190D01*
X137310714Y-106505952D01*
%TO.C,C8*%
X141057142Y-92841666D02*
X141104761Y-92889285D01*
X141152380Y-93032142D01*
X141152380Y-93127380D01*
X141104761Y-93270238D01*
X141009523Y-93365476D01*
X140914285Y-93413095D01*
X140723809Y-93460714D01*
X140580952Y-93460714D01*
X140390476Y-93413095D01*
X140295238Y-93365476D01*
X140200000Y-93270238D01*
X140152380Y-93127380D01*
X140152380Y-93032142D01*
X140200000Y-92889285D01*
X140247619Y-92841666D01*
X140580952Y-92270238D02*
X140533333Y-92365476D01*
X140485714Y-92413095D01*
X140390476Y-92460714D01*
X140342857Y-92460714D01*
X140247619Y-92413095D01*
X140200000Y-92365476D01*
X140152380Y-92270238D01*
X140152380Y-92079761D01*
X140200000Y-91984523D01*
X140247619Y-91936904D01*
X140342857Y-91889285D01*
X140390476Y-91889285D01*
X140485714Y-91936904D01*
X140533333Y-91984523D01*
X140580952Y-92079761D01*
X140580952Y-92270238D01*
X140628571Y-92365476D01*
X140676190Y-92413095D01*
X140771428Y-92460714D01*
X140961904Y-92460714D01*
X141057142Y-92413095D01*
X141104761Y-92365476D01*
X141152380Y-92270238D01*
X141152380Y-92079761D01*
X141104761Y-91984523D01*
X141057142Y-91936904D01*
X140961904Y-91889285D01*
X140771428Y-91889285D01*
X140676190Y-91936904D01*
X140628571Y-91984523D01*
X140580952Y-92079761D01*
%TO.C,C7*%
X121008333Y-90582142D02*
X120960714Y-90629761D01*
X120817857Y-90677380D01*
X120722619Y-90677380D01*
X120579761Y-90629761D01*
X120484523Y-90534523D01*
X120436904Y-90439285D01*
X120389285Y-90248809D01*
X120389285Y-90105952D01*
X120436904Y-89915476D01*
X120484523Y-89820238D01*
X120579761Y-89725000D01*
X120722619Y-89677380D01*
X120817857Y-89677380D01*
X120960714Y-89725000D01*
X121008333Y-89772619D01*
X121341666Y-89677380D02*
X122008333Y-89677380D01*
X121579761Y-90677380D01*
%TO.C,C6*%
X124207142Y-87066666D02*
X124254761Y-87114285D01*
X124302380Y-87257142D01*
X124302380Y-87352380D01*
X124254761Y-87495238D01*
X124159523Y-87590476D01*
X124064285Y-87638095D01*
X123873809Y-87685714D01*
X123730952Y-87685714D01*
X123540476Y-87638095D01*
X123445238Y-87590476D01*
X123350000Y-87495238D01*
X123302380Y-87352380D01*
X123302380Y-87257142D01*
X123350000Y-87114285D01*
X123397619Y-87066666D01*
X123302380Y-86209523D02*
X123302380Y-86400000D01*
X123350000Y-86495238D01*
X123397619Y-86542857D01*
X123540476Y-86638095D01*
X123730952Y-86685714D01*
X124111904Y-86685714D01*
X124207142Y-86638095D01*
X124254761Y-86590476D01*
X124302380Y-86495238D01*
X124302380Y-86304761D01*
X124254761Y-86209523D01*
X124207142Y-86161904D01*
X124111904Y-86114285D01*
X123873809Y-86114285D01*
X123778571Y-86161904D01*
X123730952Y-86209523D01*
X123683333Y-86304761D01*
X123683333Y-86495238D01*
X123730952Y-86590476D01*
X123778571Y-86638095D01*
X123873809Y-86685714D01*
%TO.C,C5*%
X139803333Y-88172142D02*
X139755714Y-88219761D01*
X139612857Y-88267380D01*
X139517619Y-88267380D01*
X139374761Y-88219761D01*
X139279523Y-88124523D01*
X139231904Y-88029285D01*
X139184285Y-87838809D01*
X139184285Y-87695952D01*
X139231904Y-87505476D01*
X139279523Y-87410238D01*
X139374761Y-87315000D01*
X139517619Y-87267380D01*
X139612857Y-87267380D01*
X139755714Y-87315000D01*
X139803333Y-87362619D01*
X140708095Y-87267380D02*
X140231904Y-87267380D01*
X140184285Y-87743571D01*
X140231904Y-87695952D01*
X140327142Y-87648333D01*
X140565238Y-87648333D01*
X140660476Y-87695952D01*
X140708095Y-87743571D01*
X140755714Y-87838809D01*
X140755714Y-88076904D01*
X140708095Y-88172142D01*
X140660476Y-88219761D01*
X140565238Y-88267380D01*
X140327142Y-88267380D01*
X140231904Y-88219761D01*
X140184285Y-88172142D01*
%TO.C,C4*%
X139767142Y-104916666D02*
X139814761Y-104964285D01*
X139862380Y-105107142D01*
X139862380Y-105202380D01*
X139814761Y-105345238D01*
X139719523Y-105440476D01*
X139624285Y-105488095D01*
X139433809Y-105535714D01*
X139290952Y-105535714D01*
X139100476Y-105488095D01*
X139005238Y-105440476D01*
X138910000Y-105345238D01*
X138862380Y-105202380D01*
X138862380Y-105107142D01*
X138910000Y-104964285D01*
X138957619Y-104916666D01*
X139195714Y-104059523D02*
X139862380Y-104059523D01*
X138814761Y-104297619D02*
X139529047Y-104535714D01*
X139529047Y-103916666D01*
%TO.C,C3*%
X125408333Y-107207142D02*
X125360714Y-107254761D01*
X125217857Y-107302380D01*
X125122619Y-107302380D01*
X124979761Y-107254761D01*
X124884523Y-107159523D01*
X124836904Y-107064285D01*
X124789285Y-106873809D01*
X124789285Y-106730952D01*
X124836904Y-106540476D01*
X124884523Y-106445238D01*
X124979761Y-106350000D01*
X125122619Y-106302380D01*
X125217857Y-106302380D01*
X125360714Y-106350000D01*
X125408333Y-106397619D01*
X125741666Y-106302380D02*
X126360714Y-106302380D01*
X126027380Y-106683333D01*
X126170238Y-106683333D01*
X126265476Y-106730952D01*
X126313095Y-106778571D01*
X126360714Y-106873809D01*
X126360714Y-107111904D01*
X126313095Y-107207142D01*
X126265476Y-107254761D01*
X126170238Y-107302380D01*
X125884523Y-107302380D01*
X125789285Y-107254761D01*
X125741666Y-107207142D01*
%TO.C,C2*%
X120847142Y-94316666D02*
X120894761Y-94364285D01*
X120942380Y-94507142D01*
X120942380Y-94602380D01*
X120894761Y-94745238D01*
X120799523Y-94840476D01*
X120704285Y-94888095D01*
X120513809Y-94935714D01*
X120370952Y-94935714D01*
X120180476Y-94888095D01*
X120085238Y-94840476D01*
X119990000Y-94745238D01*
X119942380Y-94602380D01*
X119942380Y-94507142D01*
X119990000Y-94364285D01*
X120037619Y-94316666D01*
X120037619Y-93935714D02*
X119990000Y-93888095D01*
X119942380Y-93792857D01*
X119942380Y-93554761D01*
X119990000Y-93459523D01*
X120037619Y-93411904D01*
X120132857Y-93364285D01*
X120228095Y-93364285D01*
X120370952Y-93411904D01*
X120942380Y-93983333D01*
X120942380Y-93364285D01*
%TO.C,C1*%
X120057142Y-92191666D02*
X120104761Y-92239285D01*
X120152380Y-92382142D01*
X120152380Y-92477380D01*
X120104761Y-92620238D01*
X120009523Y-92715476D01*
X119914285Y-92763095D01*
X119723809Y-92810714D01*
X119580952Y-92810714D01*
X119390476Y-92763095D01*
X119295238Y-92715476D01*
X119200000Y-92620238D01*
X119152380Y-92477380D01*
X119152380Y-92382142D01*
X119200000Y-92239285D01*
X119247619Y-92191666D01*
X120152380Y-91239285D02*
X120152380Y-91810714D01*
X120152380Y-91525000D02*
X119152380Y-91525000D01*
X119295238Y-91620238D01*
X119390476Y-91715476D01*
X119438095Y-91810714D01*
D11*
%TO.C,Y1*%
X113875000Y-89675000D02*
X113875000Y-102275000D01*
X113875000Y-102275000D02*
X118975000Y-102275000D01*
X118975000Y-102275000D02*
X118975000Y-89675000D01*
%TO.C,U5*%
X97925000Y-108190000D02*
X103935000Y-108190000D01*
X100175000Y-115010000D02*
X103935000Y-115010000D01*
X103935000Y-115010000D02*
X103935000Y-113750000D01*
X103935000Y-108190000D02*
X103935000Y-109450000D01*
%TO.C,U4*%
X143975000Y-93960000D02*
X143175000Y-93960000D01*
X143975000Y-90840000D02*
X144775000Y-90840000D01*
X143975000Y-93960000D02*
X144775000Y-93960000D01*
X143975000Y-90840000D02*
X142175000Y-90840000D01*
%TO.C,U3*%
X144250000Y-98210000D02*
X143450000Y-98210000D01*
X144250000Y-95090000D02*
X142450000Y-95090000D01*
X144250000Y-95090000D02*
X145050000Y-95090000D01*
X144250000Y-98210000D02*
X145050000Y-98210000D01*
%TO.C,U2*%
X97900000Y-100615000D02*
X103910000Y-100615000D01*
X100150000Y-107435000D02*
X103910000Y-107435000D01*
X103910000Y-107435000D02*
X103910000Y-106175000D01*
X103910000Y-100615000D02*
X103910000Y-101875000D01*
%TO.C,U1*%
X124840000Y-103110000D02*
X124140000Y-103110000D01*
X124140000Y-89590000D02*
X122775000Y-89590000D01*
X138360000Y-103110000D02*
X138360000Y-102410000D01*
X138360000Y-88890000D02*
X138360000Y-89590000D01*
X137660000Y-88890000D02*
X138360000Y-88890000D01*
X137660000Y-103110000D02*
X138360000Y-103110000D01*
X124140000Y-88890000D02*
X124140000Y-89590000D01*
X124840000Y-88890000D02*
X124140000Y-88890000D01*
X124140000Y-103110000D02*
X124140000Y-102410000D01*
%TO.C,SW2*%
X95425000Y-97575000D02*
X100825000Y-97575000D01*
X100825000Y-97575000D02*
X100825000Y-92175000D01*
X100825000Y-92175000D02*
X95425000Y-92175000D01*
X95425000Y-92175000D02*
X95425000Y-97575000D01*
X100472214Y-96775000D02*
G75*
G03*
X100472214Y-96775000I-447214J0D01*
G01*
X100472214Y-92975000D02*
G75*
G03*
X100472214Y-92975000I-447214J0D01*
G01*
X99625000Y-94875000D02*
G75*
G03*
X99625000Y-94875000I-1500000J0D01*
G01*
X96672214Y-96775000D02*
G75*
G03*
X96672214Y-96775000I-447214J0D01*
G01*
X96672214Y-92975000D02*
G75*
G03*
X96672214Y-92975000I-447214J0D01*
G01*
%TO.C,SW1*%
X95375000Y-87475000D02*
X100775000Y-87475000D01*
X100775000Y-87475000D02*
X100775000Y-82075000D01*
X100775000Y-82075000D02*
X95375000Y-82075000D01*
X95375000Y-82075000D02*
X95375000Y-87475000D01*
X100422214Y-86675000D02*
G75*
G03*
X100422214Y-86675000I-447214J0D01*
G01*
X100422214Y-82875000D02*
G75*
G03*
X100422214Y-82875000I-447214J0D01*
G01*
X99575000Y-84775000D02*
G75*
G03*
X99575000Y-84775000I-1500000J0D01*
G01*
X96622214Y-86675000D02*
G75*
G03*
X96622214Y-86675000I-447214J0D01*
G01*
X96622214Y-82875000D02*
G75*
G03*
X96622214Y-82875000I-447214J0D01*
G01*
%TO.C,R14*%
X100003641Y-91755000D02*
X99696359Y-91755000D01*
X100003641Y-90995000D02*
X99696359Y-90995000D01*
%TO.C,R13*%
X143413641Y-99455000D02*
X143106359Y-99455000D01*
X143413641Y-98695000D02*
X143106359Y-98695000D01*
%TO.C,R12*%
X145196359Y-98670000D02*
X145503641Y-98670000D01*
X145196359Y-99430000D02*
X145503641Y-99430000D01*
%TO.C,R11*%
X128871359Y-86195000D02*
X129178641Y-86195000D01*
X128871359Y-86955000D02*
X129178641Y-86955000D01*
%TO.C,R10*%
X107653641Y-96205000D02*
X107346359Y-96205000D01*
X107653641Y-95445000D02*
X107346359Y-95445000D01*
%TO.C,R9*%
X107728641Y-94080000D02*
X107421359Y-94080000D01*
X107728641Y-93320000D02*
X107421359Y-93320000D01*
%TO.C,R8*%
X107678641Y-91930000D02*
X107371359Y-91930000D01*
X107678641Y-91170000D02*
X107371359Y-91170000D01*
%TO.C,R7*%
X107578641Y-89755000D02*
X107271359Y-89755000D01*
X107578641Y-88995000D02*
X107271359Y-88995000D01*
%TO.C,R6*%
X107653641Y-87530000D02*
X107346359Y-87530000D01*
X107653641Y-86770000D02*
X107346359Y-86770000D01*
%TO.C,R5*%
X107578641Y-85355000D02*
X107271359Y-85355000D01*
X107578641Y-84595000D02*
X107271359Y-84595000D01*
%TO.C,R4*%
X107503641Y-83180000D02*
X107196359Y-83180000D01*
X107503641Y-82420000D02*
X107196359Y-82420000D01*
%TO.C,R3*%
X107528641Y-81030000D02*
X107221359Y-81030000D01*
X107528641Y-80270000D02*
X107221359Y-80270000D01*
%TO.C,R2*%
X102413641Y-116430000D02*
X102106359Y-116430000D01*
X102413641Y-115670000D02*
X102106359Y-115670000D01*
%TO.C,R1*%
X102428641Y-99855000D02*
X102121359Y-99855000D01*
X102428641Y-99095000D02*
X102121359Y-99095000D01*
%TO.C,J4*%
X112770000Y-118180000D02*
X112770000Y-116850000D01*
X115370000Y-118180000D02*
X115370000Y-115580000D01*
X115370000Y-115580000D02*
X112770000Y-115580000D01*
X112770000Y-115580000D02*
X112770000Y-112980000D01*
X150990000Y-118180000D02*
X150990000Y-112980000D01*
X114100000Y-118180000D02*
X112770000Y-118180000D01*
X112770000Y-112980000D02*
X150990000Y-112980000D01*
X115370000Y-118180000D02*
X150990000Y-118180000D01*
%TO.C,J3*%
X144265000Y-82430000D02*
X144265000Y-79770000D01*
X121345000Y-82430000D02*
X121345000Y-79770000D01*
X118745000Y-82430000D02*
X118745000Y-81100000D01*
X121345000Y-82430000D02*
X144265000Y-82430000D01*
X121345000Y-79770000D02*
X144265000Y-79770000D01*
X120075000Y-82430000D02*
X118745000Y-82430000D01*
%TO.C,J2*%
X150675000Y-86025000D02*
X160775000Y-86025000D01*
X150675000Y-98825000D02*
X160775000Y-98825000D01*
X146875000Y-87825000D02*
X146875000Y-86025000D01*
X160775000Y-86025000D02*
X160775000Y-98825000D01*
X146875000Y-98825000D02*
X146875000Y-97025000D01*
%TO.C,J1*%
X96275000Y-111950000D02*
X96275000Y-109450000D01*
X91575000Y-103550000D02*
X96275000Y-103550000D01*
X97175000Y-106100000D02*
X97175000Y-106650000D01*
X96275000Y-106100000D02*
X96275000Y-103600000D01*
X91575000Y-111950000D02*
X91575000Y-103550000D01*
X91575000Y-111950000D02*
X96275000Y-111950000D01*
X96275000Y-106100000D02*
X97175000Y-106100000D01*
%TO.C,D10*%
X111450000Y-94865000D02*
X108765000Y-94865000D01*
X108765000Y-94865000D02*
X108765000Y-96785000D01*
X108765000Y-96785000D02*
X111450000Y-96785000D01*
%TO.C,D9*%
X108740000Y-94660000D02*
X111425000Y-94660000D01*
X108740000Y-92740000D02*
X108740000Y-94660000D01*
X111425000Y-92740000D02*
X108740000Y-92740000D01*
%TO.C,D8*%
X108715000Y-92535000D02*
X111400000Y-92535000D01*
X108715000Y-90615000D02*
X108715000Y-92535000D01*
X111400000Y-90615000D02*
X108715000Y-90615000D01*
%TO.C,D7*%
X108665000Y-90335000D02*
X111350000Y-90335000D01*
X108665000Y-88415000D02*
X108665000Y-90335000D01*
X111350000Y-88415000D02*
X108665000Y-88415000D01*
%TO.C,D6*%
X108665000Y-88135000D02*
X111350000Y-88135000D01*
X108665000Y-86215000D02*
X108665000Y-88135000D01*
X111350000Y-86215000D02*
X108665000Y-86215000D01*
%TO.C,D5*%
X108640000Y-85960000D02*
X111325000Y-85960000D01*
X108640000Y-84040000D02*
X108640000Y-85960000D01*
X111325000Y-84040000D02*
X108640000Y-84040000D01*
%TO.C,D4*%
X108640000Y-83785000D02*
X111325000Y-83785000D01*
X108640000Y-81865000D02*
X108640000Y-83785000D01*
X111325000Y-81865000D02*
X108640000Y-81865000D01*
%TO.C,D3*%
X108640000Y-81610000D02*
X111325000Y-81610000D01*
X108640000Y-79690000D02*
X108640000Y-81610000D01*
X111325000Y-79690000D02*
X108640000Y-79690000D01*
%TO.C,D2*%
X103440000Y-116785000D02*
X105725000Y-116785000D01*
X103440000Y-115315000D02*
X103440000Y-116785000D01*
X105725000Y-115315000D02*
X103440000Y-115315000D01*
%TO.C,D1*%
X103440000Y-100210000D02*
X105725000Y-100210000D01*
X103440000Y-98740000D02*
X103440000Y-100210000D01*
X105725000Y-98740000D02*
X103440000Y-98740000D01*
%TO.C,C23*%
X96237164Y-91835000D02*
X96452836Y-91835000D01*
X96237164Y-91115000D02*
X96452836Y-91115000D01*
%TO.C,C22*%
X100032836Y-87790000D02*
X99817164Y-87790000D01*
X100032836Y-88510000D02*
X99817164Y-88510000D01*
%TO.C,C21*%
X106790000Y-113312164D02*
X106790000Y-113527836D01*
X107510000Y-113312164D02*
X107510000Y-113527836D01*
%TO.C,C20*%
X106815000Y-108942164D02*
X106815000Y-109157836D01*
X107535000Y-108942164D02*
X107535000Y-109157836D01*
%TO.C,C19*%
X97310000Y-113527836D02*
X97310000Y-113312164D01*
X96590000Y-113527836D02*
X96590000Y-113312164D01*
%TO.C,C18*%
X106815000Y-106167164D02*
X106815000Y-106382836D01*
X107535000Y-106167164D02*
X107535000Y-106382836D01*
%TO.C,C17*%
X106815000Y-101342164D02*
X106815000Y-101557836D01*
X107535000Y-101342164D02*
X107535000Y-101557836D01*
%TO.C,C16*%
X97210000Y-102302836D02*
X97210000Y-102087164D01*
X96490000Y-102302836D02*
X96490000Y-102087164D01*
%TO.C,C15*%
X120315000Y-100817164D02*
X120315000Y-101032836D01*
X121035000Y-100817164D02*
X121035000Y-101032836D01*
%TO.C,C14*%
X121440000Y-100847164D02*
X121440000Y-101062836D01*
X122160000Y-100847164D02*
X122160000Y-101062836D01*
%TO.C,C13*%
X121010000Y-99032836D02*
X121010000Y-98817164D01*
X120290000Y-99032836D02*
X120290000Y-98817164D01*
%TO.C,C12*%
X122160000Y-99032836D02*
X122160000Y-98817164D01*
X121440000Y-99032836D02*
X121440000Y-98817164D01*
%TO.C,C11*%
X116797164Y-88560000D02*
X117012836Y-88560000D01*
X116797164Y-87840000D02*
X117012836Y-87840000D01*
%TO.C,C10*%
X116107836Y-102640000D02*
X115892164Y-102640000D01*
X116107836Y-103360000D02*
X115892164Y-103360000D01*
%TO.C,C9*%
X136417164Y-105735000D02*
X136632836Y-105735000D01*
X136417164Y-105015000D02*
X136632836Y-105015000D01*
%TO.C,C8*%
X141010000Y-90832836D02*
X141010000Y-90617164D01*
X140290000Y-90832836D02*
X140290000Y-90617164D01*
%TO.C,C7*%
X121332836Y-91040000D02*
X121117164Y-91040000D01*
X121332836Y-91760000D02*
X121117164Y-91760000D01*
%TO.C,C6*%
X125317164Y-86885000D02*
X125532836Y-86885000D01*
X125317164Y-86165000D02*
X125532836Y-86165000D01*
%TO.C,C5*%
X139862164Y-89335000D02*
X140077836Y-89335000D01*
X139862164Y-88615000D02*
X140077836Y-88615000D01*
%TO.C,C4*%
X137890000Y-104642164D02*
X137890000Y-104857836D01*
X138610000Y-104642164D02*
X138610000Y-104857836D01*
%TO.C,C3*%
X125682836Y-105240000D02*
X125467164Y-105240000D01*
X125682836Y-105960000D02*
X125467164Y-105960000D01*
%TO.C,C2*%
X122010000Y-94257836D02*
X122010000Y-94042164D01*
X121290000Y-94257836D02*
X121290000Y-94042164D01*
%TO.C,C1*%
X121307836Y-92090000D02*
X121092164Y-92090000D01*
X121307836Y-92810000D02*
X121092164Y-92810000D01*
%TD*%
M02*
